<svg xmlns="http://www.w3.org/2000/svg" viewBox="0 0 100 100" class="ksl-svg"><path class="kp-fill" fill-rule="evenodd" d="M43.3 93.7 C43.3 93.4 43.1 93.4 42.7 93.4 C42.4 93.4 41.9 93.3 41.6 93.3 C41.0 93.2 41.0 93.1 41.0 92.7 L41.0 92.2 L40.0 92.3 C39.5 92.4 38.6 92.4 37.9 92.4 C36.9 92.4 36.8 92.4 36.8 92.8 C36.8 93.1 36.7 93.2 36.3 93.2 C35.9 93.2 35.8 93.1 35.8 92.9 C35.8 92.6 35.7 92.5 35.5 92.5 C35.3 92.5 35.2 92.5 35.2 92.4 C35.2 92.3 35.0 92.2 34.7 92.2 C34.5 92.2 34.3 92.1 34.3 92.0 C34.3 91.8 34.2 91.7 33.9 91.7 C33.7 91.7 33.5 91.6 33.5 91.5 C33.5 91.4 33.3 91.4 33.1 91.4 C32.8 91.4 32.7 91.3 32.7 91.1 C32.7 91.0 32.5 90.9 32.2 90.9 L31.8 90.8 L32.3 90.7 C32.7 90.6 32.6 90.6 31.9 90.6 C31.4 90.6 31.0 90.6 31.0 90.7 C31.0 90.8 30.7 90.9 30.3 90.9 C29.7 90.9 29.5 90.9 29.5 91.2 C29.5 91.4 29.5 91.4 29.4 91.2 C29.3 91.0 29.3 91.0 29.2 91.2 C29.1 91.3 28.8 91.5 28.6 91.5 C28.2 91.5 28.1 91.6 28.0 91.9 L27.9 92.3 L27.8 91.9 L27.7 91.5 L27.6 91.9 C27.5 92.2 27.5 92.2 27.4 91.9 C27.2 91.6 27.2 91.6 26.1 91.6 C25.5 91.5 25.4 91.5 25.4 91.2 C25.4 91.0 25.3 90.9 25.2 90.9 C25.1 90.9 25.1 90.8 25.2 90.6 C25.2 90.4 25.2 90.4 25.1 90.4 C24.7 90.6 24.3 90.1 24.3 89.3 C24.2 88.9 24.1 88.6 24.0 88.6 C23.9 88.6 23.9 88.4 23.9 88.3 C23.9 88.2 23.8 88.1 23.7 88.0 C23.5 88.0 23.4 87.4 23.4 86.2 C23.4 85.9 23.3 85.7 23.1 85.7 C23.0 85.7 22.9 85.6 22.9 85.4 C22.9 85.2 22.8 85.1 22.7 85.0 C22.5 85.0 22.5 83.1 22.7 82.2 C22.9 81.5 22.9 81.4 22.5 80.3 C22.3 79.6 22.0 78.9 21.8 78.8 C21.7 78.6 21.6 78.4 21.7 78.4 C21.8 78.4 21.9 78.4 21.9 78.3 C21.9 78.2 21.8 78.1 21.7 78.2 C21.6 78.3 21.5 78.2 21.6 77.8 C21.7 77.4 21.6 77.3 21.5 77.3 C21.3 77.4 21.2 77.3 21.2 77.1 C21.2 77.0 21.0 76.8 20.8 76.7 C20.4 76.5 20.3 76.3 20.1 75.5 C20.0 74.9 19.9 74.4 20.0 74.3 C20.0 74.2 20.0 74.1 19.8 74.1 C19.6 74.1 19.6 74.0 19.6 73.6 C19.6 73.2 19.5 73.1 19.4 73.3 C19.2 73.6 19.1 72.6 19.2 71.1 C19.2 69.8 19.1 69.5 18.4 69.8 C18.1 70.0 17.9 69.9 17.9 69.5 C17.9 69.3 17.8 69.1 17.6 69.1 C17.5 69.0 17.4 68.8 17.5 68.6 C17.5 68.3 17.5 68.2 17.4 68.2 C17.3 68.2 17.3 68.1 17.4 68.0 C17.6 67.9 17.7 67.9 17.8 68.2 C17.8 68.4 17.9 67.9 17.9 67.1 C17.8 66.2 17.8 65.5 17.7 65.4 C17.6 65.3 17.6 65.5 17.6 65.7 C17.6 66.0 17.6 66.2 17.5 66.2 C17.4 66.2 17.4 65.9 17.3 65.5 C17.3 65.1 17.4 64.8 17.5 64.8 C17.6 64.8 17.5 64.8 17.3 64.7 C17.2 64.6 17.0 64.4 17.0 64.2 C16.9 63.6 16.8 63.1 16.8 62.9 C16.8 62.8 16.6 62.7 16.5 62.7 C16.4 62.7 16.3 62.6 16.3 62.5 C16.3 62.4 16.2 62.4 16.0 62.5 C15.8 62.7 15.8 62.7 15.8 62.3 C15.8 62.1 15.8 61.9 15.9 61.9 C16.0 61.9 16.1 61.6 16.1 61.3 C16.0 60.9 15.9 60.8 15.7 60.7 C15.3 60.7 15.1 60.1 15.1 58.9 C15.1 58.5 15.0 58.4 14.8 58.4 C14.7 58.4 14.6 58.2 14.6 57.5 C14.6 57.1 14.7 56.7 14.8 56.7 C15.0 56.7 14.4 56.1 14.1 56.0 C13.9 56.0 13.9 56.0 14.0 55.9 C14.2 55.9 14.2 55.7 14.1 55.5 C14.0 55.3 14.0 55.0 14.1 55.0 C14.1 54.9 14.1 54.9 14.0 54.9 C13.8 54.9 13.8 54.6 13.8 54.2 C13.8 53.9 13.7 53.6 13.6 53.6 C13.5 53.6 13.4 53.4 13.4 53.3 C13.4 53.2 13.3 53.1 13.2 53.1 C13.1 53.2 12.9 53.1 12.8 53.0 C12.6 52.8 12.6 52.7 12.8 52.7 C12.9 52.7 12.8 52.6 12.6 52.5 C12.3 52.4 12.2 52.4 12.1 52.5 C11.9 53.0 11.6 52.3 11.7 51.6 C11.8 51.3 11.9 50.9 11.9 50.8 C12.0 49.7 12.2 49.1 12.4 49.1 C12.5 49.1 12.6 49.0 12.6 48.8 C12.6 48.7 12.7 48.6 12.8 48.6 C12.9 48.6 12.9 48.5 12.7 48.4 C12.5 48.2 12.4 48.1 12.5 46.4 C12.6 44.7 12.6 44.6 12.3 44.6 C12.0 44.6 12.0 44.6 12.4 44.4 L12.7 44.3 L12.4 44.3 C12.2 44.3 12.1 44.2 12.2 44.2 C12.9 43.9 13.4 43.1 13.4 42.4 C13.4 41.8 13.6 41.4 14.1 41.3 C14.3 41.2 14.3 41.2 14.1 41.1 C13.8 41.1 13.8 41.1 14.0 40.8 C14.1 40.6 14.3 40.3 14.4 40.2 C14.6 40.1 14.6 39.9 14.5 39.3 C14.4 38.7 14.4 38.5 14.6 38.5 C14.7 38.6 14.8 38.5 14.9 38.2 C14.9 37.9 15.0 37.6 15.1 37.6 C15.2 37.6 15.3 37.4 15.3 37.1 C15.3 36.9 15.3 36.7 15.4 36.7 C15.5 36.7 15.6 36.7 15.6 36.8 C15.6 36.9 15.9 37.0 16.2 37.0 L16.8 36.9 L16.8 36.0 C16.8 35.3 16.8 35.2 16.9 35.5 C17.0 35.8 17.1 35.8 17.1 35.6 C17.1 35.5 17.3 35.3 17.5 35.3 C17.7 35.3 17.8 35.2 17.8 35.1 C17.8 34.9 17.9 34.7 18.1 34.6 C18.3 34.4 18.4 34.1 18.4 33.9 C18.4 33.6 18.5 33.5 18.8 33.7 C19.2 33.8 19.2 33.8 19.2 33.5 C19.2 33.3 19.3 33.3 19.4 33.5 C19.5 33.7 19.6 33.6 19.6 33.2 C19.6 32.8 19.6 32.5 19.6 32.5 C19.6 32.4 19.7 32.3 19.8 32.3 C20.0 32.3 20.0 32.1 20.0 31.5 C20.0 30.6 20.4 29.9 20.7 30.1 C20.8 30.2 20.9 30.1 20.9 29.9 C20.9 29.6 20.9 29.6 21.1 29.9 C21.2 30.0 21.2 29.9 21.2 29.3 C21.2 28.5 21.2 28.4 21.5 28.4 C21.7 28.4 21.9 28.2 21.9 28.1 C21.9 27.7 22.4 26.2 22.6 26.2 C22.6 26.2 22.7 26.4 22.8 26.6 C22.8 26.9 22.8 26.9 22.9 26.5 C22.9 26.2 23.0 26.1 23.1 26.1 C23.3 26.2 23.4 26.2 23.3 26.0 C23.2 25.8 23.3 25.7 23.7 25.6 C24.1 25.6 24.2 25.4 24.1 25.3 C24.0 25.1 24.1 25.0 24.2 25.1 C24.7 25.1 24.9 25.0 24.9 24.7 C24.9 24.5 25.0 24.4 25.1 24.4 C25.3 24.5 25.4 24.4 25.4 24.1 C25.4 23.9 25.5 23.7 25.9 23.5 C26.4 23.2 26.5 23.2 26.8 23.5 C27.0 23.8 27.2 23.8 27.5 23.7 C27.7 23.6 27.9 23.6 27.9 23.7 C27.9 23.7 28.0 23.6 28.1 23.4 C28.3 23.1 28.4 23.1 28.4 23.2 C28.4 23.9 28.7 22.9 28.7 21.9 C28.7 21.4 28.8 20.9 28.9 20.9 C28.9 20.9 29.0 20.8 29.1 20.6 C29.1 20.4 29.2 20.5 29.2 20.8 C29.2 21.1 29.3 21.2 29.5 21.1 C29.7 21.0 29.7 21.0 29.5 20.9 C29.4 20.8 29.3 20.7 29.5 20.7 C29.6 20.7 29.6 20.5 29.6 20.2 C29.5 19.6 29.8 19.3 30.1 19.7 C30.2 19.8 30.4 19.9 30.5 19.9 C30.7 19.9 30.9 20.0 31.0 20.3 C31.0 20.5 31.2 20.6 31.5 20.5 C31.7 20.5 31.9 20.5 32.0 20.7 C32.1 21.0 32.2 21.0 32.2 20.7 C32.2 20.5 32.2 20.4 32.3 20.4 C32.4 20.4 32.5 20.5 32.5 20.7 C32.5 20.9 32.5 20.9 32.6 20.7 C32.7 20.6 32.9 20.5 33.2 20.5 C33.4 20.5 33.7 20.4 33.9 20.2 C34.4 19.6 35.1 19.5 35.2 19.9 C35.3 20.1 35.3 20.1 35.3 19.9 C35.3 19.7 35.5 19.6 35.6 19.6 C36.0 19.6 37.6 18.1 37.7 17.6 C37.9 17.1 38.0 16.5 38.0 16.3 C38.0 16.2 38.1 16.1 38.3 16.1 C38.4 16.1 38.5 16.0 38.4 16.0 C38.4 15.7 38.9 14.9 39.2 14.8 C39.3 14.8 39.4 14.7 39.4 14.6 C39.3 14.5 39.5 14.4 39.6 14.3 C39.8 14.3 40.0 14.1 40.0 14.0 C40.0 13.8 40.1 13.7 40.6 13.8 C41.4 13.9 42.0 13.7 42.0 13.3 C42.0 13.1 42.1 12.9 42.3 12.9 C42.5 12.8 42.6 12.7 42.6 12.4 C42.6 12.2 42.8 12.0 43.1 11.9 C43.4 11.8 43.6 11.6 43.6 11.4 C43.6 11.3 43.7 11.1 43.9 11.1 C44.0 11.1 44.1 11.0 44.1 10.9 C44.1 10.6 44.5 10.1 44.7 10.1 C44.9 10.1 45.3 9.7 45.3 9.5 C45.3 9.4 45.4 9.3 45.5 9.3 C45.7 9.3 45.8 9.1 45.9 8.8 C46.0 8.4 46.0 8.4 46.4 8.4 C46.7 8.5 46.8 8.4 46.9 8.0 C47.0 7.6 47.0 7.5 47.4 7.5 C47.6 7.6 47.8 7.5 47.8 7.4 C47.8 7.2 47.9 7.1 48.1 7.1 C48.2 7.1 48.5 7.0 48.6 6.9 C48.8 6.6 49.3 6.6 49.3 6.8 C49.3 6.9 49.4 7.0 49.5 6.9 C49.6 6.9 49.8 6.9 49.8 7.0 C49.8 7.1 49.8 7.1 49.9 7.1 C50.2 6.9 50.7 7.1 50.8 7.4 C50.8 7.6 50.8 7.6 50.9 7.3 C51.0 7.1 51.2 7.0 51.3 7.0 C51.5 7.0 51.6 6.8 51.6 6.6 C51.6 6.2 51.6 6.2 52.0 6.2 C52.3 6.3 52.5 6.3 52.6 6.3 C52.8 6.3 52.8 7.1 52.6 7.1 C52.5 7.1 52.4 7.3 52.4 7.5 C52.4 8.1 53.2 7.8 53.3 7.1 C53.3 7.0 53.4 7.0 53.4 7.0 C53.9 7.0 54.0 7.0 53.7 7.1 C53.6 7.2 53.6 7.3 53.7 7.3 C53.8 7.3 53.9 7.5 53.9 7.9 C53.9 8.5 53.9 8.5 54.1 8.1 L54.2 7.7 L54.2 8.1 C54.3 8.6 55.0 8.8 56.1 8.7 C56.6 8.7 56.7 8.7 56.4 8.8 C56.0 8.9 56.0 8.9 56.3 9.0 C56.5 9.0 56.8 9.0 56.9 9.0 C57.2 9.1 58.0 10.1 58.1 10.4 C58.1 10.6 58.1 10.6 58.2 10.4 C58.3 10.1 58.4 10.1 58.4 10.3 C58.4 10.5 58.4 10.6 58.5 10.6 C58.6 10.5 58.7 10.6 58.8 10.7 C59.0 10.9 59.0 10.9 58.8 11.0 C58.7 11.1 58.7 11.1 58.8 11.1 C59.0 11.1 59.0 11.2 59.0 11.3 C58.9 11.4 59.1 11.5 59.5 11.6 C59.8 11.7 60.0 11.9 60.0 11.9 C60.0 12.0 60.3 12.1 60.6 12.2 C61.0 12.2 61.4 12.4 61.5 12.6 C61.7 12.8 61.9 12.9 61.9 12.8 C61.9 12.7 62.0 12.7 62.3 12.8 C62.8 13.0 62.8 13.1 62.9 14.2 C63.0 14.8 63.1 15.4 63.2 15.5 C63.4 15.6 63.4 15.6 63.2 15.6 C63.0 15.6 63.0 15.9 63.1 17.0 C63.2 17.8 63.3 18.7 63.3 18.9 C63.4 19.3 63.4 19.3 63.5 19.0 C63.6 18.7 63.7 18.7 63.7 19.0 C63.7 19.2 63.8 19.4 63.9 19.4 C64.1 19.4 64.2 19.6 64.2 19.8 C64.2 20.1 64.0 20.3 63.6 20.5 C62.9 20.8 62.6 21.2 62.2 22.4 C62.0 23.2 62.0 23.3 62.3 23.9 C62.6 24.7 63.2 25.5 63.2 25.3 C63.2 25.2 63.3 25.2 63.3 25.4 C63.5 25.6 63.6 25.6 64.0 25.4 C64.3 25.3 64.6 25.2 64.8 25.3 C64.9 25.3 65.1 25.3 65.1 25.1 C65.2 25.0 65.3 24.9 65.3 25.0 C65.4 25.0 65.6 24.7 65.7 24.3 C65.9 23.7 66.0 23.6 66.4 23.6 C66.6 23.6 66.8 23.6 66.8 23.7 C66.7 23.9 67.1 24.5 67.3 24.5 C67.4 24.5 67.6 24.5 67.8 24.5 C68.0 24.5 68.2 24.6 68.2 24.7 C68.2 25.1 68.6 25.3 69.1 25.3 C69.4 25.3 69.7 25.5 70.0 25.8 C70.5 26.2 70.7 26.3 71.2 26.0 C71.4 25.9 71.5 25.9 71.5 26.1 C71.5 26.2 71.6 26.2 71.7 26.1 C71.8 26.1 72.0 26.2 72.0 26.3 C72.1 26.4 72.2 26.5 72.3 26.5 C72.4 26.4 72.5 26.5 72.5 26.6 C72.6 26.7 72.6 26.6 72.6 26.5 C72.7 26.2 72.7 26.2 72.8 26.5 C72.9 26.8 73.0 26.9 73.3 26.9 C73.6 27.0 73.8 26.9 73.8 26.8 C73.8 26.7 73.9 26.7 74.0 26.8 C74.2 26.8 74.4 26.7 74.5 26.5 C74.6 26.2 74.7 26.1 74.9 26.1 C75.1 26.2 75.3 26.1 75.3 26.0 C75.3 25.9 75.4 25.9 75.5 26.0 C75.5 26.0 75.7 25.9 75.8 25.7 C75.9 25.3 75.9 25.3 76.0 25.6 C76.0 25.9 76.0 25.9 76.1 25.5 C76.2 25.3 76.3 25.2 76.5 25.2 C77.0 25.3 77.0 25.3 77.0 25.1 C76.9 24.8 77.2 24.8 77.3 25.2 C77.4 25.4 77.4 25.3 77.4 25.0 C77.4 24.7 77.5 24.7 77.6 24.9 C77.8 25.1 77.8 25.1 77.8 24.9 C77.8 24.2 77.9 23.9 78.0 23.8 C78.1 23.7 78.1 23.8 78.1 23.9 C78.1 24.1 78.2 24.2 78.3 24.2 C78.4 24.2 78.4 24.1 78.4 24.0 C78.4 23.8 78.5 23.7 78.6 23.7 C78.7 23.7 78.8 23.7 78.9 23.7 C79.0 23.6 79.3 23.4 79.6 23.2 C79.9 22.9 80.1 22.8 80.1 22.9 C80.2 23.0 80.3 22.9 80.3 22.6 C80.5 22.0 80.9 21.9 81.0 22.3 C81.0 22.6 81.1 22.6 81.1 22.3 C81.1 22.2 81.2 22.1 81.5 22.1 C81.8 22.1 81.8 22.0 81.6 21.9 C81.4 21.8 81.4 21.7 81.6 21.7 C81.9 21.7 82.3 20.4 82.1 20.3 C81.7 20.1 82.2 17.7 82.6 17.6 C82.7 17.6 82.8 17.6 82.9 17.6 C83.0 17.6 83.1 17.5 83.1 17.3 C83.1 17.2 83.2 17.1 83.2 17.2 C83.3 17.2 83.4 17.2 83.4 17.0 C83.4 16.9 83.5 16.8 83.6 16.8 C83.7 16.8 84.0 16.7 84.2 16.7 C84.7 16.6 84.8 16.5 85.2 16.6 C85.4 16.6 85.4 16.6 85.2 16.8 C85.0 16.9 85.0 17.0 85.2 17.0 C85.3 17.1 85.4 17.2 85.4 17.4 C85.4 17.6 85.5 17.6 85.6 17.3 C85.7 17.1 85.7 17.1 85.7 17.3 C85.7 17.8 87.2 17.8 87.2 17.3 C87.2 17.1 87.3 17.1 87.4 17.2 C87.4 17.3 87.7 17.4 87.9 17.5 C88.3 17.5 88.3 17.5 87.8 17.6 L87.3 17.6 L87.8 17.7 L88.3 17.9 L87.8 17.9 L87.3 18.0 L87.8 18.1 C88.2 18.1 88.3 18.2 88.4 18.8 C88.4 19.2 88.4 19.4 88.2 19.3 C88.1 19.2 88.1 19.4 88.1 20.0 C88.2 20.7 88.2 20.7 87.7 20.8 C87.3 20.8 87.3 20.8 87.8 20.9 L88.3 21.0 L87.8 21.1 L87.3 21.1 L87.8 21.2 L88.3 21.4 L87.8 21.4 C87.6 21.4 87.4 21.5 87.4 21.6 C87.4 21.8 87.3 22.0 87.3 22.1 C87.3 22.2 87.6 22.4 87.9 22.4 L88.5 22.5 L87.8 22.5 C87.5 22.5 87.2 22.6 87.2 22.7 C87.2 22.8 87.4 22.9 87.6 22.8 C87.9 22.8 88.1 22.8 88.1 23.0 C88.1 23.1 88.0 23.2 87.9 23.2 C87.8 23.2 87.7 23.3 87.7 23.5 C87.7 23.6 87.6 23.7 87.5 23.6 C87.3 23.5 87.2 23.6 87.2 23.9 C87.2 24.0 87.2 24.2 87.1 24.3 C87.0 24.4 86.9 24.6 86.9 24.8 C86.9 25.1 86.8 25.1 86.8 24.8 C86.7 24.6 86.7 24.6 86.4 24.9 C86.2 25.2 86.1 25.5 86.1 25.7 C86.0 25.9 86.0 25.9 85.9 25.6 C85.8 25.3 85.8 25.3 85.7 25.7 C85.6 25.9 85.7 26.1 85.7 26.1 C85.8 26.2 85.9 26.4 85.9 26.7 C85.9 27.1 85.8 27.3 85.4 27.4 C85.1 27.5 85.0 27.7 85.0 27.7 C85.1 27.8 85.0 27.9 84.9 27.9 C84.8 27.9 84.7 27.8 84.7 27.7 C84.7 27.3 84.3 27.8 84.2 28.2 C84.2 28.5 84.0 28.6 83.8 28.7 C83.4 28.7 83.4 28.8 83.4 29.4 C83.4 30.0 83.4 30.1 83.7 30.0 C83.8 29.9 83.9 29.9 83.9 30.0 C83.9 30.1 83.8 30.2 83.6 30.2 C83.3 30.3 83.3 30.3 83.6 30.3 C83.9 30.4 84.0 30.8 83.7 30.8 C83.7 30.8 83.6 31.3 83.6 31.8 C83.6 32.6 83.5 32.8 83.4 32.8 C83.2 32.8 83.1 33.3 83.0 34.8 C83.0 35.8 82.8 36.8 82.7 36.9 C82.7 37.0 82.6 37.2 82.6 37.4 C82.6 37.6 82.5 37.8 82.4 37.8 C82.3 37.8 82.3 37.9 82.3 38.0 C82.3 38.2 82.1 38.4 82.0 38.5 C81.8 38.7 81.8 39.0 81.8 39.5 C81.9 40.0 81.9 40.1 81.6 40.2 C81.4 40.2 81.3 40.2 81.3 40.1 C81.3 40.0 81.2 40.0 81.1 40.0 C81.0 40.0 81.0 40.1 81.0 40.2 C81.1 40.4 81.0 40.6 80.9 40.7 C80.8 40.8 80.8 41.0 80.8 41.1 C80.8 41.1 80.8 41.4 80.8 41.5 C80.7 41.8 80.7 41.8 80.6 41.5 C80.5 41.2 80.5 41.1 80.4 41.3 C80.4 41.5 80.4 41.7 80.3 41.8 C80.3 41.9 80.3 42.1 80.3 42.3 C80.2 42.6 80.2 42.6 80.1 42.1 C80.0 41.7 80.0 41.7 80.0 42.6 L80.0 43.6 L79.6 43.6 L79.1 43.5 L79.2 45.4 C79.2 46.5 79.3 47.5 79.3 47.6 C79.4 47.7 79.3 47.8 79.2 47.8 C79.0 47.8 78.9 47.9 78.8 48.1 C78.8 48.3 78.6 48.4 78.5 48.4 C78.3 48.3 78.3 48.5 78.4 49.3 C78.4 50.3 78.4 50.4 78.2 50.3 C78.0 50.2 77.9 50.3 77.9 50.6 C77.9 50.7 77.8 50.9 77.6 51.0 C77.4 51.1 77.3 51.2 77.3 51.4 C77.3 51.6 77.2 51.7 77.1 51.7 C77.0 51.7 76.9 51.9 76.9 52.1 C76.9 52.3 76.8 52.4 76.7 52.4 C76.6 52.4 76.4 52.8 76.3 53.6 C76.2 54.3 76.1 54.8 76.0 54.9 C75.9 54.9 75.8 55.0 75.9 55.1 C75.9 55.2 75.9 55.2 75.8 55.2 C75.7 55.2 75.6 55.4 75.6 55.6 C75.5 55.8 75.4 55.9 75.3 55.8 C75.1 55.7 74.8 56.7 74.8 57.3 C74.8 57.4 74.7 57.5 74.6 57.5 C74.5 57.5 74.5 57.9 74.5 58.3 C74.5 58.7 74.4 59.1 74.3 59.1 C74.1 59.2 74.1 59.5 74.1 60.0 C74.1 60.8 74.1 60.9 73.4 61.2 C73.0 61.5 72.9 61.6 73.0 61.7 C73.2 61.8 73.1 61.9 72.9 61.9 C72.8 61.9 72.6 62.0 72.6 62.1 C72.6 62.3 72.5 62.4 72.2 62.4 C71.7 62.4 71.4 62.6 71.3 63.1 C71.2 63.3 71.0 63.3 70.9 63.3 C70.8 63.2 70.6 63.3 70.6 63.4 C70.6 63.5 70.5 63.5 70.4 63.5 C70.3 63.4 70.1 63.4 70.1 63.5 C70.1 63.6 69.9 63.7 69.7 63.8 C69.1 63.9 68.7 64.3 69.0 64.4 C69.1 64.4 69.0 64.5 68.7 64.6 C68.3 64.7 68.1 64.8 67.9 65.2 C67.8 65.5 67.7 65.6 67.7 65.5 C67.7 65.4 67.6 65.3 67.6 65.4 C67.5 65.4 67.5 66.0 67.4 66.8 C67.4 67.6 67.3 68.1 67.2 68.1 C67.1 68.2 67.0 68.4 67.0 68.6 C67.0 69.0 67.0 69.0 66.8 68.7 C66.7 68.5 66.7 68.6 66.7 69.1 C66.8 69.6 66.8 69.9 66.6 70.0 C66.5 70.1 66.5 70.1 66.7 70.1 C66.8 70.1 66.7 70.3 66.4 70.5 C66.1 70.7 65.9 71.0 65.9 71.1 C65.9 71.2 65.8 71.5 65.8 71.7 C65.7 72.1 65.3 72.6 65.0 72.6 C64.9 72.6 64.8 72.8 64.8 73.0 C64.8 73.2 64.8 73.3 64.6 73.2 C64.4 73.1 64.3 73.2 64.3 73.5 C64.3 73.8 64.1 74.1 63.6 74.5 C63.1 75.0 62.8 75.4 62.4 76.4 C62.1 77.1 61.7 77.9 61.6 78.0 C59.9 79.4 59.8 79.8 60.3 80.5 C60.5 80.8 60.5 80.9 60.3 81.4 C60.1 81.7 60.0 82.4 60.0 83.0 C60.0 83.6 60.0 84.1 59.9 84.1 C59.7 84.1 59.7 84.6 59.9 84.8 C60.0 84.8 60.1 85.4 60.1 86.2 C60.1 87.2 60.1 87.3 60.0 86.6 L59.9 85.8 L59.9 86.7 C59.9 87.4 59.8 87.6 59.6 87.5 C59.4 87.4 59.4 87.5 59.4 87.7 C59.4 88.0 59.3 88.1 58.9 88.1 C58.6 88.1 58.4 88.1 58.4 88.2 C58.4 88.3 58.2 88.4 58.0 88.4 C57.7 88.4 57.5 88.5 57.5 88.7 C57.5 88.9 57.5 88.9 57.4 88.6 C57.3 88.4 57.2 88.5 57.3 89.2 L57.3 90.0 L56.7 90.0 C56.2 90.0 55.6 90.5 55.7 90.9 C55.7 91.0 55.4 91.1 55.0 91.1 C54.1 91.1 53.0 91.2 52.9 91.2 C52.9 91.2 52.8 91.2 52.7 91.2 C52.6 91.2 52.6 91.3 52.6 91.4 C52.6 91.4 52.4 91.6 52.3 91.6 C52.1 91.7 51.9 91.9 51.8 92.1 C51.8 92.4 51.6 92.5 51.4 92.5 C51.3 92.5 51.1 92.7 51.0 92.9 C51.0 93.1 50.8 93.2 50.6 93.2 C50.4 93.2 50.2 93.1 50.1 92.9 C50.1 92.6 49.9 92.5 48.8 92.5 C47.7 92.5 47.6 92.6 47.6 92.9 C47.6 93.2 47.5 93.2 46.8 93.2 C44.9 93.2 43.5 93.4 43.4 93.7 C43.3 93.9 43.3 93.9 43.3 93.7 Z"/><path class="kp-line" fill-rule="evenodd" d="M24.6 90.3 C24.4 90.1 24.3 89.7 24.3 89.3 C24.2 88.9 24.1 88.6 24.0 88.6 C23.9 88.6 23.9 88.4 23.9 88.3 C23.9 88.2 23.8 88.1 23.7 88.0 C23.5 88.0 23.4 87.4 23.4 86.2 C23.4 85.9 23.3 85.7 23.1 85.7 C23.0 85.7 22.9 85.6 22.9 85.4 C22.9 85.2 22.8 85.1 22.7 85.0 C22.5 85.0 22.5 83.1 22.7 82.2 C22.9 81.5 22.9 81.4 22.5 80.3 C22.3 79.6 22.0 78.9 21.8 78.8 C21.7 78.6 21.6 78.4 21.7 78.4 C21.8 78.4 21.9 78.4 21.9 78.3 C21.9 78.2 21.8 78.1 21.7 78.2 C21.6 78.3 21.5 78.2 21.6 77.8 C21.7 77.4 21.6 77.3 21.5 77.3 C21.3 77.4 21.2 77.3 21.2 77.1 C21.2 77.0 21.0 76.8 20.8 76.7 C20.4 76.5 20.3 76.3 20.1 75.5 C20.0 74.9 19.9 74.4 20.0 74.3 C20.0 74.2 20.0 74.1 19.8 74.1 C19.6 74.1 19.6 74.0 19.6 73.6 C19.6 73.2 19.5 73.1 19.4 73.3 C19.2 73.6 19.1 72.6 19.2 71.1 C19.2 69.8 19.1 69.5 18.4 69.8 C18.1 70.0 17.9 69.9 17.9 69.5 C17.9 69.3 17.8 69.1 17.6 69.1 C17.5 69.0 17.4 68.8 17.5 68.6 C17.5 68.3 17.5 68.2 17.4 68.2 C17.3 68.2 17.3 68.1 17.4 68.0 C17.6 67.9 17.7 67.9 17.8 68.2 C17.8 68.4 17.9 67.9 17.9 67.1 C17.8 66.2 17.8 65.5 17.7 65.4 C17.6 65.3 17.6 65.4 17.6 65.7 C17.6 65.9 17.6 66.1 17.5 66.1 C17.3 66.1 17.3 64.8 17.5 64.8 C17.6 64.8 17.5 64.8 17.3 64.7 C17.2 64.6 17.0 64.4 17.0 64.2 C16.9 63.6 16.8 63.1 16.8 62.9 C16.8 62.8 16.6 62.7 16.5 62.7 C16.4 62.7 16.3 62.6 16.3 62.5 C16.3 62.4 16.2 62.4 16.0 62.5 C15.8 62.7 15.8 62.7 15.8 62.3 C15.8 62.1 15.8 61.9 15.9 61.9 C16.0 61.9 16.1 61.6 16.1 61.3 C16.0 60.9 15.9 60.8 15.7 60.7 C15.3 60.7 15.1 60.1 15.1 58.9 C15.1 58.5 15.0 58.4 14.8 58.4 C14.7 58.4 14.6 58.2 14.6 57.5 C14.6 57.1 14.7 56.7 14.8 56.7 C15.0 56.7 14.4 56.1 14.1 56.0 C13.9 56.0 13.9 56.0 14.0 55.9 C14.2 55.9 14.2 55.7 14.1 55.5 C14.0 55.3 14.0 55.0 14.1 55.0 C14.1 54.9 14.1 54.9 14.0 54.9 C13.8 54.9 13.8 54.6 13.8 54.2 C13.8 53.9 13.7 53.6 13.6 53.6 C13.5 53.6 13.4 53.4 13.4 53.3 C13.4 53.2 13.3 53.1 13.2 53.1 C13.1 53.2 12.9 53.1 12.8 53.0 C12.6 52.8 12.6 52.7 12.8 52.7 C12.9 52.7 12.8 52.6 12.6 52.5 C12.3 52.4 12.2 52.4 12.1 52.5 C11.9 53.0 11.6 52.3 11.7 51.6 C11.8 51.3 11.9 50.9 11.9 50.8 C12.0 49.7 12.2 49.1 12.4 49.1 C12.5 49.1 12.6 49.0 12.6 48.8 C12.6 48.7 12.7 48.6 12.8 48.6 C12.9 48.6 12.9 48.5 12.7 48.4 C12.5 48.2 12.4 48.1 12.5 46.4 C12.6 44.7 12.6 44.6 12.3 44.6 C12.0 44.6 12.0 44.6 12.4 44.4 L12.7 44.3 L12.4 44.3 C12.2 44.3 12.1 44.2 12.2 44.2 C12.9 43.9 13.4 43.1 13.4 42.4 C13.4 41.8 13.6 41.4 14.1 41.3 C14.3 41.2 14.3 41.2 14.1 41.1 C13.8 41.1 13.8 41.1 14.0 40.8 C14.1 40.6 14.3 40.3 14.4 40.2 C14.5 40.2 14.6 40.0 14.6 39.8 C14.6 39.4 14.7 39.4 15.1 39.6 C15.2 39.7 15.7 39.9 16.1 40.1 C17.4 40.5 17.7 41.0 19.2 44.7 C19.5 45.4 19.9 46.0 20.0 46.1 C20.4 46.3 22.3 49.6 22.9 51.0 C23.2 51.7 23.5 52.4 23.6 52.6 C23.8 52.7 24.1 53.2 24.4 53.8 C24.7 54.3 25.2 54.9 25.6 55.3 C26.0 55.6 26.4 55.9 26.5 56.1 C26.6 56.6 27.6 57.4 28.5 57.8 C29.0 58.1 29.8 58.4 30.3 58.6 C32.6 59.8 34.2 58.3 33.2 56.0 C33.0 55.6 32.8 54.8 32.7 54.2 C32.4 52.7 32.2 51.9 32.0 50.8 C31.8 50.3 31.7 49.0 31.6 48.0 C31.5 45.9 31.1 44.9 30.1 44.2 C29.6 43.8 29.2 43.2 28.4 41.5 C27.3 39.2 26.8 38.5 25.8 37.4 C25.4 37.0 25.0 36.3 24.7 35.7 C24.2 34.6 22.7 32.9 21.9 32.6 C21.6 32.4 21.1 32.3 20.7 32.3 C20.2 32.3 20.1 32.3 20.0 31.8 C19.8 30.9 20.3 29.8 20.7 30.1 C20.8 30.2 20.9 30.1 20.9 29.9 C20.9 29.6 20.9 29.6 21.1 29.9 C21.2 30.0 21.2 29.9 21.2 29.3 C21.2 28.5 21.2 28.4 21.5 28.4 C21.7 28.4 21.9 28.2 21.9 28.1 C21.9 27.7 22.4 26.2 22.6 26.2 C22.6 26.2 22.7 26.4 22.8 26.6 C22.8 26.9 22.8 26.9 22.9 26.5 C22.9 26.2 23.0 26.1 23.1 26.1 C23.3 26.2 23.4 26.2 23.3 26.0 C23.2 25.8 23.3 25.7 23.7 25.6 C24.1 25.6 24.2 25.4 24.1 25.3 C24.0 25.1 24.1 25.0 24.2 25.1 C24.7 25.1 24.9 25.0 24.9 24.7 C24.9 24.4 25.1 24.3 25.3 24.5 C25.3 24.6 25.2 25.0 25.1 25.4 C24.8 26.4 24.9 28.5 25.3 29.4 C25.5 29.7 25.8 30.1 26.1 30.4 C26.9 31.1 27.3 31.8 27.6 33.2 C27.8 33.9 28.0 34.6 28.1 34.7 C28.3 34.8 28.4 35.0 28.4 35.1 C28.4 35.5 28.9 36.1 29.7 36.6 C30.0 36.8 30.5 37.2 30.6 37.5 C30.8 37.8 31.2 38.4 31.5 38.9 C32.1 39.7 32.3 40.4 32.8 43.3 C33.1 45.6 33.3 46.1 33.9 46.8 C34.2 47.1 34.5 47.5 34.6 47.7 C35.1 48.7 37.0 54.7 37.3 56.4 C37.6 57.7 37.8 58.6 38.1 59.0 C38.3 59.3 38.8 60.1 39.1 60.9 C39.9 62.3 40.8 63.5 41.7 63.9 C42.2 64.2 43.3 64.1 44.3 63.8 C45.1 63.6 45.2 63.4 45.7 62.5 C45.9 62.1 46.3 61.5 46.5 61.3 C46.7 61.0 46.9 60.7 46.9 60.5 C46.9 60.0 46.5 58.7 46.2 58.0 C46.0 57.7 45.7 56.8 45.5 56.0 C45.1 54.4 44.8 53.6 44.0 52.5 C43.8 52.1 43.2 51.0 42.7 50.0 C41.9 48.4 41.8 48.0 41.5 46.2 C41.2 43.9 41.1 43.3 40.4 42.3 C40.2 41.9 39.8 41.1 39.6 40.6 C39.1 39.2 38.9 38.8 38.1 37.8 C37.3 36.9 37.0 36.2 36.2 33.1 C36.0 32.2 35.7 31.1 35.6 30.7 C35.4 30.3 35.3 29.9 35.3 29.7 C35.3 29.0 34.6 26.7 34.1 25.5 C33.8 24.8 33.4 23.9 33.2 23.5 C32.7 22.1 30.8 20.1 29.8 20.1 C29.7 20.1 29.5 20.0 29.5 19.8 C29.5 19.5 29.9 19.5 30.1 19.7 C30.2 19.8 30.4 19.9 30.5 19.9 C30.7 19.9 30.9 20.0 31.0 20.3 C31.0 20.5 31.2 20.6 31.5 20.5 C31.7 20.5 31.9 20.5 32.0 20.7 C32.1 21.0 32.2 21.0 32.2 20.7 C32.2 20.5 32.2 20.4 32.3 20.4 C32.4 20.4 32.5 20.5 32.5 20.7 C32.5 20.9 32.5 20.9 32.6 20.7 C32.7 20.6 32.9 20.5 33.2 20.5 C33.4 20.5 33.7 20.4 33.9 20.2 C34.4 19.6 35.1 19.5 35.2 19.9 C35.3 20.1 35.3 20.1 35.3 19.9 C35.3 19.7 35.5 19.6 35.6 19.6 C35.8 19.6 36.2 19.3 36.5 19.0 C36.9 18.7 37.2 18.4 37.2 18.4 C37.4 18.4 39.1 22.4 39.1 22.8 C39.1 23.0 39.3 23.5 39.5 24.0 C39.8 24.8 39.9 25.5 40.0 27.7 C40.1 30.3 40.1 30.5 40.6 31.7 C41.1 32.9 41.8 35.2 42.2 36.7 C42.3 37.2 42.4 37.6 42.4 37.6 C42.8 37.9 43.7 39.7 44.1 40.9 C44.3 41.6 44.6 42.4 44.7 42.6 C44.8 42.8 45.1 43.8 45.4 44.7 C45.7 45.6 46.1 46.6 46.4 47.0 C46.9 47.7 47.2 48.5 47.7 50.5 C48.0 52.0 48.3 52.6 49.3 53.5 C50.4 54.5 50.7 54.5 52.0 53.1 C53.3 51.7 53.5 51.2 53.4 47.9 C53.3 45.6 53.3 45.5 52.6 43.9 C52.1 42.8 51.8 41.8 51.7 40.9 C51.5 39.2 50.7 35.9 50.3 35.0 C49.9 34.2 49.3 32.0 49.1 30.1 C49.0 29.3 48.6 27.7 48.3 26.7 C47.6 24.6 47.2 21.6 47.0 17.3 C46.9 14.7 46.9 14.7 46.1 14.2 C45.2 13.7 43.5 11.8 43.6 11.5 C43.6 11.3 43.7 11.1 43.9 11.1 C44.0 11.1 44.1 11.0 44.1 10.9 C44.1 10.6 44.5 10.1 44.7 10.1 C44.9 10.1 45.3 9.7 45.3 9.5 C45.3 9.4 45.4 9.3 45.5 9.3 C45.7 9.3 45.8 9.1 45.9 8.8 C46.0 8.4 46.0 8.4 46.4 8.4 C46.7 8.5 46.8 8.4 46.9 8.0 C47.0 7.6 47.0 7.5 47.4 7.5 C47.6 7.6 47.8 7.5 47.8 7.4 C47.8 7.2 47.9 7.1 48.1 7.1 C48.2 7.1 48.5 7.0 48.6 6.9 C48.8 6.6 49.3 6.6 49.3 6.8 C49.3 6.9 49.4 7.0 49.5 6.9 C49.6 6.9 49.8 6.9 49.8 7.0 C49.8 7.1 49.8 7.1 49.9 7.1 C50.2 6.9 50.7 7.1 50.8 7.4 C50.8 7.6 50.8 7.6 50.9 7.3 C51.0 7.1 51.2 7.0 51.3 7.0 C51.5 7.0 51.6 6.8 51.6 6.6 C51.6 6.2 51.6 6.2 52.0 6.2 C52.3 6.3 52.5 6.3 52.6 6.3 C52.8 6.3 52.8 7.0 52.5 7.2 C52.4 7.3 52.0 7.6 51.5 7.8 C50.4 8.4 50.3 8.5 50.2 10.0 C50.2 10.6 50.1 11.5 50.0 11.8 C49.9 12.5 50.1 13.5 50.4 13.6 C50.5 13.7 50.7 14.0 50.9 14.3 C51.2 14.8 51.3 15.4 51.5 17.0 C51.6 18.2 51.9 19.7 52.0 20.4 C52.2 21.1 52.5 22.2 52.6 23.0 C52.7 24.2 53.1 25.8 53.8 28.2 C53.9 28.6 54.1 29.6 54.2 30.2 C54.4 31.1 54.6 31.8 55.2 32.7 C56.0 34.1 56.3 35.4 56.5 38.4 C56.6 39.9 56.7 40.3 57.0 40.8 C57.2 41.0 57.4 41.3 57.4 41.4 C57.4 41.5 57.6 41.8 57.9 42.2 C58.7 43.0 59.2 43.0 59.9 42.1 C60.2 41.7 60.8 41.1 61.1 40.7 C61.5 40.2 62.0 39.4 62.2 38.9 C62.4 38.3 62.7 37.8 62.8 37.6 C63.1 37.2 63.1 35.8 62.7 35.4 C62.6 35.2 62.1 34.6 61.8 34.0 C61.5 33.5 61.0 32.7 60.7 32.5 C60.0 31.8 60.0 31.4 60.1 29.8 C60.2 29.1 60.3 28.0 60.2 27.4 C60.0 21.1 60.2 19.3 61.1 18.6 C61.3 18.4 61.9 17.9 62.3 17.5 C62.7 17.2 63.0 16.9 63.0 16.9 C63.1 16.9 63.1 17.2 63.2 17.6 C63.2 18.0 63.2 18.6 63.3 18.8 C63.4 19.3 63.4 19.3 63.5 19.0 C63.7 18.7 63.7 18.7 63.7 19.0 C63.7 19.2 63.8 19.4 63.9 19.4 C64.1 19.4 64.2 19.6 64.2 19.8 C64.2 20.1 64.0 20.3 63.6 20.5 C62.9 20.8 62.6 21.2 62.2 22.4 C62.0 23.2 62.0 23.3 62.3 23.9 C62.6 24.7 63.2 25.5 63.2 25.3 C63.2 25.2 63.3 25.2 63.3 25.4 C63.5 25.6 63.6 25.6 64.0 25.4 C64.3 25.3 64.6 25.2 64.8 25.3 C64.9 25.3 65.1 25.3 65.1 25.1 C65.2 25.0 65.3 24.9 65.3 25.0 C65.4 25.0 65.6 24.7 65.7 24.3 C65.9 23.7 66.0 23.6 66.4 23.6 C66.6 23.6 66.8 23.6 66.8 23.7 C66.7 23.9 67.1 24.5 67.3 24.5 C67.4 24.5 67.6 24.5 67.8 24.5 C68.0 24.5 68.2 24.6 68.2 24.7 C68.2 24.9 68.3 25.2 69.0 25.9 C69.4 26.3 69.5 26.4 70.2 26.3 C70.6 26.2 71.0 26.1 71.2 26.0 C71.4 25.9 71.5 25.9 71.5 26.1 C71.5 26.2 71.6 26.2 71.7 26.1 C71.8 26.1 72.0 26.2 72.0 26.3 C72.1 26.4 72.2 26.5 72.3 26.5 C72.4 26.4 72.5 26.5 72.5 26.6 C72.6 26.7 72.6 26.6 72.6 26.5 C72.7 26.2 72.7 26.2 72.8 26.5 C72.9 26.8 73.0 26.9 73.3 26.9 C73.6 27.0 73.8 26.9 73.8 26.8 C73.8 26.7 73.9 26.7 74.0 26.8 C74.2 26.8 74.4 26.7 74.5 26.5 C74.6 26.2 74.7 26.1 74.9 26.1 C75.1 26.2 75.3 26.1 75.3 26.0 C75.3 25.9 75.4 25.9 75.5 26.0 C75.5 26.0 75.7 25.9 75.8 25.7 C75.9 25.3 75.9 25.3 76.0 25.6 C76.0 25.9 76.0 25.9 76.1 25.5 C76.2 25.3 76.3 25.2 76.5 25.2 C77.0 25.3 77.0 25.3 77.0 25.1 C76.9 24.8 77.2 24.8 77.3 25.2 C77.4 25.4 77.4 25.3 77.4 25.0 C77.4 24.7 77.5 24.7 77.6 24.9 C77.8 25.1 77.8 25.1 77.8 24.9 C77.8 24.2 77.9 23.9 78.0 23.8 C78.1 23.7 78.1 23.8 78.1 23.9 C78.1 24.1 78.2 24.2 78.3 24.2 C78.4 24.2 78.4 24.1 78.4 24.0 C78.4 23.8 78.5 23.7 78.6 23.7 C78.7 23.7 78.8 23.7 78.9 23.7 C79.0 23.6 79.3 23.4 79.6 23.2 C79.9 22.9 80.1 22.8 80.1 22.9 C80.2 23.0 80.3 22.9 80.3 22.6 C80.5 21.8 80.8 21.9 80.7 22.7 C80.5 23.8 79.0 25.2 76.7 26.3 C73.4 27.9 72.3 28.6 71.7 29.4 C71.4 29.8 70.9 30.3 70.4 30.5 C69.9 30.7 69.3 31.1 68.9 31.4 C68.5 31.7 68.1 32.1 67.8 32.2 C67.3 32.5 66.0 33.7 66.0 33.9 C66.0 34.1 65.6 34.5 64.3 35.6 C63.9 35.9 63.6 37.0 64.0 36.7 C64.1 36.7 64.2 36.7 64.2 36.8 C64.2 36.9 64.4 37.4 64.6 37.9 C64.8 38.3 65.0 39.0 65.1 39.3 C65.2 40.4 64.7 43.8 64.1 44.5 C63.7 45.1 61.7 46.5 60.7 46.8 C58.4 47.6 58.3 47.7 57.8 49.5 C57.6 50.0 57.3 50.8 57.1 51.2 C56.9 51.6 56.6 52.6 56.4 53.4 C55.9 55.7 55.6 56.2 53.5 58.1 C50.4 60.9 50.4 61.0 49.8 62.4 C48.9 64.7 48.7 64.9 47.6 65.6 C45.7 66.8 42.4 67.3 41.6 66.5 C41.4 66.3 41.2 66.2 41.1 66.1 C41.0 66.1 40.9 66.1 40.8 66.1 C40.3 66.0 39.7 65.8 38.9 65.7 C38.1 65.5 37.8 65.3 37.3 64.8 C36.4 63.9 34.4 63.2 32.1 63.0 C30.1 62.8 30.1 62.8 28.7 62.0 C27.9 61.5 27.1 61.3 25.9 61.0 C23.7 60.5 22.5 59.9 21.9 58.7 C21.7 58.4 21.4 57.9 21.2 57.7 C21.0 57.4 20.7 57.1 20.7 56.8 C20.6 56.6 20.4 56.3 20.1 56.1 C18.4 55.1 18.5 55.2 17.9 53.1 C17.5 51.8 17.4 51.7 16.3 51.9 C15.7 51.9 15.5 52.0 15.4 52.4 C15.3 52.7 15.1 52.9 15.0 53.0 C14.4 53.2 14.6 56.0 15.4 56.9 C16.3 58.0 16.8 59.0 16.8 59.7 C16.8 60.5 17.2 61.5 18.0 62.2 C18.4 62.5 18.8 63.0 18.8 63.2 C19.2 65.2 19.4 66.5 19.4 67.2 C19.4 68.3 19.6 68.9 20.3 69.8 C20.8 70.3 21.0 70.8 21.2 71.9 C21.4 72.7 21.7 74.1 22.0 74.9 C22.2 75.7 22.5 76.6 22.6 76.9 C22.7 77.2 23.1 77.8 23.5 78.3 C23.9 78.8 24.4 79.6 24.7 80.1 L25.3 81.0 L25.2 84.4 C25.2 90.7 25.1 90.9 24.6 90.3 Z M59.1 87.6 C59.2 87.3 59.2 86.3 59.3 85.4 C59.4 83.4 59.3 83.3 58.3 83.2 C55.0 82.7 54.6 82.0 56.5 79.8 C56.9 79.4 57.3 78.8 57.4 78.5 C57.5 78.1 57.7 77.9 58.3 77.7 C58.8 77.5 59.3 77.2 59.6 76.9 C59.9 76.7 60.4 76.3 60.7 76.1 C61.1 75.7 61.4 75.4 61.5 74.8 C61.6 74.4 62.1 73.6 62.5 73.0 C62.9 72.4 63.4 71.5 63.6 71.0 C64.0 69.9 64.1 69.7 64.8 69.2 C65.2 69.0 65.5 68.6 65.7 68.1 C65.9 67.7 66.1 67.2 66.3 66.9 C66.4 66.6 66.5 66.2 66.5 66.0 C66.5 65.9 66.7 65.5 66.8 65.2 C67.1 64.8 67.2 64.5 67.1 64.0 C66.7 61.5 66.9 60.3 67.9 59.7 C68.2 59.5 68.5 59.3 68.5 59.2 C68.5 59.1 68.6 59.0 68.7 59.0 C69.1 59.0 69.5 58.4 70.0 57.1 C70.8 55.0 71.5 53.8 72.1 53.5 C72.8 53.2 73.1 52.9 73.4 52.6 C73.9 52.0 74.8 50.0 74.8 49.6 C74.8 49.4 74.9 48.9 75.1 48.4 C75.3 47.9 75.5 47.2 75.5 46.8 C75.6 46.4 76.0 45.2 76.6 44.0 L77.7 42.0 L77.6 40.7 C77.5 39.6 77.5 39.5 77.9 38.9 C78.2 38.5 78.4 38.2 78.4 38.1 C78.4 38.1 78.9 37.6 79.4 37.1 C80.1 36.4 80.6 35.6 81.2 34.4 C81.9 33.1 82.4 32.5 82.9 32.0 L83.6 31.5 L83.6 32.2 C83.6 32.6 83.5 32.8 83.4 32.8 C83.2 32.8 83.1 33.3 83.0 34.8 C83.0 35.8 82.8 36.8 82.7 36.9 C82.7 37.0 82.6 37.2 82.6 37.4 C82.6 37.6 82.5 37.8 82.4 37.8 C82.3 37.8 82.3 37.9 82.3 38.0 C82.3 38.2 82.1 38.4 82.0 38.5 C81.8 38.7 81.8 39.0 81.8 39.5 C81.9 40.0 81.9 40.1 81.6 40.2 C81.4 40.2 81.3 40.2 81.3 40.1 C81.3 40.0 81.2 40.0 81.1 40.0 C81.0 40.0 81.0 40.1 81.0 40.2 C81.1 40.4 81.0 40.6 80.9 40.7 C80.8 40.8 80.8 41.0 80.8 41.1 C80.8 41.1 80.8 41.4 80.8 41.5 C80.7 41.8 80.7 41.8 80.6 41.5 C80.5 41.2 80.5 41.1 80.4 41.3 C80.4 41.5 80.4 41.7 80.3 41.8 C80.3 41.9 80.3 42.1 80.3 42.3 C80.2 42.6 80.2 42.6 80.1 42.1 C80.0 41.7 80.0 41.7 80.0 42.6 L80.0 43.6 L79.6 43.6 L79.1 43.5 L79.2 45.4 C79.2 46.5 79.3 47.5 79.3 47.6 C79.4 47.6 79.3 47.8 79.1 47.8 C78.9 47.9 78.8 48.0 78.8 48.2 C78.8 48.4 78.7 48.4 78.5 48.4 C78.3 48.3 78.3 48.4 78.4 49.3 C78.4 50.3 78.4 50.4 78.2 50.3 C78.0 50.2 77.9 50.3 77.9 50.6 C77.9 50.7 77.8 50.9 77.6 51.0 C77.4 51.1 77.3 51.2 77.3 51.4 C77.3 51.6 77.2 51.7 77.1 51.7 C77.0 51.7 76.9 51.9 76.9 52.1 C76.9 52.3 76.8 52.4 76.7 52.4 C76.6 52.4 76.4 52.8 76.3 53.6 C76.2 54.3 76.1 54.8 76.0 54.9 C75.9 54.9 75.8 55.0 75.9 55.1 C75.9 55.2 75.9 55.2 75.8 55.2 C75.7 55.2 75.6 55.4 75.6 55.6 C75.5 55.8 75.4 55.9 75.3 55.8 C75.1 55.7 74.8 56.7 74.8 57.3 C74.8 57.4 74.7 57.5 74.6 57.5 C74.5 57.5 74.5 57.9 74.5 58.3 C74.5 58.7 74.4 59.1 74.3 59.1 C74.1 59.2 74.1 59.5 74.1 60.0 C74.1 60.8 74.1 60.9 73.4 61.2 C73.0 61.5 72.9 61.6 73.0 61.7 C73.2 61.8 73.1 61.9 72.9 61.9 C72.8 61.9 72.6 62.0 72.6 62.1 C72.6 62.3 72.5 62.4 72.2 62.4 C71.7 62.4 71.4 62.6 71.3 63.1 C71.2 63.3 71.0 63.3 70.9 63.3 C70.8 63.2 70.6 63.3 70.6 63.4 C70.6 63.5 70.5 63.5 70.4 63.5 C70.3 63.4 70.1 63.4 70.1 63.5 C70.1 63.6 69.9 63.7 69.7 63.8 C69.1 63.9 68.7 64.3 69.0 64.4 C69.1 64.4 69.0 64.5 68.7 64.6 C68.3 64.7 68.1 64.8 67.9 65.2 C67.8 65.5 67.7 65.6 67.7 65.5 C67.7 65.4 67.6 65.3 67.6 65.4 C67.5 65.4 67.5 66.0 67.4 66.8 C67.4 67.6 67.3 68.1 67.2 68.1 C67.1 68.2 67.0 68.4 67.0 68.6 C67.0 69.0 67.0 69.0 66.8 68.7 C66.7 68.5 66.7 68.6 66.7 69.1 C66.8 69.6 66.8 69.9 66.6 70.0 C66.5 70.1 66.5 70.1 66.7 70.1 C66.8 70.1 66.7 70.3 66.4 70.5 C66.1 70.7 65.9 71.0 65.9 71.1 C65.9 71.2 65.8 71.5 65.8 71.7 C65.7 72.1 65.3 72.6 65.0 72.6 C64.9 72.6 64.8 72.8 64.8 73.0 C64.8 73.2 64.8 73.3 64.6 73.2 C64.4 73.1 64.3 73.2 64.3 73.5 C64.3 73.8 64.1 74.1 63.6 74.5 C63.1 75.0 62.8 75.4 62.4 76.4 C62.1 77.1 61.7 77.9 61.6 78.0 C59.9 79.4 59.8 79.8 60.3 80.5 C60.5 80.8 60.5 80.9 60.3 81.4 C60.1 81.7 60.0 82.4 60.0 83.0 C60.0 83.6 60.0 84.1 59.9 84.1 C59.7 84.1 59.7 84.6 59.9 84.8 C60.0 84.8 60.1 85.4 60.1 86.2 C60.1 87.2 60.1 87.3 60.0 86.6 L59.9 85.8 L59.9 86.7 C59.9 87.4 59.8 87.6 59.6 87.5 C59.4 87.4 59.4 87.5 59.4 87.7 C59.4 87.9 59.3 88.1 59.2 88.1 C59.1 88.1 59.1 87.9 59.1 87.6 Z M56.8 75.6 C56.6 75.3 56.9 74.6 57.1 74.6 C57.4 74.6 57.6 75.3 57.5 75.6 C57.4 75.7 57.3 75.8 57.1 75.8 C57.0 75.8 56.9 75.7 56.8 75.6 Z M15.1 51.2 C15.4 50.9 15.3 50.4 14.9 49.9 C14.0 48.8 13.0 48.7 12.6 49.5 C12.3 50.1 12.4 50.4 12.9 50.9 C13.3 51.3 13.6 51.4 14.1 51.4 C14.5 51.4 15.0 51.3 15.1 51.2 Z M25.4 24.1 C25.4 23.9 25.5 23.7 25.9 23.5 C26.4 23.2 26.5 23.2 26.1 23.9 C25.8 24.5 25.4 24.7 25.4 24.1 Z M81.9 19.3 C81.9 18.8 82.4 17.7 82.6 17.6 C82.7 17.6 82.8 17.6 82.9 17.6 C83.0 17.6 83.1 17.5 83.1 17.3 C83.1 17.2 83.2 17.1 83.2 17.2 C83.3 17.2 83.4 17.2 83.4 17.0 C83.4 16.9 83.6 16.8 83.8 16.8 C84.0 16.8 84.0 16.9 83.3 17.6 C82.9 18.0 82.6 18.5 82.6 18.6 C82.6 18.7 82.4 19.0 82.3 19.2 C82.0 19.6 81.9 19.6 81.9 19.3 Z"/></svg>