<svg xmlns="http://www.w3.org/2000/svg" viewBox="0 0 100 100" class="ksl-svg"><path class="kp-fill" fill-rule="evenodd" d="M14.5 93.7 C13.4 93.7 13.4 93.7 13.4 93.3 C13.4 93.0 13.3 93.0 13.0 93.0 C12.7 93.1 12.6 93.0 12.5 92.7 C12.5 92.5 12.4 92.3 12.1 92.3 C11.9 92.3 11.8 92.1 11.8 91.9 C11.8 91.7 11.9 91.6 12.1 91.6 C12.3 91.6 12.4 91.5 12.2 91.5 C12.0 91.4 11.5 90.2 11.7 90.0 C11.7 89.9 11.6 89.9 11.4 89.9 C11.2 89.9 11.1 89.7 11.1 89.4 C11.1 89.2 11.1 89.0 11.0 89.0 C10.8 89.0 10.5 87.2 10.5 86.0 C10.5 85.5 10.4 85.0 10.3 85.0 C10.2 85.0 10.1 84.9 10.1 84.7 C10.1 84.6 10.0 84.2 9.9 83.9 C9.6 83.4 9.7 82.1 10.0 81.7 C10.5 81.2 9.9 75.8 9.3 74.5 C8.8 73.4 8.8 69.8 9.3 69.8 C9.4 69.8 9.5 69.7 9.4 69.7 C9.3 69.4 9.2 67.1 9.3 67.0 C9.4 67.0 9.5 66.8 9.4 66.6 C9.4 66.4 9.5 66.2 9.7 66.2 C9.9 66.1 10.0 65.9 10.0 64.7 C10.1 63.9 10.2 63.3 10.3 63.2 C10.4 63.2 10.5 62.8 10.6 62.5 C10.6 62.1 10.7 61.8 10.8 61.8 C10.9 61.8 11.0 61.6 11.0 61.4 C11.0 61.1 11.0 61.0 11.3 61.0 C11.5 61.0 11.6 60.9 11.6 60.7 C11.6 60.5 11.7 60.3 12.0 60.2 C12.4 60.2 12.5 59.9 12.4 59.3 C12.4 59.3 12.5 59.2 12.6 59.2 C12.6 59.2 12.7 59.1 12.7 59.0 C12.7 58.8 12.8 58.7 13.0 58.7 C13.2 58.7 13.2 58.7 13.0 58.6 C12.7 58.5 12.7 58.4 12.9 58.4 C13.1 58.4 13.2 58.4 13.2 58.4 C13.2 58.2 13.5 55.7 13.6 55.4 C13.7 55.2 13.7 54.6 13.8 54.0 C13.8 53.5 14.0 53.1 14.1 53.1 C14.2 53.1 14.1 53.1 14.0 53.0 C13.9 52.9 13.8 52.8 13.9 52.8 C14.0 52.8 14.2 52.5 14.2 52.2 C14.3 51.8 14.4 51.5 14.6 51.5 C14.8 51.5 15.0 50.9 14.9 50.2 C14.9 49.9 14.9 49.6 15.1 49.5 C15.2 49.4 15.2 49.2 15.2 49.1 C15.1 49.0 15.2 48.9 15.4 48.9 C15.5 48.8 15.6 48.6 15.6 48.5 C15.6 48.3 15.7 48.2 15.8 48.2 C15.9 48.2 15.9 47.7 15.9 46.6 C15.8 44.9 15.9 44.2 16.2 44.4 C16.3 44.4 16.4 44.3 16.5 44.1 C16.5 43.8 16.7 43.7 16.8 43.7 C17.0 43.7 17.0 43.6 17.0 42.9 C17.0 42.5 17.1 42.4 17.3 42.4 C17.5 42.4 17.5 42.3 17.5 41.8 C17.4 41.3 17.4 41.1 17.7 40.9 C17.9 40.8 18.0 40.5 18.0 40.1 C18.0 39.7 18.1 39.5 18.1 39.6 C18.2 39.7 18.3 39.8 18.4 39.7 C18.6 39.6 18.6 39.6 18.5 39.5 C18.3 39.4 18.3 39.3 18.5 39.3 C18.7 39.3 18.8 39.1 18.8 38.7 C18.8 38.3 18.9 37.9 19.0 37.8 C19.2 37.6 19.3 37.4 19.4 36.6 C19.5 36.2 19.6 36.1 20.0 36.1 C20.0 36.1 20.1 35.9 20.1 35.7 C20.1 35.5 20.2 35.3 20.2 35.3 C20.3 35.3 20.4 35.2 20.3 35.1 C20.3 35.0 20.3 34.7 20.5 34.6 C20.6 34.4 20.9 33.6 21.0 32.7 C21.0 32.7 21.0 32.6 21.1 32.5 C21.3 32.3 21.2 31.7 20.9 31.5 C20.7 31.3 20.7 31.3 20.9 31.3 C21.1 31.3 21.2 31.2 21.1 31.0 C21.1 30.8 21.1 30.7 21.2 30.7 C21.3 30.7 21.4 30.6 21.4 30.5 C21.4 30.3 21.5 30.3 21.7 30.3 C21.9 30.4 22.0 30.3 22.0 30.1 C22.0 29.8 22.3 29.7 22.8 29.9 C23.0 30.0 23.1 30.0 23.2 29.7 C23.3 29.5 23.4 29.4 23.6 29.4 C23.7 29.4 23.9 29.3 24.0 29.3 C24.1 29.3 24.2 29.1 24.2 28.9 C24.3 28.4 24.4 28.3 24.4 28.8 L24.5 29.2 L24.6 28.8 C24.6 28.5 24.6 28.3 24.5 28.2 C24.5 28.0 24.5 27.9 24.7 27.9 C25.0 27.8 25.1 27.6 25.1 27.2 C25.1 26.9 25.1 26.6 25.1 26.5 C25.2 26.5 25.2 26.2 25.3 25.8 C25.4 25.4 25.5 25.2 25.7 25.2 C25.9 25.2 25.9 25.2 25.7 25.1 C25.6 25.0 25.6 24.9 25.8 24.9 C26.0 24.8 26.2 24.9 26.2 25.0 C26.3 25.1 26.3 25.1 26.3 24.9 C26.3 24.8 26.5 24.7 26.6 24.7 C26.7 24.7 26.8 24.6 26.8 24.5 C26.8 24.2 27.2 23.5 27.4 23.5 C27.7 23.5 27.7 22.7 27.4 22.6 C27.3 22.6 27.3 22.5 27.5 22.5 C27.7 22.4 27.8 22.4 27.8 22.7 C27.8 22.9 27.9 23.0 28.2 23.0 C28.7 23.0 29.1 22.8 29.1 22.6 C29.1 22.4 29.2 22.3 29.4 22.3 C29.6 22.3 29.8 22.0 29.8 21.6 C29.8 21.4 30.3 21.2 30.5 21.4 C30.8 21.5 30.8 21.5 30.8 21.3 C30.8 21.2 30.9 21.2 31.0 21.4 C31.1 21.5 31.2 21.5 31.2 21.2 C31.4 20.7 31.9 20.6 32.0 20.9 C32.1 21.1 32.1 21.1 32.1 20.9 C32.1 20.8 32.4 20.7 32.8 20.7 C33.2 20.7 33.4 20.7 33.4 20.5 C33.4 20.4 33.5 20.3 33.7 20.3 C33.9 20.3 34.0 20.1 34.1 19.5 C34.2 18.7 34.3 18.6 34.6 18.6 C34.8 18.6 35.0 18.6 35.0 18.5 C35.0 18.4 35.2 18.3 35.3 18.3 C35.5 18.3 35.6 18.3 35.6 18.2 C35.6 18.1 35.8 18.1 36.1 18.0 C36.3 18.0 36.7 17.9 36.8 17.7 C37.0 17.5 37.3 17.3 37.6 17.3 C37.9 17.2 38.8 17.1 39.7 17.0 C40.6 17.0 41.4 16.8 41.4 16.8 C41.6 16.7 41.6 16.3 41.4 16.2 C41.2 16.1 41.2 16.1 41.4 16.1 C41.5 16.1 41.6 15.9 41.6 15.7 C41.6 15.3 41.7 15.2 42.1 15.3 C42.2 15.3 42.2 15.1 42.2 14.8 C42.3 14.4 42.3 14.4 42.4 14.8 C42.5 15.1 42.5 15.1 42.8 14.5 C43.0 14.1 43.2 13.9 43.2 14.0 C43.2 14.1 43.2 14.2 43.4 14.0 C43.5 14.0 43.7 13.9 43.9 13.9 C44.0 13.9 44.1 13.9 44.1 13.8 C44.1 13.8 44.3 13.7 44.5 13.6 C44.6 13.5 44.8 13.4 44.8 13.3 C44.8 13.1 44.9 13.0 45.4 13.1 C45.8 13.1 46.1 13.1 46.1 13.0 C46.1 12.9 46.1 12.9 46.2 13.0 C46.5 13.1 46.9 12.7 46.9 12.3 C46.9 12.0 46.9 12.0 47.0 12.4 C47.1 12.7 47.2 12.8 47.5 12.8 C47.7 12.8 47.9 12.9 48.0 13.0 C48.0 13.1 48.1 13.2 48.2 13.2 C48.4 13.2 48.5 13.3 48.5 13.4 C48.5 13.4 48.6 13.5 48.8 13.5 C49.0 13.5 49.1 13.6 49.1 13.8 C49.1 14.0 49.2 14.0 49.3 13.7 C49.4 13.5 49.7 13.2 49.9 13.2 L50.3 13.1 L49.9 13.0 C49.5 12.9 49.5 12.9 49.9 12.9 C50.1 12.9 50.2 12.8 50.2 12.6 C50.2 12.5 50.4 12.4 50.5 12.3 C50.7 12.3 50.7 12.3 50.4 12.3 C50.2 12.2 50.1 12.1 50.1 11.8 C50.1 11.4 50.1 11.4 50.2 11.7 C50.3 12.2 50.6 12.0 50.6 11.5 C50.6 11.3 50.6 11.1 50.7 11.1 C50.9 11.1 51.1 10.5 51.1 10.2 C51.0 10.2 51.1 9.8 51.1 9.5 C51.2 9.0 51.3 8.9 51.5 8.9 C51.7 9.0 51.9 8.9 51.9 8.8 C51.9 8.8 52.2 8.7 52.6 8.6 C53.0 8.6 53.4 8.5 53.5 8.4 C53.6 8.2 53.6 8.3 53.6 8.6 L53.6 9.1 L53.7 8.6 C53.8 8.2 53.9 8.2 54.3 8.2 C54.5 8.2 54.8 8.3 55.0 8.3 C55.2 8.3 55.4 8.4 55.5 8.4 C55.6 8.5 55.7 8.5 55.7 8.5 C55.7 8.4 55.9 8.5 56.1 8.5 C56.8 8.8 58.7 8.9 59.0 8.7 C59.2 8.6 59.5 8.5 60.3 8.6 C61.2 8.7 61.3 8.7 61.3 8.4 C61.3 8.2 61.3 8.2 61.4 8.5 C61.6 8.7 61.6 8.7 61.7 8.5 C61.8 8.3 61.9 8.2 62.2 8.3 C62.5 8.4 62.9 8.4 63.2 8.5 C65.3 8.7 65.4 8.7 65.5 8.5 C65.6 8.4 65.9 8.3 66.3 8.3 C66.9 8.3 67.1 8.2 67.2 8.1 C67.2 7.9 67.5 7.7 67.8 7.6 C68.1 7.5 68.4 7.3 68.4 7.3 C68.4 7.2 68.7 7.1 69.1 7.1 C69.5 7.1 69.9 7.0 70.0 6.9 C70.2 6.7 70.3 6.7 70.3 6.8 C70.4 7.0 70.4 7.0 70.4 6.8 C70.4 6.7 70.7 6.6 71.1 6.6 C71.7 6.6 71.7 6.6 71.5 6.5 C71.2 6.4 71.3 6.3 71.7 6.3 C72.1 6.3 72.4 6.3 72.5 6.2 C72.6 6.2 72.7 6.2 72.7 6.3 C72.7 6.5 72.7 6.5 72.9 6.3 C73.1 6.1 73.2 6.2 73.4 6.4 C73.6 6.5 73.8 6.6 73.9 6.6 C74.0 6.6 74.1 6.7 74.1 6.8 C74.1 7.0 74.4 7.1 74.7 7.1 C75.2 7.1 75.3 7.1 75.3 6.7 C75.3 6.5 75.3 6.5 75.4 6.6 C75.4 6.7 75.5 6.8 75.7 6.8 C75.8 6.8 75.9 6.9 75.9 7.0 C75.9 7.2 76.0 7.2 76.0 7.2 C76.1 7.2 76.2 7.2 76.2 7.3 C76.2 7.4 76.4 7.5 76.6 7.7 C76.8 7.8 76.9 8.0 76.9 8.1 C76.9 8.3 76.9 8.4 77.0 8.3 C77.1 8.3 77.2 8.3 77.2 8.5 C77.3 8.7 77.3 8.7 77.3 8.4 L77.4 8.0 L77.5 8.4 C77.6 8.7 77.7 8.8 78.3 8.7 C78.9 8.7 78.9 8.7 78.9 9.1 C78.9 9.5 79.0 9.5 79.6 9.5 C80.7 9.5 80.8 9.5 80.7 9.0 C80.6 8.6 80.6 8.5 81.1 8.5 C81.6 8.5 81.7 8.6 81.7 9.0 C81.7 9.3 81.7 9.5 81.8 9.5 C81.9 9.5 82.0 9.6 82.0 9.7 C81.9 9.9 82.0 10.0 82.1 10.0 C82.3 10.0 82.5 10.4 82.5 10.9 C82.5 11.5 82.5 11.5 82.7 11.2 C82.9 10.9 82.9 10.9 82.9 11.3 C83.0 11.7 83.0 11.8 83.4 11.8 C83.7 11.8 83.8 11.7 83.8 11.3 C83.8 10.9 83.8 10.9 83.9 11.4 C84.0 11.7 84.0 11.9 84.1 11.7 C84.1 11.4 84.5 11.2 84.7 11.4 C84.8 11.4 84.9 11.6 84.9 11.9 C84.9 12.3 84.9 12.3 85.1 12.0 C85.3 11.6 85.5 11.7 85.5 12.1 C85.5 12.3 85.6 12.4 85.6 12.3 C85.7 12.0 86.0 12.2 86.0 12.6 C86.0 12.7 86.1 12.8 86.3 12.8 C86.5 12.8 86.6 12.9 86.7 13.2 C86.7 13.4 86.8 13.6 87.0 13.6 C87.1 13.5 87.1 13.6 87.1 13.8 C87.0 13.9 87.1 14.0 87.4 14.1 C87.7 14.2 87.9 14.3 87.9 14.3 C87.9 14.4 88.1 14.5 88.2 14.5 C88.5 14.5 88.6 14.6 88.6 15.1 C88.6 15.5 88.6 15.8 88.7 15.7 C88.8 15.7 89.0 15.7 89.3 15.8 L89.8 15.8 L89.3 15.9 C89.0 16.0 88.9 16.1 89.1 16.1 C89.3 16.1 89.4 16.2 89.4 16.6 C89.4 17.0 89.4 17.1 89.9 17.0 C90.3 16.9 90.3 17.0 90.4 17.4 C90.4 17.6 90.4 17.8 90.3 17.9 C90.3 18.0 90.5 18.1 90.7 18.1 C90.9 18.2 91.0 18.3 90.9 18.4 C90.9 18.5 90.9 18.7 91.0 18.7 C91.2 18.9 91.2 19.6 91.0 19.6 C90.9 19.6 90.8 19.8 90.7 19.9 C90.7 20.1 90.5 20.3 90.3 20.3 C90.0 20.3 89.7 21.1 90.0 21.2 C90.3 21.3 90.2 21.9 89.9 21.9 C89.6 21.9 89.5 22.0 89.5 22.5 C89.5 23.1 89.5 23.1 89.0 23.1 C88.8 23.1 88.6 23.2 88.6 23.3 C88.6 23.4 88.5 23.5 88.3 23.5 C88.2 23.5 88.1 23.6 88.1 23.7 C88.1 23.8 87.9 23.9 87.7 24.0 C87.3 24.0 87.0 24.3 86.9 24.7 C86.9 24.7 86.6 24.8 86.2 24.8 C85.9 24.9 85.5 25.0 85.5 25.0 C85.4 25.0 85.4 25.0 85.3 24.9 C85.3 24.8 85.2 24.8 85.1 25.1 C84.8 25.7 84.5 26.2 84.3 26.2 C84.3 26.2 84.1 26.3 83.9 26.5 C83.6 26.8 83.6 26.8 83.6 26.6 C83.6 26.5 83.7 26.2 83.9 26.0 C84.3 25.6 84.3 25.2 83.9 24.9 C83.4 24.6 81.6 25.1 79.5 26.0 C79.1 26.2 78.6 26.4 78.3 26.4 C77.9 26.5 77.6 26.6 77.6 26.6 C77.6 26.7 76.6 26.7 75.4 26.6 C73.4 26.5 72.1 26.6 72.1 27.0 C72.1 27.3 73.3 27.5 74.8 27.5 C76.2 27.5 76.5 27.5 76.5 27.7 C76.5 27.9 76.1 28.1 75.5 28.1 C75.3 28.1 75.1 28.0 75.1 27.9 C75.1 27.9 74.6 27.8 73.9 27.8 C72.8 27.8 72.8 27.8 73.6 27.9 L74.4 28.1 L73.6 28.1 C73.1 28.1 72.8 28.2 72.8 28.3 C72.8 28.4 72.8 28.3 72.7 28.1 C72.6 27.7 72.6 27.7 72.5 28.1 C72.5 28.3 72.4 28.4 72.3 28.4 C71.7 28.5 71.2 28.4 71.1 28.2 C70.9 28.0 69.6 28.0 69.5 28.3 C69.4 28.4 69.0 28.4 68.0 28.4 C66.7 28.3 66.0 28.4 66.2 28.8 C66.2 28.8 66.2 29.1 66.2 29.3 C66.1 29.7 66.0 29.7 65.6 29.7 C65.0 29.6 64.8 29.8 64.8 30.4 C64.8 30.8 64.8 31.0 64.7 30.9 C64.5 30.8 64.3 31.1 64.1 31.7 C64.1 31.9 63.9 32.1 63.8 32.1 C63.7 32.1 63.7 32.2 63.9 32.3 C64.1 32.4 64.0 32.4 63.6 32.4 C63.1 32.3 63.1 32.3 63.1 32.7 C63.1 33.1 63.1 33.1 63.2 32.9 C63.3 32.7 63.4 32.8 63.4 33.2 C63.4 33.5 63.3 33.7 63.2 33.6 C63.0 33.5 62.9 33.9 63.0 34.6 C63.1 35.2 63.1 35.3 63.4 35.2 C63.7 35.1 63.7 35.2 63.6 35.3 C63.6 35.4 63.6 35.5 63.7 35.5 C63.8 35.5 64.2 36.3 64.2 36.8 C64.2 36.9 64.3 37.1 64.4 37.1 C64.4 37.1 64.5 37.2 64.6 37.4 C64.6 37.6 64.7 37.7 64.8 37.7 C64.9 37.6 65.0 37.7 65.2 37.7 C65.4 37.9 65.4 37.9 65.2 37.9 C65.0 37.9 65.0 37.9 65.2 38.1 C65.3 38.2 65.5 38.3 65.5 38.5 C65.5 38.6 65.6 38.7 65.7 38.7 C65.8 38.7 66.0 38.8 66.0 38.9 C66.1 39.1 66.2 39.2 66.3 39.1 C66.3 39.1 66.6 39.2 66.7 39.5 C67.0 39.8 67.2 39.9 67.5 39.9 C67.7 39.8 67.9 39.9 67.9 40.1 C68.0 40.3 68.0 40.3 68.0 40.1 C68.0 39.9 68.2 39.8 69.0 39.9 C69.9 40.0 70.0 40.0 70.1 39.6 C70.2 39.4 70.3 39.3 70.3 39.5 C70.3 39.8 70.9 39.7 70.9 39.4 C70.9 39.3 71.0 39.3 71.1 39.4 C71.1 39.6 71.7 39.7 72.5 39.7 C73.7 39.7 73.8 39.7 74.1 40.1 C74.3 40.3 74.4 40.4 74.5 40.3 C74.6 40.1 74.6 40.1 74.6 40.2 C74.6 40.3 74.8 40.4 75.1 40.3 C75.5 40.3 75.6 40.3 75.6 40.6 C75.6 40.8 75.6 40.8 75.7 40.5 C75.8 40.3 75.9 40.3 75.9 40.5 C75.9 40.6 76.0 40.8 76.2 40.9 C76.4 41.1 76.5 41.3 76.5 41.5 C76.5 41.8 76.6 41.8 76.8 41.5 C76.9 41.3 77.0 41.2 77.2 41.5 C77.4 41.6 77.7 41.8 77.9 41.8 C78.1 41.9 78.3 42.1 78.3 42.2 C78.3 42.4 78.4 42.4 78.5 42.1 C78.6 41.9 78.6 41.9 78.6 42.1 C78.6 42.3 78.7 42.4 78.8 42.4 C78.9 42.4 78.9 42.5 78.9 42.5 C78.8 42.6 78.8 42.7 78.9 42.7 C79.0 42.7 79.1 42.8 79.1 43.0 C79.1 43.2 79.1 43.2 79.3 43.0 C79.4 42.7 79.4 42.7 79.5 43.0 C79.5 43.3 79.7 43.3 80.0 43.3 C80.4 43.3 80.5 43.3 80.5 43.7 C80.5 43.9 80.5 44.1 80.4 44.1 C80.3 44.1 80.2 44.5 80.2 44.9 L80.2 45.7 L80.1 44.9 L80.0 44.2 L79.9 44.9 C79.9 45.7 79.6 45.9 78.6 45.8 C78.1 45.8 77.9 45.9 77.9 46.1 C77.8 46.2 77.5 46.3 77.0 46.3 C76.1 46.3 74.7 46.5 74.5 46.6 C74.4 46.7 74.3 46.7 74.3 46.6 C74.3 46.5 74.2 46.4 73.9 46.5 C73.6 46.7 73.4 46.7 73.2 46.7 C73.1 46.7 73.0 46.8 73.0 47.0 C72.9 47.3 72.9 47.3 72.9 47.0 C72.9 46.8 72.7 46.7 71.6 46.8 C70.9 46.9 70.3 46.9 70.3 47.0 C70.1 47.2 68.7 47.6 68.3 47.6 C67.8 47.5 67.1 47.8 67.2 48.1 C67.3 48.3 67.2 48.3 66.9 48.2 C66.4 47.9 64.4 48.9 64.4 49.4 C64.4 49.5 64.2 49.7 64.1 49.7 C63.8 49.9 63.8 49.9 64.1 49.9 C64.3 49.9 64.0 50.1 63.5 50.4 C62.6 50.8 62.6 50.8 62.6 51.5 L62.5 52.2 L62.4 51.5 L62.3 50.8 L62.3 51.5 C62.3 51.8 62.2 52.2 62.1 52.2 C62.0 52.2 61.8 52.8 61.8 53.4 C61.8 53.7 61.8 53.7 61.6 53.4 C61.5 53.2 61.5 53.2 61.5 53.4 C61.5 53.6 61.4 53.7 61.3 53.5 C61.2 53.3 61.1 53.4 61.1 53.9 C61.0 54.3 60.9 54.6 60.7 54.6 C60.6 54.6 60.5 54.7 60.5 55.0 C60.5 55.2 60.4 55.4 60.4 55.4 C60.3 55.4 60.2 55.5 60.2 55.7 C60.1 56.0 60.0 56.1 59.7 56.1 C59.4 56.2 59.2 56.3 59.2 56.4 C59.2 56.6 59.0 56.9 58.7 57.1 C58.5 57.3 58.3 57.6 58.3 57.8 C58.3 58.1 58.1 58.1 57.5 58.1 C57.5 58.1 57.2 58.2 57.0 58.3 C56.7 58.5 56.5 58.5 56.5 58.5 C56.5 58.4 56.4 58.5 56.3 58.6 C56.3 58.7 55.9 58.9 55.6 58.9 C54.9 58.9 54.4 59.2 54.5 59.4 C54.6 59.5 54.4 59.6 54.1 59.7 C53.8 59.8 53.5 60.1 53.4 60.3 C53.3 60.5 53.2 60.7 53.1 60.7 C53.0 60.7 52.8 60.8 52.7 60.9 C52.4 61.3 51.9 61.5 51.0 61.8 C50.7 61.9 50.4 62.1 50.4 62.2 C50.4 62.5 50.1 62.6 49.3 62.5 C48.9 62.5 48.6 62.6 48.6 62.7 C48.6 62.7 48.3 62.8 48.1 62.8 C47.1 62.9 46.5 63.2 46.3 63.7 C46.1 64.0 45.9 64.2 45.7 64.2 C45.4 64.2 45.4 64.2 45.8 64.4 C46.1 64.5 46.1 64.5 45.8 64.5 C45.5 64.5 45.4 64.6 45.4 64.9 C45.4 65.2 45.4 65.2 45.3 64.8 C45.2 64.5 45.2 64.5 45.1 64.7 C45.0 64.9 45.0 65.1 45.1 65.2 C45.3 65.5 45.3 65.8 45.0 65.8 C44.9 65.8 44.8 65.9 44.8 65.9 C44.8 66.1 43.5 66.6 43.3 66.5 C43.2 66.5 43.2 66.6 43.2 66.8 C43.2 67.3 42.9 67.5 42.8 67.2 C42.8 67.1 42.7 67.4 42.6 67.9 C42.6 68.6 42.4 68.8 42.2 69.0 C42.0 69.1 41.9 69.1 42.0 69.2 C42.2 69.2 42.2 69.2 42.0 69.4 C41.6 69.9 41.5 70.1 41.3 70.4 C41.3 70.6 41.1 70.8 41.0 70.8 C40.9 70.8 40.8 70.9 40.8 71.0 C40.8 71.1 40.6 71.3 40.4 71.4 C40.2 71.5 39.9 71.8 39.7 72.1 C39.4 72.5 39.2 72.6 38.8 72.7 C38.5 72.7 38.2 72.8 38.1 72.9 C38.0 73.1 37.9 73.2 37.8 73.2 C37.7 73.2 37.6 73.3 37.6 73.4 C37.6 73.7 37.3 73.7 37.2 73.4 C37.1 73.1 37.1 73.1 37.1 73.4 C37.1 73.6 37.0 73.7 36.7 73.6 C36.5 73.6 36.1 74.1 36.1 74.4 C36.1 74.6 36.0 74.6 35.9 74.6 C35.8 74.5 35.6 74.5 35.6 74.6 C35.6 74.7 35.5 74.8 35.4 74.7 C35.3 74.7 35.1 74.8 35.0 75.0 C34.9 75.2 34.7 75.4 34.6 75.5 C34.5 75.5 34.4 75.8 34.4 76.0 C34.4 76.2 34.3 76.4 34.1 76.4 C34.0 76.4 33.9 76.5 33.9 76.6 C33.9 76.8 33.8 76.9 33.7 76.9 C33.7 76.9 33.5 77.0 33.5 77.2 C33.4 77.4 33.3 77.7 33.1 77.8 C33.0 77.9 32.9 78.2 32.9 78.4 C32.9 78.6 32.8 78.8 32.7 78.8 C32.5 78.8 32.4 78.9 32.4 79.0 C32.4 79.2 32.3 79.3 32.2 79.3 C31.9 79.3 31.5 79.6 31.5 79.9 C31.5 79.9 31.3 80.1 31.2 80.2 C30.9 80.4 30.8 80.6 30.8 81.5 C30.8 82.1 30.8 82.5 30.7 82.5 C30.6 82.5 30.5 82.6 30.5 82.7 C30.6 83.0 30.3 84.2 30.2 84.2 C30.2 84.2 30.1 84.6 30.2 85.0 C30.2 85.6 30.2 85.7 29.9 85.8 C29.6 85.9 29.6 86.0 29.6 86.7 C29.6 87.5 29.5 87.5 29.2 87.6 C29.0 87.6 28.6 87.7 28.4 87.8 C28.0 88.0 28.0 88.1 28.2 88.1 C28.4 88.2 28.4 88.2 28.1 88.2 L27.7 88.3 L28.1 88.4 L28.5 88.5 L28.1 88.6 C27.8 88.6 27.6 88.7 27.6 88.8 C27.6 88.9 27.6 89.0 27.5 89.0 C27.1 89.0 27.0 89.1 27.0 89.4 C27.0 89.8 27.0 89.8 26.8 89.4 L26.7 89.0 L26.7 89.4 C26.7 89.7 26.6 89.9 26.5 89.9 C26.4 89.9 26.3 90.0 26.3 90.2 C26.3 90.3 26.2 90.6 26.1 90.7 C26.0 90.8 25.9 91.1 25.9 91.3 C25.9 91.5 25.8 91.6 25.7 91.6 C25.6 91.6 25.5 91.7 25.5 91.9 C25.5 92.0 25.5 92.1 25.4 92.1 C25.3 92.1 25.2 92.0 25.2 91.9 C25.2 91.8 25.0 91.6 24.6 91.5 C24.3 91.3 24.0 91.2 23.9 91.1 C23.8 90.9 23.7 90.9 23.7 91.1 C23.6 91.2 22.9 91.3 22.0 91.4 L20.4 91.5 L20.4 91.1 C20.4 90.6 19.8 90.5 19.7 90.9 C19.6 91.0 19.5 91.1 19.4 91.1 C19.3 91.1 19.1 91.3 19.0 91.5 C18.9 91.6 18.7 91.8 18.5 91.8 C18.0 91.8 18.0 92.7 18.5 92.8 C18.7 92.8 18.6 92.8 18.2 92.9 C17.6 93.0 17.4 93.1 17.3 93.3 C17.2 93.6 17.0 93.7 16.6 93.7 C16.3 93.7 16.0 93.7 15.9 93.7 C15.8 93.8 15.2 93.8 14.5 93.7 Z"/><path class="kp-line" fill-rule="evenodd" d="M25.2 91.9 C25.2 91.7 25.1 91.6 25.0 91.6 C24.5 91.6 24.6 91.3 25.4 90.5 C26.3 89.6 26.7 88.5 26.9 86.6 C27.0 85.5 27.1 84.9 27.4 84.2 C27.8 83.4 27.8 83.2 27.8 81.4 C27.8 79.6 27.8 79.4 27.4 78.8 C27.2 78.4 26.9 78.0 26.7 77.9 C26.0 77.5 25.7 77.0 25.8 76.3 C25.9 75.3 26.3 75.0 30.0 73.5 C30.7 73.2 31.1 73.1 33.8 72.4 C34.6 72.2 34.9 72.1 35.4 71.6 C35.7 71.2 36.0 70.9 36.0 70.8 C36.0 70.7 36.6 70.0 37.5 69.1 C39.0 67.6 40.3 66.6 41.5 66.3 C42.7 65.9 42.9 65.8 43.0 65.5 C43.0 65.3 43.1 65.2 43.2 65.2 C43.2 65.2 43.3 64.9 43.4 64.5 C43.4 64.1 43.6 63.8 43.7 63.7 C43.8 63.6 43.8 63.6 43.6 63.5 C43.5 63.4 43.5 63.4 43.6 63.4 C43.7 63.4 43.8 63.3 43.8 63.1 C43.8 62.9 43.7 62.8 43.3 62.9 C41.9 63.0 39.8 62.2 39.3 61.3 C39.1 60.9 38.8 58.8 38.6 56.4 C38.4 54.9 38.2 54.4 37.1 53.4 C36.1 52.5 35.7 52.3 34.7 52.0 C33.0 51.6 32.8 51.5 32.8 51.1 C32.8 50.8 32.9 50.7 33.8 50.6 C35.9 50.2 36.5 49.6 36.8 47.6 C37.0 46.8 37.1 45.9 37.1 45.6 C37.1 45.0 37.5 44.6 38.4 44.6 C39.1 44.6 39.3 44.7 39.9 45.3 C40.4 45.7 41.0 46.0 41.9 46.3 C42.6 46.5 43.4 47.0 43.8 47.2 C44.8 48.0 45.8 48.4 47.6 48.8 C49.5 49.2 50.3 49.5 50.6 50.0 C50.9 50.5 51.1 51.6 50.9 52.1 C50.3 53.7 50.1 56.1 50.6 55.9 C50.8 55.9 50.9 55.9 51.0 56.0 C51.1 56.2 51.8 55.5 51.8 55.1 C51.8 54.7 52.6 53.2 53.0 52.8 C53.2 52.6 53.8 52.1 54.3 51.8 C54.8 51.4 55.2 51.0 55.2 50.9 C55.2 50.8 55.3 50.7 55.4 50.8 C55.6 50.8 55.7 50.8 55.8 50.7 C55.8 50.6 56.0 50.6 56.2 50.6 C56.5 50.7 56.8 49.3 56.9 46.8 C57.0 45.5 57.0 45.3 56.7 44.7 C56.0 43.4 54.2 41.7 53.4 41.7 C53.3 41.7 52.7 41.5 52.2 41.2 C51.6 41.0 50.8 40.6 50.3 40.5 C47.7 39.9 46.8 39.5 46.1 38.9 C45.4 38.3 44.1 37.9 42.7 37.8 C41.3 37.7 40.7 37.5 40.0 36.8 C39.2 36.2 38.6 35.9 37.2 35.5 C36.4 35.3 35.8 35.1 35.1 34.6 C33.2 33.3 33.4 33.5 33.5 32.3 C33.6 31.0 33.8 30.7 34.4 30.3 C35.3 29.8 35.6 29.9 37.3 31.3 C37.8 31.8 38.2 32.1 38.3 32.1 C38.3 32.1 38.7 32.3 39.0 32.5 C39.4 32.7 39.7 32.9 39.7 32.8 C39.7 32.8 39.9 32.9 40.1 33.1 C40.6 33.6 42.0 33.9 43.9 34.2 C44.9 34.3 45.3 34.4 45.8 34.8 C46.6 35.5 47.5 36.0 47.6 36.0 C47.7 36.0 48.0 36.2 48.3 36.4 C48.9 36.9 50.9 37.5 52.4 37.7 C53.7 37.9 54.3 38.2 55.1 39.0 C55.4 39.3 55.7 39.5 55.8 39.5 C55.9 39.5 56.0 39.6 56.0 39.6 C56.0 39.8 56.8 40.1 57.3 40.1 C57.9 40.1 58.9 39.6 59.3 39.1 C59.5 38.8 59.9 37.6 60.6 35.7 C61.1 34.2 60.9 31.8 60.3 31.0 C59.7 30.3 55.5 28.8 53.6 28.7 C52.9 28.6 51.6 28.4 50.9 28.3 C50.1 28.1 49.2 27.9 48.7 27.9 C47.1 27.7 46.7 27.5 45.4 26.5 C44.7 25.9 43.8 25.7 42.1 25.7 C40.1 25.7 39.6 25.5 38.5 24.4 C38.0 23.9 37.5 23.4 37.3 23.3 C36.3 22.7 37.7 22.1 39.9 22.2 C41.5 22.3 42.1 22.5 43.1 23.3 C44.1 24.1 44.5 24.2 47.5 24.4 C48.9 24.5 50.0 24.6 50.1 24.7 C50.2 24.7 51.1 24.8 52.2 24.9 C53.3 25.0 54.8 25.1 55.4 25.2 C56.6 25.4 56.7 25.4 60.0 24.7 L63.5 24.0 L68.0 24.0 C70.6 24.0 74.0 24.0 75.7 24.0 C80.0 24.0 81.4 23.7 82.6 22.6 C83.1 22.2 83.2 22.2 84.3 22.3 C85.7 22.4 87.9 22.4 88.8 22.3 L89.5 22.1 L89.5 22.6 C89.5 23.1 89.5 23.1 89.0 23.1 C88.8 23.1 88.6 23.2 88.6 23.3 C88.6 23.4 88.5 23.5 88.3 23.5 C88.2 23.5 88.1 23.6 88.1 23.7 C88.1 23.8 87.9 23.9 87.7 24.0 C87.3 24.0 87.0 24.3 86.9 24.7 C86.9 24.7 86.6 24.8 86.2 24.8 C85.9 24.9 85.5 25.0 85.5 25.0 C85.4 25.0 85.4 25.0 85.3 24.9 C85.3 24.8 85.2 24.8 85.1 25.1 C84.8 25.7 84.5 26.2 84.3 26.2 C84.3 26.2 84.1 26.3 83.9 26.5 C83.6 26.8 83.6 26.8 83.6 26.6 C83.6 26.5 83.7 26.2 83.9 26.0 C84.3 25.6 84.3 25.2 83.9 24.9 C83.4 24.6 81.6 25.1 79.5 26.0 C79.1 26.2 78.6 26.4 78.3 26.4 C77.9 26.5 77.6 26.6 77.6 26.6 C77.6 26.7 76.6 26.7 75.4 26.6 C73.4 26.5 72.1 26.6 72.1 27.0 C72.1 27.3 73.3 27.5 74.8 27.5 C76.2 27.5 76.5 27.5 76.5 27.7 C76.5 27.9 76.1 28.1 75.5 28.1 C75.3 28.1 75.1 28.0 75.1 27.9 C75.1 27.9 74.6 27.8 73.9 27.8 C72.8 27.8 72.8 27.8 73.6 27.9 L74.4 28.1 L73.6 28.1 C73.1 28.1 72.8 28.2 72.8 28.3 C72.8 28.4 72.8 28.3 72.7 28.1 C72.6 27.7 72.6 27.7 72.5 28.1 C72.5 28.3 72.4 28.4 72.3 28.4 C71.7 28.5 71.2 28.4 71.1 28.2 C70.9 28.0 69.6 28.0 69.5 28.3 C69.4 28.4 69.0 28.4 68.0 28.4 C66.7 28.3 66.0 28.4 66.2 28.8 C66.2 28.8 66.2 29.1 66.2 29.3 C66.1 29.7 66.0 29.7 65.6 29.7 C65.0 29.6 64.8 29.8 64.8 30.4 C64.8 30.8 64.8 31.0 64.7 30.9 C64.5 30.8 64.3 31.1 64.1 31.7 C64.1 31.9 63.9 32.1 63.8 32.1 C63.7 32.1 63.7 32.2 63.9 32.3 C64.1 32.4 64.0 32.4 63.6 32.4 C63.1 32.3 63.1 32.3 63.1 32.7 C63.1 33.1 63.1 33.1 63.2 32.9 C63.3 32.7 63.4 32.8 63.4 33.2 C63.4 33.5 63.3 33.7 63.2 33.6 C63.0 33.5 62.9 33.9 63.0 34.6 C63.1 35.2 63.1 35.3 63.4 35.2 C63.7 35.1 63.7 35.2 63.6 35.3 C63.6 35.4 63.6 35.5 63.7 35.5 C63.8 35.5 64.2 36.3 64.2 36.8 C64.2 36.9 64.3 37.1 64.4 37.1 C64.4 37.1 64.5 37.2 64.6 37.4 C64.6 37.6 64.7 37.7 64.8 37.7 C64.9 37.6 65.0 37.7 65.2 37.7 C65.4 37.9 65.4 37.9 65.2 37.9 C65.0 37.9 65.0 37.9 65.2 38.1 C65.3 38.2 65.5 38.3 65.5 38.5 C65.5 38.6 65.6 38.7 65.7 38.7 C65.8 38.7 66.0 38.8 66.0 38.9 C66.1 39.1 66.2 39.2 66.3 39.1 C66.3 39.1 66.6 39.2 66.7 39.5 C67.0 39.8 67.2 39.9 67.5 39.9 C67.7 39.8 67.9 39.9 67.9 40.1 C68.0 40.3 68.0 40.3 68.0 40.1 C68.0 39.9 68.2 39.8 69.0 39.9 C69.9 40.0 70.0 40.0 70.1 39.6 C70.2 39.4 70.3 39.3 70.3 39.5 C70.3 39.8 70.9 39.7 70.9 39.4 C70.9 39.3 71.0 39.3 71.1 39.4 C71.1 39.6 71.7 39.7 72.5 39.7 C73.7 39.7 73.8 39.7 74.1 40.1 C74.3 40.3 74.4 40.4 74.5 40.3 C74.6 40.1 74.6 40.1 74.6 40.2 C74.6 40.3 74.8 40.4 75.1 40.3 C75.5 40.3 75.6 40.3 75.6 40.6 C75.6 40.8 75.6 40.8 75.7 40.5 C75.8 40.3 75.9 40.3 75.9 40.5 C75.9 40.6 76.0 40.8 76.1 40.8 C76.5 40.9 76.0 41.2 75.0 41.6 C74.4 41.8 73.8 42.0 73.6 42.1 C73.5 42.1 72.8 42.2 72.1 42.1 C70.2 42.0 65.3 42.6 63.8 43.1 C61.8 43.8 61.3 44.3 60.7 45.9 C60.2 47.1 59.6 47.8 59.0 48.1 C57.9 48.5 57.5 49.0 57.4 50.1 C57.3 51.0 57.3 51.1 57.7 51.5 C57.9 51.7 58.2 52.0 58.2 52.1 C58.4 52.5 59.7 52.5 60.1 52.2 C60.2 52.1 60.3 52.0 60.3 52.1 C60.3 52.1 60.5 52.0 60.8 51.8 C61.0 51.5 61.3 51.4 61.4 51.4 C61.5 51.4 61.8 51.2 62.0 51.0 C62.6 50.6 62.6 50.6 62.6 51.5 L62.5 52.2 L62.4 51.5 L62.3 50.8 L62.3 51.5 C62.3 51.8 62.2 52.2 62.1 52.2 C62.0 52.2 61.8 52.8 61.8 53.4 C61.8 53.7 61.8 53.7 61.6 53.4 C61.5 53.2 61.5 53.2 61.5 53.4 C61.5 53.6 61.4 53.7 61.3 53.5 C61.2 53.3 61.1 53.4 61.1 53.9 C61.0 54.3 60.9 54.6 60.7 54.6 C60.6 54.6 60.5 54.7 60.5 55.0 C60.5 55.2 60.4 55.4 60.4 55.4 C60.3 55.4 60.2 55.5 60.2 55.7 C60.1 56.0 60.0 56.1 59.7 56.1 C59.4 56.2 59.2 56.3 59.2 56.4 C59.2 56.6 59.0 56.9 58.7 57.1 C58.5 57.3 58.3 57.6 58.3 57.8 C58.3 58.1 58.1 58.1 57.5 58.1 C57.5 58.1 57.2 58.2 57.0 58.3 C56.7 58.5 56.5 58.5 56.5 58.5 C56.5 58.4 56.4 58.5 56.3 58.6 C56.3 58.7 55.9 58.9 55.6 58.9 C54.9 58.9 54.4 59.2 54.5 59.4 C54.6 59.5 54.4 59.6 54.1 59.7 C53.8 59.8 53.5 60.1 53.4 60.3 C53.3 60.5 53.2 60.7 53.1 60.7 C53.0 60.7 52.8 60.8 52.7 60.9 C52.4 61.3 51.9 61.5 51.0 61.8 C50.7 61.9 50.4 62.1 50.4 62.2 C50.4 62.5 50.1 62.6 49.3 62.5 C48.9 62.5 48.6 62.6 48.6 62.7 C48.6 62.7 48.3 62.8 48.1 62.8 C47.1 62.9 46.5 63.2 46.3 63.7 C46.1 64.0 45.9 64.2 45.7 64.2 C45.4 64.2 45.4 64.2 45.8 64.4 C46.1 64.5 46.1 64.5 45.8 64.5 C45.5 64.5 45.4 64.6 45.4 64.9 C45.4 65.2 45.4 65.2 45.3 64.8 C45.2 64.5 45.2 64.5 45.1 64.7 C45.0 64.9 45.0 65.1 45.1 65.2 C45.3 65.5 45.3 65.8 45.0 65.8 C44.9 65.8 44.8 65.9 44.8 65.9 C44.8 66.1 43.5 66.6 43.3 66.5 C43.2 66.5 43.2 66.6 43.2 66.8 C43.2 67.3 42.9 67.5 42.8 67.2 C42.8 67.1 42.7 67.4 42.6 67.9 C42.6 68.6 42.4 68.8 42.2 69.0 C42.0 69.1 41.9 69.1 42.0 69.2 C42.2 69.2 42.2 69.2 42.0 69.4 C41.6 69.9 41.5 70.1 41.3 70.4 C41.3 70.6 41.1 70.8 41.0 70.8 C40.9 70.8 40.8 70.9 40.8 71.0 C40.8 71.1 40.7 71.2 40.6 71.2 C40.6 71.2 40.3 71.5 40.0 71.7 C39.8 72.0 39.3 72.3 38.9 72.5 C38.6 72.6 38.1 72.9 37.8 73.1 C37.4 73.4 37.3 73.5 37.2 73.3 C37.1 73.2 37.1 73.2 37.1 73.4 C37.1 73.5 37.0 73.7 36.9 73.7 C36.6 73.7 36.5 73.7 36.2 74.0 C36.0 74.2 35.7 74.4 35.5 74.5 C35.2 74.7 35.0 74.9 34.9 75.1 C34.9 75.2 34.7 75.4 34.6 75.5 C34.5 75.5 34.4 75.8 34.4 76.0 C34.4 76.2 34.3 76.4 34.1 76.4 C34.0 76.4 33.9 76.5 33.9 76.6 C33.9 76.8 33.8 76.9 33.7 76.9 C33.7 76.9 33.5 77.0 33.5 77.2 C33.4 77.4 33.3 77.7 33.1 77.8 C33.0 77.9 32.9 78.2 32.9 78.4 C32.9 78.6 32.8 78.8 32.7 78.8 C32.5 78.8 32.4 78.9 32.4 79.0 C32.4 79.2 32.3 79.3 32.2 79.3 C31.9 79.3 31.5 79.6 31.5 79.9 C31.5 79.9 31.3 80.1 31.2 80.2 C30.9 80.4 30.8 80.6 30.8 81.5 C30.8 82.1 30.8 82.5 30.7 82.5 C30.6 82.5 30.5 82.6 30.5 82.7 C30.6 83.0 30.3 84.2 30.2 84.2 C30.2 84.2 30.1 84.6 30.2 85.0 C30.2 85.6 30.2 85.7 29.9 85.8 C29.6 85.9 29.6 86.0 29.6 86.7 C29.6 87.5 29.5 87.5 29.2 87.6 C29.0 87.6 28.6 87.7 28.4 87.8 C28.0 88.0 28.0 88.1 28.2 88.1 C28.4 88.2 28.4 88.2 28.1 88.2 L27.7 88.3 L28.1 88.4 L28.5 88.5 L28.1 88.6 C27.8 88.6 27.6 88.7 27.6 88.8 C27.6 88.9 27.6 89.0 27.5 89.0 C27.1 89.0 27.0 89.1 27.0 89.4 C27.0 89.8 27.0 89.8 26.8 89.4 L26.7 89.0 L26.7 89.4 C26.7 89.7 26.6 89.9 26.5 89.9 C26.4 89.9 26.3 90.0 26.3 90.2 C26.3 90.3 26.2 90.6 26.1 90.7 C26.0 90.8 25.9 91.1 25.9 91.3 C25.9 91.5 25.8 91.6 25.7 91.6 C25.6 91.6 25.5 91.7 25.5 91.9 C25.5 92.0 25.5 92.1 25.4 92.1 C25.3 92.1 25.2 92.0 25.2 91.9 Z M9.3 67.5 C9.3 67.2 9.3 67.0 9.4 67.0 C9.4 66.9 9.4 66.8 9.4 66.6 C9.4 66.4 9.5 66.2 9.7 66.1 C10.1 66.1 10.1 66.2 9.6 67.2 C9.3 67.8 9.2 67.9 9.3 67.5 Z M10.1 64.7 C10.1 63.9 10.2 63.3 10.3 63.2 C10.4 63.2 10.5 62.8 10.6 62.5 C10.6 62.1 10.7 61.8 10.8 61.8 C10.9 61.8 11.0 61.6 11.0 61.4 C11.0 61.1 11.0 61.0 11.2 61.0 C11.4 61.0 11.4 61.1 11.4 61.4 C11.3 61.7 11.2 62.2 11.1 62.6 C11.0 63.0 10.8 63.9 10.5 64.7 L10.0 66.0 L10.1 64.7 Z M45.4 62.6 C45.6 62.5 46.3 62.3 46.8 62.2 C48.4 61.7 48.9 61.1 49.2 59.7 C49.3 59.2 49.3 59.1 49.1 59.1 C49.0 59.1 48.8 58.9 48.7 58.7 C48.4 58.3 46.9 58.5 46.9 59.0 C46.9 59.1 46.8 59.2 46.6 59.2 C46.5 59.2 46.4 59.3 46.4 59.5 C46.4 59.6 46.3 59.7 46.2 59.7 C46.1 59.7 45.8 59.9 45.5 60.2 C45.0 60.7 44.9 60.9 44.8 61.8 C44.8 62.3 44.8 62.7 44.8 62.7 C44.9 62.7 45.1 62.7 45.4 62.6 Z M46.1 56.2 C46.6 56.0 46.3 54.0 45.6 53.2 C44.5 52.0 42.1 52.1 42.1 53.4 C42.1 53.9 44.3 56.1 44.5 55.9 C44.6 55.9 44.6 56.0 44.7 56.2 C44.8 56.5 45.4 56.5 46.1 56.2 Z M75.2 46.4 C75.2 46.3 75.5 46.2 75.8 46.2 C76.7 46.0 78.2 45.4 78.7 45.0 C79.3 44.4 80.5 43.8 80.5 44.0 C80.5 44.1 80.5 44.1 80.4 44.1 C80.3 44.1 80.2 44.5 80.2 44.9 L80.2 45.7 L80.1 44.9 L80.0 44.2 L79.9 44.9 C79.9 45.7 79.6 45.9 78.6 45.8 C78.1 45.8 77.9 45.8 77.9 46.1 C77.8 46.2 77.6 46.3 77.2 46.3 C76.9 46.3 76.3 46.3 75.9 46.4 C75.5 46.4 75.1 46.5 75.2 46.4 Z M15.9 45.9 C15.7 45.1 15.9 44.3 16.2 44.4 C16.3 44.4 16.4 44.3 16.5 44.1 C16.5 43.9 16.7 43.7 16.8 43.7 C16.9 43.7 17.0 43.8 16.9 43.9 C16.9 44.1 16.8 44.1 16.7 44.1 C16.6 44.1 16.4 44.5 16.2 45.6 L16.0 46.5 L15.9 45.9 Z M17.0 42.9 C17.1 42.6 17.2 42.4 17.3 42.4 C17.6 42.4 17.6 42.5 17.3 43.1 C17.1 43.7 16.9 43.6 17.0 42.9 Z M17.5 41.7 C17.4 41.4 17.4 41.2 17.6 41.0 C18.0 40.6 18.1 40.8 17.9 41.6 C17.6 42.4 17.6 42.4 17.5 41.7 Z M18.0 40.1 C18.0 39.7 18.1 39.5 18.1 39.6 C18.2 39.7 18.3 39.8 18.4 39.7 C18.6 39.6 18.6 39.6 18.5 39.5 C18.3 39.4 18.3 39.3 18.5 39.3 C18.7 39.3 18.8 39.1 18.8 38.7 C18.8 38.3 18.9 37.9 19.0 37.8 C19.2 37.6 19.3 37.4 19.4 36.6 C19.5 36.2 19.6 36.1 20.0 36.1 C20.0 36.1 20.1 35.9 20.1 35.7 C20.1 35.5 20.2 35.3 20.2 35.3 C20.3 35.3 20.3 35.2 20.3 35.0 C20.3 34.8 20.3 34.7 20.4 34.7 C20.6 34.7 20.6 35.3 20.3 36.9 C20.0 38.7 19.8 39.1 19.2 39.5 C19.0 39.7 18.6 40.0 18.4 40.3 L18.0 40.7 L18.0 40.1 Z M20.9 31.5 C20.7 31.3 20.7 31.3 20.9 31.3 C21.1 31.3 21.2 31.2 21.1 31.0 C21.1 30.8 21.1 30.7 21.2 30.7 C21.3 30.7 21.4 30.6 21.4 30.5 C21.4 30.3 21.5 30.3 21.7 30.3 C21.9 30.4 22.0 30.3 22.0 30.2 C22.0 30.0 22.1 29.9 22.3 29.8 C22.7 29.7 22.5 30.0 21.9 30.7 C21.6 31.1 21.4 31.4 21.4 31.5 C21.4 31.7 21.2 31.7 20.9 31.5 Z M25.1 26.6 C25.4 25.4 25.4 25.2 25.7 25.2 C25.9 25.2 25.9 25.2 25.7 25.1 C25.6 25.0 25.6 24.9 25.8 24.9 C26.0 24.8 26.2 24.9 26.2 25.0 C26.3 25.1 26.3 25.1 26.3 24.9 C26.3 24.8 26.4 24.7 26.6 24.7 C26.7 24.7 26.8 24.6 26.9 24.5 C26.9 24.3 26.9 24.4 26.9 24.7 C26.8 25.3 26.2 26.3 25.6 26.7 L25.1 27.0 L25.1 26.6 Z M88.2 19.5 C86.8 19.2 85.2 19.0 84.8 19.1 C84.2 19.4 82.9 19.3 81.5 19.0 C80.6 18.9 80.2 18.8 79.4 19.0 C77.8 19.2 76.7 19.2 75.7 19.0 C74.5 18.8 69.4 18.7 68.4 19.0 C67.4 19.2 64.9 19.2 63.7 19.0 C61.0 18.5 56.7 18.4 54.5 18.9 C53.3 19.1 52.8 19.1 52.4 19.0 C52.0 18.9 51.4 18.8 51.0 18.8 C50.6 18.8 50.2 18.7 50.2 18.6 C50.0 18.5 48.7 18.6 47.0 18.9 C45.9 19.1 43.4 19.1 40.6 18.8 C39.4 18.7 37.2 18.7 35.0 18.9 C34.5 18.9 34.2 18.9 34.2 18.8 C34.2 18.7 34.4 18.6 34.6 18.6 C34.8 18.6 35.0 18.6 35.0 18.5 C35.0 18.4 35.2 18.3 35.3 18.3 C35.5 18.3 35.6 18.3 35.6 18.2 C35.6 18.1 35.8 18.1 36.1 18.0 C36.3 18.0 36.7 17.9 36.8 17.7 C37.0 17.5 37.3 17.3 37.6 17.3 C37.9 17.2 38.8 17.1 39.7 17.0 C40.6 17.0 41.4 16.8 41.4 16.8 C41.6 16.7 41.6 16.3 41.4 16.2 C41.2 16.1 41.2 16.1 41.4 16.1 C41.5 16.1 41.6 15.9 41.6 15.7 C41.6 15.3 41.7 15.2 42.1 15.3 C42.2 15.3 42.2 15.1 42.2 14.8 C42.3 14.4 42.3 14.4 42.4 14.8 C42.5 15.1 42.5 15.1 42.8 14.5 C43.0 14.1 43.2 13.9 43.2 14.0 C43.2 14.1 43.2 14.2 43.4 14.0 C43.5 14.0 43.7 13.9 43.9 13.9 C44.0 13.9 44.1 13.9 44.1 13.8 C44.1 13.8 44.3 13.7 44.5 13.6 C44.6 13.5 44.8 13.4 44.8 13.3 C44.8 13.1 44.9 13.0 45.4 13.1 C45.8 13.1 46.1 13.1 46.1 13.0 C46.1 12.9 46.1 12.9 46.2 13.0 C46.5 13.1 46.9 12.7 46.9 12.3 C46.9 12.0 46.9 12.0 47.0 12.4 C47.1 12.7 47.2 12.8 47.5 12.8 C48.0 12.8 48.1 13.0 47.7 13.2 C47.5 13.3 47.3 13.4 47.2 13.6 C47.0 13.7 46.7 14.0 46.4 14.2 C45.7 14.7 45.6 14.8 46.0 15.2 C46.6 15.7 50.8 16.3 52.2 16.1 C52.7 16.0 53.6 15.9 54.2 16.0 C57.5 16.3 59.8 15.9 61.2 15.0 C61.9 14.5 62.9 14.2 64.4 13.8 C65.4 13.6 69.9 11.5 70.7 10.8 C70.9 10.6 71.2 10.5 71.4 10.5 C72.0 10.5 74.9 12.1 75.8 13.0 C76.3 13.4 76.9 13.8 76.9 13.8 C77.1 13.8 78.9 14.9 79.3 15.3 C79.5 15.4 80.0 15.7 80.5 15.9 C81.4 16.2 81.5 16.2 82.8 15.9 C84.0 15.7 84.7 15.3 84.7 14.9 C84.7 14.8 84.2 14.3 83.7 13.7 C83.0 13.0 82.4 12.3 82.0 11.4 C81.7 10.8 81.3 10.1 81.1 9.9 C80.9 9.7 80.7 9.4 80.7 9.1 C80.6 8.6 80.6 8.5 81.1 8.5 C81.6 8.5 81.7 8.6 81.7 9.0 C81.7 9.3 81.7 9.5 81.8 9.5 C81.9 9.5 82.0 9.6 82.0 9.7 C81.9 9.8 82.0 9.9 82.1 9.9 C82.3 10.0 82.5 10.4 82.5 10.9 C82.5 11.5 82.5 11.5 82.7 11.2 C82.9 10.9 82.9 10.9 82.9 11.3 C83.0 11.7 83.0 11.8 83.4 11.8 C83.7 11.8 83.8 11.7 83.8 11.3 C83.8 10.9 83.8 10.9 83.9 11.4 C84.0 11.7 84.0 11.9 84.1 11.7 C84.1 11.4 84.5 11.2 84.7 11.4 C84.8 11.4 84.9 11.6 84.9 11.9 C84.9 12.3 84.9 12.3 85.1 12.0 C85.3 11.6 85.5 11.7 85.5 12.1 C85.5 12.3 85.6 12.4 85.6 12.3 C85.7 12.0 86.0 12.2 86.0 12.6 C86.0 12.7 86.1 12.8 86.3 12.8 C86.5 12.8 86.6 12.9 86.7 13.2 C86.7 13.4 86.8 13.6 87.0 13.6 C87.1 13.5 87.1 13.6 87.1 13.8 C87.0 13.9 87.1 14.0 87.4 14.1 C87.7 14.2 87.9 14.3 87.9 14.3 C87.9 14.4 88.1 14.5 88.2 14.5 C88.5 14.5 88.6 14.6 88.6 15.1 C88.6 15.5 88.6 15.8 88.7 15.7 C88.8 15.7 89.0 15.7 89.3 15.8 L89.8 15.8 L89.3 15.9 C89.0 16.0 88.9 16.1 89.1 16.1 C89.3 16.1 89.4 16.2 89.4 16.6 C89.4 17.0 89.4 17.1 89.9 17.0 C90.3 16.9 90.3 17.0 90.4 17.4 C90.4 17.6 90.4 17.8 90.3 17.9 C90.3 18.0 90.5 18.1 90.7 18.1 C90.9 18.2 91.0 18.3 90.9 18.4 C90.9 18.5 90.9 18.7 91.0 18.7 C91.2 18.9 91.2 19.6 90.9 19.7 C90.5 19.8 89.0 19.8 88.2 19.5 Z M50.6 11.4 C50.6 11.3 50.6 11.1 50.7 11.1 C50.9 11.1 51.1 10.5 51.1 10.2 C51.0 10.2 51.1 9.8 51.1 9.5 C51.2 9.0 51.3 8.9 51.5 8.9 C51.7 9.0 51.9 8.9 51.9 8.8 C51.9 8.8 52.2 8.7 52.6 8.6 C53.0 8.6 53.4 8.5 53.5 8.4 C53.6 8.2 53.6 8.3 53.6 8.6 L53.6 9.1 L53.7 8.6 C53.8 8.2 53.9 8.2 54.3 8.2 C55.0 8.3 55.5 8.4 55.5 8.4 C55.6 8.4 55.8 8.5 56.1 8.5 C56.4 8.6 56.4 8.6 56.1 8.7 C55.7 8.9 54.6 9.9 54.6 10.1 C54.6 10.5 53.6 11.0 52.1 11.4 C51.3 11.6 50.6 11.7 50.6 11.7 C50.6 11.8 50.6 11.6 50.6 11.4 Z"/></svg>