<svg xmlns="http://www.w3.org/2000/svg" viewBox="0 0 100 100" class="ksl-svg"><path class="kp-fill" fill-rule="evenodd" d="M38.5 93.8 L37.6 93.7 L37.7 93.4 L37.7 93.0 L37.3 93.0 C36.9 93.0 36.8 92.9 36.8 92.8 C36.7 92.5 36.7 92.5 36.2 92.4 C35.7 92.4 35.7 92.4 35.7 92.5 C35.7 92.7 35.5 92.7 34.9 92.7 C34.5 92.6 34.3 92.6 34.4 92.7 C34.8 92.7 34.8 92.9 34.4 92.9 C34.1 93.0 34.0 92.9 34.1 92.7 C34.1 92.6 33.2 92.5 32.9 92.6 C32.7 92.6 32.6 92.7 32.6 92.8 C32.6 92.8 32.6 92.9 32.5 92.9 C32.3 92.9 32.1 92.9 32.1 93.2 L32.0 93.4 L32.0 93.2 C32.0 92.8 31.5 92.8 31.5 93.2 C31.5 93.5 31.4 93.5 30.6 93.3 C30.1 93.2 29.3 92.7 29.7 92.7 C29.9 92.7 29.7 92.6 29.4 92.5 C29.2 92.5 29.1 92.5 29.1 92.3 C29.1 92.2 29.1 92.1 28.9 92.0 C28.8 92.0 28.7 91.9 28.7 91.9 C28.7 91.8 28.7 91.8 28.6 91.8 C28.5 91.9 28.4 91.8 28.4 91.6 C28.4 91.5 28.4 91.3 28.3 91.3 C28.2 91.2 28.2 91.2 28.3 91.1 C28.3 91.1 28.2 91.0 28.1 91.0 C27.9 91.0 27.9 91.0 27.9 90.7 C27.9 90.5 27.8 90.4 27.7 90.4 C27.7 90.4 27.6 90.3 27.5 90.1 C27.5 89.9 27.4 89.8 27.4 89.8 C27.3 89.8 27.2 89.3 27.2 88.8 C27.1 88.1 27.0 87.7 26.9 87.7 C26.8 87.6 26.7 84.5 26.9 84.4 C27.0 84.4 27.0 80.3 26.8 80.2 C26.8 80.2 26.7 80.1 26.7 79.9 C26.7 79.8 26.7 79.7 26.6 79.7 C26.6 79.7 26.5 79.4 26.5 79.2 C26.5 78.9 26.5 78.6 26.4 78.6 C26.4 78.6 26.3 78.4 26.3 78.1 C26.3 77.8 26.4 77.6 26.4 77.6 C26.5 77.6 26.5 77.5 26.5 77.3 C26.5 77.2 26.5 77.1 26.4 77.1 C26.4 77.1 26.3 76.9 26.3 76.8 C26.3 76.6 26.4 76.5 26.4 76.5 C26.6 76.5 26.7 75.1 26.5 75.1 C26.5 75.1 26.4 74.9 26.4 74.7 C26.4 74.5 26.4 74.3 26.3 74.4 C26.3 74.4 26.2 74.3 26.2 74.2 C26.2 74.1 26.2 74.0 26.1 74.0 C26.1 74.0 26.0 73.8 26.0 73.5 C26.0 73.2 26.0 72.9 26.0 72.9 C25.8 72.6 25.7 71.8 25.7 70.3 C25.7 69.3 25.7 68.6 25.6 68.6 C25.6 68.6 25.6 68.6 25.7 68.5 C25.8 68.5 25.8 68.4 25.7 68.4 C25.6 68.4 25.6 67.4 25.7 67.2 C25.8 67.1 25.8 66.3 25.8 65.1 C25.8 64.3 25.8 64.1 25.6 63.8 C25.4 63.5 25.3 63.2 25.3 63.1 C25.4 63.0 25.3 62.7 25.2 62.4 C25.0 62.0 25.0 61.9 25.1 60.3 C25.1 59.8 25.1 59.6 25.1 59.7 C25.0 59.9 24.9 59.9 24.8 59.7 C24.8 59.6 24.7 59.6 24.7 59.7 C24.7 60.1 24.6 59.2 24.6 58.8 C24.6 58.3 24.6 58.2 24.4 58.2 C24.2 58.2 24.2 58.2 24.2 57.9 C24.2 57.6 24.2 57.5 24.1 57.6 C24.1 57.7 23.8 57.6 23.7 57.4 C23.6 57.4 23.5 57.3 23.5 57.4 C23.4 57.4 23.3 57.3 23.3 57.2 C23.2 57.1 23.1 57.0 23.0 57.0 C22.9 57.0 22.8 56.9 22.8 56.9 C22.8 56.8 22.7 56.6 22.6 56.6 C22.5 56.5 22.4 56.3 22.4 56.2 C22.4 56.0 22.4 55.9 22.3 55.9 C22.1 55.9 22.1 56.0 22.1 53.9 C22.1 53.2 22.1 52.8 22.2 52.8 C22.2 52.8 22.1 52.7 22.0 52.7 C21.8 52.6 21.7 52.5 21.7 52.3 C21.7 52.1 21.7 52.0 21.6 52.0 C21.6 52.0 21.5 51.7 21.6 51.4 C21.6 50.8 21.6 50.8 21.4 50.8 C21.3 50.9 21.3 50.8 21.3 50.6 C21.3 50.5 21.3 50.4 21.4 50.4 C21.5 50.4 21.7 49.7 21.6 49.6 C21.5 49.6 21.5 49.2 21.4 48.8 C21.4 48.3 21.4 48.1 21.5 48.2 C21.6 48.4 21.6 48.4 21.6 48.0 C21.6 47.8 21.6 47.6 21.7 47.6 C21.7 47.5 21.8 47.4 21.8 47.3 C21.8 47.1 21.8 47.0 21.9 47.1 C22.0 47.1 22.0 46.9 22.0 46.5 C21.9 46.0 21.9 45.8 22.0 46.0 C22.1 46.1 22.1 45.9 22.1 45.3 C22.0 44.8 22.1 44.5 22.1 44.5 C22.2 44.6 22.2 44.5 22.2 44.5 C22.2 44.4 22.3 44.2 22.4 44.1 C22.5 44.0 22.6 43.9 22.6 43.7 C22.6 43.6 22.7 43.5 22.8 43.6 C22.9 43.6 23.0 43.6 23.0 43.6 C23.0 43.4 23.0 43.2 23.2 42.8 C23.3 42.5 23.4 42.2 23.4 42.1 L23.4 41.9 L23.5 42.1 C23.6 42.3 23.6 42.3 23.6 42.1 C23.6 42.0 23.7 42.0 23.8 42.0 C23.9 42.0 23.9 41.9 23.8 41.9 C23.7 41.8 23.7 41.7 23.7 41.4 C23.8 40.9 23.9 40.7 24.0 40.9 C24.1 41.0 24.1 41.0 24.1 40.9 C24.1 40.8 24.2 40.7 24.2 40.8 C24.3 40.8 24.3 40.7 24.3 40.6 C24.3 40.5 24.4 40.4 24.5 40.4 C24.6 40.4 24.6 40.3 24.6 40.2 C24.6 40.1 24.7 40.1 24.8 40.1 C25.0 40.1 25.1 40.1 25.1 40.0 C25.1 39.8 25.1 39.9 25.2 40.0 C25.2 40.2 25.2 40.1 25.3 39.8 C25.3 39.5 25.3 39.3 25.4 39.3 C25.4 39.3 25.5 39.1 25.5 38.8 L25.5 38.3 L25.9 38.2 C26.2 38.1 26.4 38.0 26.4 37.9 C26.4 37.8 26.5 37.7 26.5 37.6 C26.6 37.5 26.6 37.3 26.7 37.2 C26.7 37.1 26.7 37.1 26.8 37.3 C26.9 37.6 26.9 37.6 27.0 37.3 C27.0 37.0 27.1 36.9 27.2 37.0 C27.3 37.0 27.4 37.0 27.4 36.9 C27.4 36.8 27.4 36.7 27.4 36.7 C27.8 36.7 28.0 36.6 28.1 36.4 C28.2 36.3 28.4 36.2 28.5 36.3 C28.6 36.3 28.7 36.3 28.7 36.2 C28.7 36.1 28.8 36.1 28.8 36.1 C28.9 36.2 29.0 36.1 29.0 36.1 C29.0 36.0 29.1 36.0 29.3 36.0 C29.4 36.0 29.5 35.9 29.5 35.8 C29.5 35.7 29.5 35.7 29.6 35.7 C29.7 35.8 29.8 35.7 29.8 35.7 C29.8 35.5 30.2 35.4 30.6 35.4 C30.9 35.5 30.9 35.4 30.9 35.3 C30.9 35.1 31.0 35.1 31.0 35.2 C31.1 35.3 31.2 35.3 31.5 35.0 C31.7 34.9 32.0 34.7 32.0 34.7 C32.3 34.7 32.7 34.5 32.8 34.3 C32.8 34.2 33.0 34.1 33.1 34.0 C33.3 33.9 33.5 33.8 33.5 33.8 C33.5 33.6 33.7 33.3 33.9 33.3 C34.0 33.3 34.0 33.2 34.0 33.0 C34.0 32.9 34.0 32.8 34.1 32.8 C34.2 32.8 34.3 32.8 34.3 32.7 C34.3 32.6 34.4 32.5 34.4 32.4 C34.6 32.3 34.6 32.3 34.6 32.5 C34.7 32.6 34.7 32.6 34.7 32.4 C34.7 32.2 34.8 32.0 35.0 31.8 L35.2 31.5 L35.2 31.8 C35.2 32.2 35.3 32.1 35.4 31.7 C35.4 31.5 35.5 31.3 35.5 31.3 C35.6 31.3 35.7 31.3 35.7 31.2 C35.7 31.0 35.7 30.9 35.8 30.8 C35.9 30.7 36.0 30.6 36.0 30.5 C36.0 30.4 36.0 30.3 36.1 30.3 C36.1 30.3 36.2 30.2 36.2 30.2 C36.2 30.1 36.3 29.9 36.4 29.8 C36.6 29.6 36.7 29.6 36.7 29.6 C36.7 29.6 36.9 29.6 37.1 29.5 C37.3 29.4 37.7 29.3 37.9 29.3 C38.1 29.3 38.3 29.3 38.3 29.2 C38.3 29.1 38.3 29.1 38.4 29.2 C38.4 29.3 38.7 29.3 39.5 29.3 C39.6 29.3 39.7 29.1 39.7 29.0 C39.7 28.8 39.7 28.8 39.7 29.1 C39.8 29.2 39.8 29.4 39.8 29.4 C39.9 29.4 39.9 29.2 39.9 29.1 C39.9 28.9 39.9 28.8 40.0 28.8 C40.0 28.8 40.1 28.8 40.2 28.8 C40.2 28.8 40.3 28.9 40.3 29.1 L40.4 29.4 L40.4 29.1 L40.4 28.8 L40.6 29.0 C40.7 29.2 40.8 29.2 40.9 29.1 C40.9 29.0 40.9 29.0 41.0 29.1 C41.0 29.3 41.3 29.2 41.3 29.0 C41.3 28.8 41.7 28.8 42.0 29.0 C42.2 29.3 42.6 29.2 42.6 28.9 C42.6 28.8 42.6 28.7 42.7 28.8 C42.8 28.8 42.8 28.7 42.8 28.6 C42.8 28.4 42.8 28.3 42.9 28.3 C42.9 28.4 43.1 28.3 43.2 28.2 C43.4 28.0 43.7 26.5 43.4 26.5 C43.4 26.5 43.3 26.4 43.3 26.3 C43.3 26.2 43.5 26.1 43.9 26.0 C44.3 25.9 44.6 25.7 44.8 25.6 C44.9 25.5 45.0 25.4 45.0 25.4 C45.0 25.4 45.1 25.4 45.2 25.3 C45.3 25.2 45.4 25.1 45.4 25.0 C45.3 25.0 45.4 24.9 45.5 24.8 C45.7 24.8 45.7 24.7 45.7 24.6 C45.7 24.4 46.0 23.8 46.1 23.9 C46.2 23.9 46.3 23.7 46.2 23.1 C46.2 22.6 46.2 22.0 46.3 21.6 C46.3 21.2 46.3 20.9 46.2 20.9 C46.1 20.8 46.0 20.1 46.0 18.8 C46.1 18.1 46.0 17.9 45.9 17.9 C45.8 17.9 45.8 17.8 45.8 17.7 C45.8 17.6 45.8 17.5 45.7 17.5 C45.7 17.5 45.6 17.3 45.6 17.1 C45.6 16.8 45.6 16.6 45.5 16.6 C45.4 16.5 45.3 16.4 45.3 16.3 C45.3 16.1 45.3 16.1 45.1 16.2 C44.9 16.2 44.9 16.2 44.9 15.9 C44.9 15.7 45.0 15.5 45.1 15.5 C45.2 15.5 45.3 15.3 45.4 15.2 C45.4 15.0 45.5 14.9 45.5 14.9 C45.8 14.7 46.0 14.2 46.0 14.0 C45.9 13.7 46.1 13.1 46.2 13.1 C46.3 13.1 46.3 13.0 46.3 12.8 C46.4 12.7 46.4 12.6 46.5 12.6 C46.6 12.5 46.6 11.9 46.5 11.9 C46.4 11.9 46.4 11.8 46.4 11.7 C46.4 11.5 46.4 11.4 46.5 11.4 C46.6 11.4 46.6 11.0 46.8 8.9 C46.9 7.7 46.9 7.9 47.0 7.7 C47.1 7.6 47.2 7.4 47.3 7.2 C47.4 6.3 47.6 6.1 48.6 6.2 C49.3 6.2 49.3 6.2 49.3 6.4 C49.3 6.6 49.3 6.6 49.4 6.4 C49.5 6.2 49.5 6.3 49.5 6.6 C49.5 6.8 49.6 7.1 49.6 7.2 C49.7 7.4 49.7 7.4 49.8 7.1 C49.8 6.9 49.8 6.7 49.8 6.7 C49.8 6.6 49.9 6.5 50.0 6.5 C50.1 6.5 50.2 6.5 50.2 6.6 C50.2 6.8 50.2 6.8 50.3 6.6 C50.3 6.5 50.4 6.4 50.4 6.6 C50.4 6.7 50.5 6.8 50.7 6.9 C50.9 7.0 51.0 7.0 50.9 7.1 C50.9 7.1 50.8 7.2 50.9 7.3 C50.9 7.4 50.8 7.5 50.7 7.6 C50.6 7.7 50.6 7.8 50.7 7.8 C50.7 7.8 50.8 7.9 50.8 8.0 C50.8 8.1 50.8 8.1 50.9 8.1 C51.0 8.1 51.0 8.2 51.0 8.4 C51.0 8.5 51.1 8.7 51.2 8.8 C51.3 8.8 51.4 9.0 51.4 9.1 C51.4 9.3 51.7 10.1 51.8 10.1 C51.9 10.1 51.9 10.4 51.9 10.7 C51.9 11.1 51.9 11.2 51.7 11.2 C51.5 11.2 51.5 11.2 51.6 11.3 C51.8 11.4 51.8 11.4 51.6 11.4 C51.5 11.4 51.5 11.4 51.6 11.5 C51.7 11.6 51.7 11.6 51.6 11.6 C51.6 11.6 51.5 11.8 51.5 12.0 C51.4 12.3 51.4 12.3 51.7 12.4 L52.0 12.5 L51.9 13.5 C51.9 14.3 51.9 14.7 52.0 14.9 C52.2 15.5 52.3 15.9 52.3 16.6 C52.3 17.2 52.3 17.3 52.6 17.6 L52.9 17.9 L52.9 20.1 C53.0 22.0 53.0 22.3 53.1 22.3 C53.3 22.4 53.4 22.9 53.2 22.9 C53.1 22.9 53.1 23.0 53.1 23.2 C53.1 23.3 53.2 23.4 53.3 23.4 C53.3 23.4 53.4 23.4 53.4 23.5 C53.4 23.6 53.5 23.7 53.6 23.8 C53.7 23.9 53.8 23.9 53.8 24.0 C53.7 24.1 53.8 24.2 53.9 24.3 C54.0 24.4 54.1 24.6 54.1 24.6 C54.1 24.9 54.4 27.3 54.4 27.7 C54.5 28.0 54.5 28.1 54.4 28.1 C54.3 28.1 54.3 28.2 54.3 28.4 C54.3 28.6 54.4 29.3 54.4 30.0 C54.4 31.1 54.5 31.3 54.6 31.4 C54.8 31.5 54.8 31.7 54.7 32.2 C54.7 32.6 54.7 32.8 54.8 32.8 C54.8 32.8 54.9 32.9 54.9 33.1 C54.9 33.2 54.9 33.3 55.0 33.3 C55.0 33.3 55.1 33.6 55.1 33.8 C55.1 34.5 55.4 35.1 55.6 35.1 C55.7 35.1 55.8 35.2 55.8 35.3 C55.8 35.4 55.9 35.5 56.0 35.6 C56.2 35.7 56.3 35.9 56.3 36.4 C56.4 36.4 56.5 36.5 56.6 36.6 C56.7 36.6 56.8 36.7 56.8 36.8 C56.8 37.0 56.8 37.0 56.9 37.0 C57.0 36.9 57.1 37.0 57.1 37.0 C57.1 37.2 57.1 37.1 57.2 37.0 C57.3 36.9 57.3 36.9 57.3 37.0 C57.3 37.1 57.5 37.2 57.7 37.2 C58.1 37.3 58.2 37.4 58.4 37.9 C58.5 38.0 58.5 38.1 58.6 38.1 C58.7 38.1 58.8 38.1 58.7 38.2 C58.7 38.2 58.7 38.3 58.8 38.3 C58.8 38.3 58.9 38.4 58.9 38.5 C58.9 38.7 59.2 38.8 59.3 38.5 C59.4 38.5 59.4 38.5 59.4 38.6 C59.4 38.7 59.5 38.7 59.7 38.6 C59.9 38.6 59.9 38.6 59.9 38.8 C59.9 39.1 60.1 39.0 60.2 38.6 C60.2 38.4 60.4 38.2 60.5 38.2 C60.6 38.1 60.8 38.0 60.8 37.8 C60.8 37.7 60.9 37.7 61.0 37.7 C61.0 37.7 61.1 37.7 61.1 37.6 C61.2 37.5 61.2 37.5 61.3 37.5 C61.4 37.5 61.4 37.5 61.4 37.4 C61.4 37.3 61.4 37.2 61.5 37.3 C61.5 37.3 61.6 37.1 61.7 36.9 C61.8 36.7 61.9 36.5 61.9 36.5 C62.0 36.5 62.0 36.4 62.0 36.3 C62.0 36.1 62.8 35.8 63.2 35.9 C63.3 36.0 63.4 35.9 63.4 35.7 C63.4 35.6 63.5 35.5 63.6 35.5 C63.8 35.5 63.8 35.5 63.8 35.3 C63.8 35.1 63.8 35.1 63.9 35.3 C64.0 35.5 64.0 35.5 64.0 35.3 C64.0 35.2 64.1 35.1 64.3 35.0 C64.4 35.0 64.5 34.9 64.5 34.8 C64.5 34.7 64.7 34.5 65.0 34.3 C65.4 34.1 65.5 34.2 65.5 34.4 C65.6 35.0 66.5 34.7 66.9 34.0 C67.1 33.6 67.5 33.3 67.9 33.3 C68.0 33.3 68.1 33.3 68.1 33.2 C68.1 33.1 68.2 33.1 68.3 33.1 C68.4 33.1 68.6 33.1 68.6 33.0 C68.6 33.0 68.7 32.9 68.8 32.9 C68.8 32.9 68.8 33.0 68.8 33.0 C68.8 33.1 68.8 33.1 68.9 33.1 C68.9 33.1 69.0 33.0 69.0 32.9 C69.0 32.8 69.1 32.7 69.3 32.7 C69.6 32.6 69.7 32.6 69.6 32.3 C69.6 32.0 69.6 32.0 70.1 32.0 C70.5 32.0 70.7 32.0 70.9 31.8 C71.0 31.7 71.1 31.5 71.1 31.4 C71.1 31.3 71.2 31.2 71.5 31.2 C71.8 31.2 71.9 31.2 71.9 30.8 C72.0 30.6 72.1 30.4 72.2 30.4 C72.4 30.3 72.4 30.3 72.4 30.2 C72.3 30.1 72.4 29.6 72.5 29.6 C72.6 29.7 72.7 29.5 72.7 29.3 C72.8 29.0 72.8 29.0 72.8 29.2 C72.8 29.5 73.0 29.5 73.0 29.3 C73.0 29.1 73.3 28.7 73.4 28.7 C73.5 28.7 73.7 28.6 73.8 28.5 C73.9 28.4 74.1 28.3 74.3 28.3 C74.4 28.4 74.5 28.4 74.6 28.3 C74.6 28.2 74.6 28.2 74.6 28.3 C74.6 28.4 74.8 28.4 75.0 28.4 C75.2 28.4 75.5 28.5 75.7 28.5 C76.0 28.6 76.1 28.6 76.1 28.5 C76.1 28.3 76.2 28.3 76.8 28.4 C77.8 28.4 78.1 28.5 78.2 28.7 C78.2 28.9 78.3 28.9 78.3 28.8 C78.4 28.8 78.4 28.9 78.5 29.1 C78.5 29.3 78.6 29.5 78.6 29.5 C78.8 29.5 78.8 30.5 78.6 30.6 C78.5 30.6 78.4 30.7 78.4 30.8 C78.4 30.9 78.4 30.9 78.3 30.9 C78.3 30.9 78.2 31.0 78.2 31.1 C78.1 31.3 78.0 31.3 78.0 31.3 C77.9 31.3 77.9 31.3 77.9 31.4 C77.9 31.5 77.8 31.5 77.7 31.5 C77.6 31.4 77.5 31.7 77.6 32.0 C77.6 32.1 77.4 32.1 77.3 32.0 C77.3 31.9 77.3 31.9 77.3 32.1 C77.3 32.2 77.2 32.3 77.1 32.2 C77.0 32.2 76.9 32.3 76.9 32.3 C76.9 32.4 76.8 32.5 76.7 32.5 C76.6 32.5 76.5 32.6 76.5 32.6 C76.5 32.7 76.4 32.7 76.2 32.7 C75.9 32.7 75.8 32.8 75.8 32.8 C75.9 32.9 75.5 33.2 75.3 33.2 C75.1 33.2 75.1 33.3 75.1 33.4 C75.1 33.6 74.6 34.0 74.5 33.9 C74.5 33.9 74.4 34.0 74.4 34.2 C74.4 34.4 74.4 34.5 74.3 34.5 C74.3 34.5 74.2 34.7 74.2 34.9 C74.1 35.1 74.1 35.4 74.0 35.5 C73.9 35.6 73.9 35.7 73.9 35.8 C73.9 35.9 73.8 36.0 73.7 36.0 C73.6 36.0 73.6 36.0 73.7 36.1 C73.8 36.1 73.8 36.2 73.7 36.2 C73.6 36.2 73.5 36.4 73.4 36.6 C73.4 36.8 73.3 36.9 73.2 36.9 C73.1 36.9 72.2 37.9 72.0 38.3 C71.9 38.5 71.6 38.8 71.4 39.0 C71.1 39.2 71.0 39.4 70.7 40.3 C70.6 40.9 70.3 41.5 70.2 41.7 C70.1 41.9 69.8 42.4 69.6 43.0 C69.4 43.6 69.2 44.0 68.9 44.3 C68.6 44.6 68.5 44.8 68.5 45.0 C68.5 45.2 68.5 45.5 68.4 45.5 C68.3 45.6 68.2 45.7 68.2 45.8 C68.2 45.9 68.2 45.9 68.0 45.9 C67.9 45.9 67.8 45.9 67.8 46.0 C67.8 46.2 67.4 46.7 67.3 46.6 C67.3 46.6 67.3 46.7 67.3 46.8 C67.3 47.1 66.8 47.8 66.2 48.2 C65.9 48.4 65.7 48.7 65.5 49.1 C65.3 49.5 65.2 49.7 65.2 49.7 C65.1 49.6 65.0 49.9 64.9 50.4 C64.9 50.5 64.8 50.7 64.7 50.7 C64.5 50.8 64.4 51.0 64.4 51.2 C64.4 51.3 64.4 51.3 64.3 51.3 C64.2 51.2 64.1 51.3 64.1 51.5 C64.1 51.7 64.1 51.7 64.1 51.6 C64.0 51.5 64.0 51.4 63.9 51.5 C63.8 51.6 63.7 51.7 63.6 51.8 C63.5 51.9 63.2 51.9 62.9 51.9 C62.4 51.9 62.4 51.9 62.3 52.5 C62.3 52.7 62.3 52.9 62.2 52.9 C62.2 52.9 62.1 53.0 62.1 53.2 L62.1 53.5 L62.0 53.2 C62.0 52.9 62.0 52.9 61.9 53.4 C61.8 53.7 61.8 54.4 61.8 55.0 C61.7 55.8 61.7 56.1 61.5 56.3 C61.4 56.4 61.4 56.5 61.4 56.5 C61.4 56.5 61.4 56.6 61.4 56.6 C61.3 56.7 61.3 56.7 61.3 56.6 C61.3 56.4 61.0 56.5 61.0 56.7 C61.0 56.8 60.8 57.0 60.7 57.2 C60.4 57.4 60.3 57.6 60.3 57.9 C60.3 58.1 60.3 58.2 60.3 58.2 C60.1 58.2 59.9 58.9 59.8 59.6 C59.8 59.7 59.7 60.0 59.7 60.3 L59.6 60.8 L59.2 60.7 C59.0 60.7 58.7 60.7 58.7 60.8 C58.7 60.8 58.6 60.9 58.5 60.9 C58.3 60.8 58.1 60.9 58.1 61.0 C58.1 61.1 58.0 61.1 57.9 61.1 C57.7 61.1 57.7 61.2 57.6 61.4 C57.6 61.7 57.3 62.0 57.1 62.1 C56.8 62.2 55.2 63.7 55.0 64.0 C54.9 64.2 54.8 64.3 54.7 64.3 C54.6 64.2 54.6 64.2 54.6 64.3 C54.7 64.4 54.2 65.0 54.1 65.0 C53.9 65.0 52.1 66.8 51.9 67.2 C51.7 67.5 51.6 67.7 51.4 67.8 C51.3 68.0 51.2 68.1 51.2 68.2 C51.2 68.3 51.6 68.5 51.9 68.5 C52.2 68.5 52.3 68.6 52.2 68.7 C51.9 69.0 52.0 69.8 52.2 69.8 C52.4 69.8 52.4 69.8 52.2 69.9 C52.1 69.9 52.0 70.0 52.0 70.0 C52.0 70.0 52.0 70.2 51.9 70.5 C51.9 70.7 51.9 70.9 52.0 70.9 C52.0 70.9 52.0 70.9 52.0 71.0 C52.0 71.1 52.1 71.2 52.2 71.2 C52.3 71.2 52.4 71.2 52.4 71.3 C52.5 71.4 52.6 71.5 52.7 71.5 C52.9 71.6 52.9 71.6 52.8 71.7 C52.7 71.8 52.7 71.8 52.8 71.8 C52.8 71.8 52.9 71.9 52.9 72.0 C52.9 72.1 52.9 72.2 53.0 72.2 C53.1 72.2 53.1 72.3 53.0 72.3 C52.9 72.4 52.9 72.4 53.0 72.4 C53.1 72.4 53.1 72.6 53.1 73.0 C53.1 73.7 52.9 75.0 52.8 75.0 C52.7 75.0 52.7 75.0 52.7 75.2 C52.7 75.3 52.7 75.4 52.8 75.4 C52.9 75.4 52.9 75.4 52.8 75.5 C52.7 75.5 52.7 75.6 52.8 75.6 C52.9 75.6 52.9 76.9 52.8 77.0 C52.7 77.1 52.7 77.9 52.6 78.9 C52.6 80.3 52.6 80.6 52.7 80.6 C52.8 80.6 52.7 80.7 52.6 80.7 C52.4 80.8 52.4 80.8 52.7 80.8 C53.0 80.8 53.2 81.2 52.9 81.3 C52.8 81.4 52.7 81.8 52.9 81.8 C52.9 81.8 53.0 81.9 53.0 82.1 L53.0 82.4 L53.1 82.0 C53.1 81.8 53.2 81.8 53.3 82.4 C53.5 83.4 53.5 84.6 53.3 84.7 C53.2 84.8 53.2 84.8 53.3 84.8 C53.3 84.8 53.4 85.2 53.3 85.9 C53.3 86.8 53.3 87.0 53.4 87.0 C53.5 87.0 53.5 87.1 53.5 87.1 C53.3 87.2 53.1 87.9 53.2 88.1 C53.3 88.2 53.3 88.2 53.2 88.2 C53.2 88.2 53.1 88.2 53.1 88.3 C53.1 88.4 52.8 88.7 52.7 88.7 C52.6 88.7 52.6 88.8 52.6 88.9 C52.6 89.0 52.5 89.1 52.5 89.2 C52.5 89.2 52.5 89.4 52.5 89.5 C52.5 89.6 52.4 89.7 52.2 89.7 L51.9 89.7 L52.2 89.8 L52.5 89.8 L52.2 89.9 C52.1 89.9 51.9 89.9 51.9 90.0 C51.9 90.1 51.9 90.1 51.7 90.1 C51.6 90.1 51.5 90.1 51.5 90.2 C51.5 90.3 51.5 90.4 51.4 90.3 C51.4 90.3 51.3 90.2 51.4 90.2 C51.4 90.1 51.4 90.1 51.3 90.1 C51.2 90.1 51.2 90.5 51.2 90.7 C51.2 90.8 51.1 90.8 51.1 90.8 C51.0 90.8 50.9 90.9 50.9 91.0 C50.9 91.0 50.7 91.2 50.4 91.2 C50.1 91.3 49.8 91.4 49.8 91.5 C49.8 91.7 49.3 91.7 48.6 91.7 C48.0 91.6 47.6 91.8 47.6 92.1 C47.6 92.1 47.5 92.2 47.3 92.2 C46.6 92.4 46.6 92.4 46.6 92.7 L46.6 93.0 L46.1 93.0 C45.7 92.9 45.5 92.9 45.5 93.0 C45.5 93.1 45.5 93.1 45.4 93.1 C45.2 93.1 45.2 93.2 45.4 93.2 C45.6 93.3 45.6 93.3 45.4 93.3 C45.2 93.3 45.1 93.4 45.1 93.4 C45.1 93.5 45.0 93.5 44.9 93.5 C44.7 93.5 44.6 93.5 44.6 93.4 C44.6 93.4 44.5 93.3 44.4 93.3 C44.3 93.3 44.2 93.4 44.1 93.4 C44.0 93.6 43.7 93.6 43.6 93.3 C43.5 93.2 43.3 93.1 43.1 93.1 C43.0 93.0 42.9 93.0 42.9 92.9 C43.0 92.7 42.0 92.8 42.0 92.9 C42.0 93.0 41.6 93.0 41.2 93.0 C40.5 93.0 40.4 93.0 40.4 93.2 C40.4 93.4 40.3 93.4 40.1 93.4 C39.9 93.4 39.9 93.5 39.9 93.6 C39.9 93.8 39.8 93.9 39.6 93.8 C39.5 93.8 39.0 93.8 38.5 93.8 Z"/><path class="kp-line" fill-rule="evenodd" d="M27.9 90.5 C27.9 90.4 27.8 90.4 27.7 90.4 C27.7 90.4 27.6 90.3 27.5 90.1 C27.5 89.9 27.4 89.8 27.4 89.8 C27.3 89.8 27.2 89.3 27.2 88.8 C27.1 88.1 27.0 87.7 26.9 87.7 C26.8 87.6 26.7 84.5 26.9 84.4 C27.0 84.4 27.0 80.3 26.8 80.2 C26.8 80.2 26.7 80.1 26.7 79.9 C26.7 79.8 26.7 79.7 26.6 79.7 C26.6 79.7 26.5 79.4 26.5 79.2 C26.5 78.9 26.5 78.6 26.4 78.6 C26.4 78.6 26.3 78.4 26.3 78.1 C26.3 77.8 26.4 77.6 26.4 77.6 C26.5 77.6 26.5 77.5 26.5 77.3 C26.5 77.2 26.5 77.1 26.4 77.1 C26.4 77.1 26.3 76.9 26.3 76.8 C26.3 76.6 26.4 76.5 26.4 76.5 C26.6 76.5 26.7 75.1 26.5 75.1 C26.5 75.1 26.4 74.9 26.4 74.7 C26.4 74.5 26.4 74.3 26.3 74.4 C26.3 74.4 26.2 74.3 26.2 74.2 C26.2 74.1 26.2 74.0 26.1 74.0 C26.1 74.0 26.0 73.8 26.0 73.5 C26.0 73.2 26.0 72.9 26.0 72.9 C25.8 72.6 25.7 71.8 25.7 70.3 C25.7 69.3 25.7 68.6 25.6 68.6 C25.6 68.6 25.6 68.6 25.7 68.5 C25.8 68.5 25.8 68.4 25.7 68.4 C25.6 68.4 25.6 67.4 25.7 67.2 C25.8 67.1 25.8 66.3 25.8 65.1 C25.8 64.3 25.8 64.1 25.6 63.8 C25.4 63.5 25.3 63.2 25.3 63.1 C25.4 63.0 25.3 62.7 25.2 62.5 C25.0 61.9 24.9 61.6 25.0 61.2 C25.1 60.6 25.5 60.8 26.1 61.7 C26.2 61.9 26.5 62.2 26.7 62.3 C27.4 62.7 27.8 64.1 27.7 65.5 C27.5 66.7 27.6 68.1 27.7 69.3 C27.8 70.0 27.9 70.9 27.9 71.4 C28.0 72.0 28.1 72.7 28.2 73.0 C28.2 73.4 28.3 73.9 28.4 74.3 C28.5 74.7 28.6 75.3 28.6 75.7 C28.8 77.0 29.2 79.6 29.3 80.3 C29.4 81.2 29.3 87.4 29.1 88.4 C29.0 89.3 28.8 89.9 28.4 90.4 C28.2 90.6 27.9 90.7 27.9 90.5 Z M52.4 88.5 C51.8 88.1 51.7 87.9 51.6 86.5 C51.5 85.7 51.4 85.1 51.3 85.1 C51.3 85.0 51.2 84.8 51.1 84.6 C51.0 84.4 50.9 84.1 50.8 83.9 C50.7 83.7 50.6 82.9 50.6 81.1 C50.5 79.6 50.5 78.5 50.4 78.2 C50.2 77.7 50.2 77.7 49.8 77.7 C49.2 77.7 48.9 77.6 48.9 77.4 C48.9 77.3 48.8 77.2 48.7 77.1 C48.5 77.0 48.3 76.4 48.3 76.0 C48.3 75.8 48.2 75.6 48.1 75.5 C48.0 75.3 48.0 75.1 48.2 74.7 C48.3 74.1 48.4 73.9 48.6 73.5 C48.6 73.4 48.7 73.2 48.8 73.1 C48.8 73.0 49.0 72.8 49.1 72.8 C49.1 72.7 49.2 72.7 49.2 72.6 C49.2 72.5 49.3 72.5 49.4 72.5 C49.7 72.4 49.9 72.2 49.9 72.1 C49.9 72.0 50.0 71.9 50.1 71.9 C50.3 71.8 50.6 71.2 50.6 71.0 C50.6 70.8 49.5 69.8 48.8 69.3 C47.8 68.7 47.7 68.3 48.3 67.8 C49.7 66.4 50.0 66.2 50.6 66.0 C51.6 65.6 51.8 65.5 51.9 65.2 C52.0 65.0 52.2 64.8 52.4 64.6 C52.6 64.5 52.9 64.2 53.1 64.0 C53.4 63.7 53.7 63.4 53.8 63.2 C54.0 63.1 54.1 62.9 54.1 62.8 C54.1 62.6 54.7 62.1 55.2 61.9 C55.6 61.8 55.7 61.7 55.9 61.3 C56.0 60.9 56.2 60.7 56.4 60.7 C56.5 60.6 56.7 60.4 56.8 60.3 C56.9 60.1 56.9 59.6 56.8 59.6 C56.5 59.6 56.7 58.5 57.0 58.2 C57.3 58.0 57.3 56.3 57.0 56.0 C56.9 55.9 56.8 55.6 56.8 55.4 L56.7 54.9 L57.4 54.9 C57.8 54.9 58.2 54.9 58.2 55.0 C58.2 55.0 58.4 55.1 58.5 55.1 C58.6 55.1 58.7 55.2 58.7 55.2 C58.7 55.3 58.7 55.4 58.8 55.5 C58.9 55.6 59.0 55.8 59.0 55.9 C59.1 56.4 59.5 56.3 59.7 55.9 C59.9 55.7 60.0 55.5 60.1 55.5 C60.4 55.5 60.9 54.9 60.9 54.7 C60.9 54.6 60.8 54.3 60.7 54.0 C60.6 53.5 60.5 53.5 60.3 53.4 C59.9 53.3 59.8 53.1 59.8 52.5 C59.8 52.3 59.9 52.3 60.0 52.3 C60.1 52.3 60.2 52.2 60.2 52.1 C60.2 51.9 60.3 51.9 61.1 51.9 C61.4 51.9 61.7 51.9 61.7 52.0 C61.7 52.0 61.9 51.9 62.1 51.7 C62.2 51.6 62.6 51.3 62.8 51.2 C63.3 50.9 63.4 50.7 63.9 48.6 C64.0 48.3 64.2 48.1 64.5 47.9 C64.7 47.7 65.0 47.4 65.2 47.2 C65.4 46.9 65.6 46.6 65.8 46.6 C66.0 46.4 66.5 45.5 66.5 45.2 C66.5 45.1 66.8 44.8 67.0 44.5 C67.3 44.2 67.6 43.8 67.8 43.4 C67.9 43.1 68.2 42.6 68.4 42.4 C68.6 42.1 68.9 41.5 69.0 41.1 C69.1 40.8 69.3 40.2 69.5 40.0 C69.7 39.7 69.8 39.5 69.8 39.5 C69.8 39.3 71.1 37.7 71.9 36.8 C72.7 35.9 73.0 35.6 73.1 35.2 C73.3 34.7 73.3 34.6 73.7 34.5 C73.9 34.3 74.2 34.2 74.3 34.0 C74.4 33.8 75.1 33.4 75.1 33.5 C75.1 33.6 74.6 34.0 74.5 33.9 C74.5 33.9 74.4 34.0 74.4 34.2 C74.4 34.4 74.4 34.5 74.3 34.5 C74.3 34.5 74.2 34.7 74.2 34.9 C74.1 35.1 74.1 35.4 74.0 35.5 C73.9 35.6 73.9 35.7 73.9 35.8 C73.9 35.9 73.8 36.0 73.7 36.0 C73.6 36.0 73.6 36.0 73.7 36.1 C73.8 36.1 73.8 36.2 73.7 36.2 C73.6 36.2 73.5 36.4 73.4 36.6 C73.4 36.8 73.3 36.9 73.2 36.9 C73.1 36.9 72.2 37.9 72.0 38.3 C71.9 38.5 71.6 38.8 71.4 39.0 C71.1 39.2 71.0 39.4 70.7 40.3 C70.6 40.9 70.3 41.5 70.2 41.7 C70.1 41.9 69.8 42.4 69.6 43.0 C69.4 43.6 69.2 44.0 68.9 44.3 C68.6 44.6 68.5 44.8 68.5 45.0 C68.5 45.2 68.5 45.5 68.4 45.5 C68.3 45.6 68.2 45.7 68.2 45.8 C68.2 45.9 68.2 45.9 68.0 45.9 C67.9 45.9 67.8 45.9 67.8 46.0 C67.8 46.2 67.4 46.7 67.3 46.6 C67.3 46.6 67.3 46.7 67.3 46.8 C67.3 47.1 66.8 47.8 66.2 48.2 C65.9 48.4 65.7 48.7 65.5 49.1 C65.3 49.5 65.2 49.7 65.2 49.7 C65.1 49.6 65.0 49.9 64.9 50.4 C64.9 50.5 64.8 50.7 64.7 50.7 C64.5 50.8 64.4 51.0 64.4 51.2 C64.4 51.3 64.4 51.3 64.3 51.3 C64.2 51.2 64.1 51.3 64.1 51.5 C64.1 51.7 64.1 51.7 64.1 51.6 C64.0 51.5 64.0 51.4 63.9 51.5 C63.8 51.6 63.7 51.7 63.6 51.8 C63.5 51.9 63.2 51.9 62.9 51.9 C62.4 51.9 62.4 51.9 62.3 52.5 C62.3 52.7 62.3 52.9 62.2 52.9 C62.2 52.9 62.1 53.0 62.1 53.2 L62.1 53.5 L62.0 53.2 C62.0 52.9 62.0 52.9 61.9 53.4 C61.8 53.7 61.8 54.4 61.8 55.0 C61.7 55.7 61.6 56.1 61.6 56.3 C61.5 56.3 61.4 56.4 61.4 56.5 C61.4 56.5 61.4 56.6 61.4 56.6 C61.3 56.7 61.3 56.7 61.3 56.6 C61.3 56.4 61.0 56.5 61.0 56.7 C61.0 56.8 60.8 57.0 60.7 57.2 C60.4 57.4 60.3 57.6 60.3 57.9 C60.3 58.1 60.3 58.2 60.3 58.2 C60.1 58.2 59.9 58.9 59.8 59.6 C59.8 59.7 59.7 60.0 59.7 60.3 L59.6 60.8 L59.2 60.7 C59.0 60.7 58.7 60.7 58.7 60.8 C58.7 60.8 58.6 60.9 58.5 60.9 C58.3 60.8 58.1 60.9 58.1 61.0 C58.1 61.1 58.0 61.1 57.9 61.1 C57.7 61.1 57.7 61.2 57.6 61.4 C57.6 61.7 57.3 62.0 57.1 62.1 C56.8 62.2 55.2 63.7 55.0 64.0 C54.9 64.2 54.8 64.3 54.7 64.3 C54.6 64.2 54.6 64.2 54.6 64.3 C54.7 64.4 54.2 65.0 54.1 65.0 C53.9 65.0 52.1 66.8 51.9 67.2 C51.7 67.5 51.6 67.7 51.4 67.8 C51.3 68.0 51.2 68.1 51.2 68.2 C51.2 68.3 51.6 68.5 51.9 68.5 C52.2 68.5 52.3 68.6 52.2 68.7 C51.9 69.0 52.0 69.8 52.2 69.8 C52.4 69.8 52.4 69.8 52.2 69.9 C52.1 69.9 52.0 70.0 52.0 70.1 C52.0 70.1 52.0 70.3 51.9 70.5 C51.9 70.7 51.9 70.9 52.0 70.9 C52.0 70.9 52.0 70.9 52.0 71.0 C52.0 71.1 52.1 71.2 52.2 71.2 C52.3 71.2 52.4 71.2 52.4 71.3 C52.5 71.4 52.6 71.5 52.7 71.5 C52.9 71.6 52.9 71.6 52.8 71.7 C52.7 71.8 52.7 71.8 52.8 71.8 C52.8 71.8 52.9 71.9 52.9 72.0 C52.9 72.1 52.9 72.2 53.0 72.2 C53.1 72.2 53.1 72.3 53.0 72.3 C52.9 72.4 52.9 72.4 53.0 72.4 C53.1 72.4 53.1 72.6 53.1 73.0 C53.1 73.7 52.9 75.0 52.8 75.0 C52.7 75.0 52.7 75.0 52.7 75.2 C52.7 75.3 52.7 75.4 52.8 75.4 C52.9 75.4 52.9 75.4 52.8 75.5 C52.7 75.5 52.7 75.6 52.8 75.6 C52.9 75.6 52.9 76.9 52.8 77.0 C52.7 77.1 52.7 77.9 52.6 78.9 C52.6 80.3 52.6 80.6 52.7 80.6 C52.8 80.6 52.7 80.7 52.6 80.7 C52.4 80.8 52.4 80.8 52.7 80.8 C53.0 80.8 53.2 81.2 52.9 81.3 C52.8 81.4 52.7 81.8 52.9 81.8 C52.9 81.8 53.0 81.9 53.0 82.1 L53.0 82.4 L53.1 82.0 C53.1 81.8 53.2 81.8 53.3 82.4 C53.5 83.4 53.5 84.6 53.3 84.7 C53.2 84.8 53.2 84.8 53.3 84.8 C53.3 84.8 53.4 85.2 53.3 85.9 C53.3 86.8 53.3 87.0 53.4 87.0 C53.5 87.0 53.5 87.1 53.5 87.1 C53.3 87.2 53.1 87.9 53.2 88.1 C53.3 88.2 53.3 88.2 53.2 88.2 C53.2 88.2 53.1 88.3 53.1 88.3 C53.1 88.6 52.7 88.7 52.4 88.5 Z M40.7 61.2 C40.4 61.1 39.6 61.1 39.0 61.1 C37.9 61.0 37.9 61.0 36.9 60.5 L35.9 60.0 L35.3 60.1 C32.3 60.8 32.2 60.8 30.9 60.2 C30.1 59.7 29.9 59.6 29.6 59.1 C29.0 58.2 28.5 57.5 28.2 57.2 C28.0 57.0 27.7 56.4 27.5 55.9 C27.2 55.4 26.9 54.9 26.7 54.7 C26.2 54.2 26.0 53.9 25.8 53.2 C25.7 52.7 25.5 52.4 24.7 51.6 C24.2 51.1 23.7 50.5 23.6 50.3 C23.3 49.4 23.1 49.0 22.7 48.6 C22.1 47.9 21.5 46.8 21.9 47.1 C22.0 47.1 22.0 46.9 22.0 46.5 C21.9 46.0 21.9 45.8 22.0 46.0 C22.1 46.1 22.1 45.9 22.1 45.3 C22.0 44.5 22.0 44.5 22.2 44.7 C22.3 44.8 22.6 45.0 23.0 45.1 C24.1 45.3 24.4 45.7 24.9 47.1 C25.0 47.4 25.3 47.9 25.6 48.2 C26.5 49.5 26.7 49.8 27.1 50.7 C27.4 51.2 27.7 51.8 28.0 52.0 C28.2 52.2 28.5 52.7 28.7 53.1 C28.8 53.4 29.2 53.9 29.4 54.2 C29.7 54.6 29.9 54.9 30.0 55.4 C30.2 56.5 30.5 56.8 31.9 57.6 C32.7 58.0 33.0 58.0 33.3 57.7 C33.5 57.5 33.5 57.3 33.5 55.5 C33.5 53.5 33.5 53.4 33.2 53.0 C33.1 52.7 32.9 52.5 32.9 52.4 C32.8 52.3 32.7 52.0 32.6 51.7 C32.5 51.3 32.4 50.9 32.4 50.6 C32.3 50.4 32.2 50.1 32.1 49.9 C32.1 49.7 32.0 49.4 31.8 49.3 C31.7 49.2 31.5 48.8 31.3 48.5 C31.2 48.2 30.8 47.6 30.5 47.3 C30.2 46.9 30.0 46.5 29.9 46.4 C29.9 46.3 29.6 45.6 29.3 44.9 C28.9 43.9 28.7 43.3 28.5 42.3 C28.4 41.6 28.2 41.0 28.2 40.9 C28.0 40.6 26.4 39.4 25.9 39.3 C25.5 39.1 25.5 39.1 25.5 38.7 C25.5 38.3 25.5 38.3 25.9 38.2 C26.2 38.1 26.4 38.0 26.4 37.9 C26.4 37.8 26.5 37.7 26.5 37.6 C26.6 37.5 26.6 37.3 26.7 37.2 C26.7 37.1 26.7 37.1 26.8 37.3 C26.9 37.6 26.9 37.6 27.0 37.3 C27.0 37.0 27.1 36.9 27.2 37.0 C27.3 37.0 27.4 37.0 27.4 36.9 C27.4 36.8 27.4 36.7 27.4 36.7 C27.8 36.7 28.0 36.6 28.1 36.4 C28.2 36.3 28.4 36.2 28.5 36.3 C28.6 36.3 28.7 36.3 28.7 36.2 C28.7 36.1 28.8 36.1 28.8 36.1 C28.9 36.2 29.0 36.1 29.0 36.1 C29.0 36.0 29.1 36.0 29.3 36.0 C29.4 36.0 29.5 35.9 29.5 35.8 C29.5 35.7 29.5 35.7 29.6 35.7 C29.6 35.8 29.7 35.8 29.8 35.7 C29.9 35.5 30.3 35.4 30.3 35.4 C30.4 35.5 30.3 35.7 30.2 35.9 C29.8 36.5 29.8 36.8 29.9 37.8 C30.1 38.8 30.2 39.1 30.8 40.4 C31.0 40.9 31.3 41.5 31.4 41.8 C31.4 42.1 31.7 42.6 31.8 43.0 C32.0 43.4 32.3 44.3 32.5 44.9 C32.7 46.0 32.8 46.1 33.2 46.6 C33.5 46.9 33.8 47.4 34.0 47.7 C34.1 48.0 34.3 48.5 34.5 48.7 C34.7 49.0 34.8 49.4 35.0 50.7 C35.1 51.5 35.5 52.4 35.9 52.7 C36.3 53.1 36.7 54.1 36.9 55.6 C37.1 56.4 37.2 56.7 38.2 58.2 C38.5 58.7 39.4 59.3 39.8 59.3 C40.5 59.3 41.2 59.0 41.9 58.6 C42.7 58.0 42.8 57.7 42.6 56.3 C42.5 55.4 42.4 55.2 42.1 54.7 C41.9 54.4 41.7 54.0 41.5 53.7 C41.4 53.3 41.1 53.0 40.7 52.6 C40.1 52.1 40.1 52.0 39.7 50.9 C39.5 50.3 39.3 49.6 39.3 49.3 C39.2 49.1 39.2 48.6 39.1 48.3 C39.0 48.0 38.9 47.7 38.9 47.5 C38.8 47.4 38.6 47.0 38.4 46.8 C38.2 46.5 37.9 46.1 37.8 45.8 C37.5 44.8 37.3 44.4 37.0 44.1 C36.6 43.6 36.1 42.8 35.8 42.4 C35.7 42.2 35.7 41.8 35.7 41.5 C35.7 40.9 35.5 40.2 35.3 39.2 C35.0 38.2 34.8 37.8 34.3 37.2 C34.1 36.9 33.8 36.5 33.7 36.4 C33.7 36.2 33.5 35.7 33.3 35.4 C33.1 34.9 32.9 34.7 32.8 34.6 C32.5 34.6 32.5 34.6 32.7 34.4 C32.8 34.3 32.8 34.2 32.8 34.2 C32.8 34.2 33.0 34.1 33.1 34.0 C33.3 33.9 33.5 33.8 33.5 33.8 C33.5 33.6 33.7 33.3 33.9 33.3 C34.0 33.3 34.0 33.2 34.0 33.0 C34.0 32.9 34.0 32.8 34.1 32.8 C34.2 32.8 34.3 32.8 34.3 32.7 C34.3 32.6 34.4 32.5 34.4 32.4 C34.6 32.3 34.6 32.3 34.6 32.5 C34.7 32.6 34.7 32.6 34.7 32.4 C34.7 32.2 34.8 32.0 35.0 31.8 L35.2 31.5 L35.2 31.8 C35.2 32.2 35.3 32.1 35.4 31.7 C35.4 31.5 35.5 31.3 35.5 31.3 C35.6 31.3 35.7 31.3 35.7 31.2 C35.7 31.0 35.7 30.9 35.8 30.8 C35.9 30.7 36.0 30.6 36.0 30.5 C36.0 30.4 36.0 30.3 36.1 30.3 C36.1 30.3 36.2 30.2 36.2 30.2 C36.2 30.1 36.3 29.9 36.4 29.8 C36.6 29.6 36.7 29.6 36.7 29.6 C36.7 29.6 36.9 29.6 37.1 29.5 C37.6 29.2 37.6 29.2 37.7 29.7 C37.8 30.3 37.6 30.7 36.7 31.2 C36.6 31.3 36.4 31.7 36.2 32.0 L36.0 32.6 L36.4 33.5 C36.6 34.0 37.0 34.6 37.2 34.9 C37.5 35.1 37.7 35.4 37.7 35.4 C37.7 35.5 37.8 36.2 38.0 37.0 C38.2 38.1 38.4 38.7 38.7 39.3 C39.1 40.0 39.1 40.3 39.2 41.2 C39.3 42.2 39.4 42.4 39.9 43.4 C40.1 44.0 40.4 44.6 40.4 44.8 C40.5 45.5 41.0 46.2 41.4 46.5 C42.1 47.0 42.3 47.5 42.5 48.7 C42.7 49.6 42.8 49.9 43.2 50.7 C43.4 51.2 43.8 51.7 43.9 51.8 C44.1 51.9 44.3 52.1 44.4 52.2 C44.7 52.7 45.5 52.8 46.4 52.5 C47.0 52.2 47.2 50.9 46.8 49.2 C46.7 48.0 46.5 47.6 46.0 47.1 C45.6 46.6 45.3 46.0 45.3 45.2 C45.3 44.4 45.1 43.5 44.8 42.7 C44.7 42.5 44.5 41.9 44.5 41.5 C44.4 40.5 44.0 38.7 43.7 37.8 C43.6 37.3 43.5 36.9 43.6 36.2 C43.6 35.3 43.5 35.1 43.3 34.3 C43.1 33.9 42.8 33.2 42.7 32.8 C42.4 31.8 42.0 31.2 41.5 31.0 C41.3 30.9 40.8 30.5 40.4 30.2 C40.0 29.8 39.7 29.5 39.4 29.5 C39.0 29.4 38.7 29.2 39.0 29.3 C39.4 29.3 39.6 29.2 39.7 29.0 C39.7 28.8 39.7 28.8 39.7 29.1 C39.8 29.2 39.8 29.4 39.8 29.4 C39.9 29.4 39.9 29.2 39.9 29.1 C39.9 28.9 39.9 28.8 40.0 28.8 C40.0 28.8 40.1 28.8 40.2 28.8 C40.2 28.8 40.3 28.9 40.3 29.1 L40.4 29.4 L40.4 29.1 L40.4 28.8 L40.6 29.0 C40.7 29.2 40.8 29.2 40.9 29.1 C40.9 29.0 40.9 29.0 41.0 29.1 C41.0 29.3 41.3 29.2 41.3 29.0 C41.3 28.7 41.6 28.8 41.9 29.2 C42.2 29.5 42.3 29.5 42.7 29.4 C43.9 29.0 43.9 29.0 43.8 27.3 L43.7 26.0 L44.2 25.9 C44.5 25.8 44.8 25.7 44.8 25.6 C44.9 25.4 45.0 25.4 45.0 25.4 C45.0 25.4 45.1 25.4 45.2 25.3 C45.3 25.2 45.4 25.1 45.4 25.0 C45.3 25.0 45.4 24.9 45.5 24.8 C45.7 24.8 45.7 24.7 45.7 24.6 C45.7 24.4 46.0 23.7 46.1 23.9 C46.1 23.9 46.3 24.3 46.4 24.6 C46.5 25.0 46.8 25.5 46.9 25.7 C47.0 26.0 47.2 26.3 47.2 26.6 C47.3 26.8 47.4 27.0 47.5 27.2 C47.7 27.3 47.7 27.5 47.7 28.1 C47.7 28.5 47.7 28.8 47.6 28.8 C47.6 28.8 47.5 28.9 47.5 29.0 C47.4 29.1 47.2 29.4 46.9 29.6 C46.2 30.0 46.2 30.2 46.6 31.6 C46.8 32.5 46.9 33.1 46.9 33.9 C47.1 36.5 47.4 38.3 48.0 39.4 C48.1 39.6 48.2 40.2 48.3 40.7 C48.6 42.6 48.9 43.7 49.2 44.3 C49.4 44.7 49.5 45.2 49.6 45.6 C49.7 46.7 50.0 47.8 50.2 48.2 C50.5 48.7 51.0 49.3 51.2 49.3 C51.4 49.3 51.4 49.8 51.3 50.1 C51.1 50.5 51.0 50.7 50.7 51.9 C50.3 53.7 50.0 54.1 49.0 54.7 C48.2 55.2 47.9 55.4 47.0 56.3 C46.5 56.8 46.4 57.0 46.1 57.7 C46.0 58.1 45.8 58.7 45.7 58.8 C45.5 59.2 43.5 60.7 42.8 61.1 C42.4 61.3 41.7 61.3 40.7 61.2 Z M22.8 56.9 C22.8 56.8 22.7 56.6 22.6 56.6 C22.5 56.5 22.4 56.3 22.4 56.2 C22.4 56.0 22.4 55.9 22.3 55.9 C22.1 55.9 22.1 55.8 22.1 54.1 C22.1 53.2 22.1 53.1 22.3 53.8 C22.4 54.7 22.7 55.7 22.9 55.9 C23.1 56.3 23.2 57.0 23.0 57.0 C22.9 57.0 22.8 56.9 22.8 56.9 Z M21.8 52.7 C21.7 52.6 21.7 52.0 21.7 52.0 C21.8 52.0 21.8 52.2 21.9 52.4 C21.9 52.6 22.0 52.7 21.9 52.7 C21.8 52.7 21.8 52.7 21.8 52.7 Z M56.4 43.5 C56.0 43.0 55.9 42.8 55.6 41.7 C55.5 41.0 55.3 40.7 55.1 40.4 C54.9 40.2 54.7 39.8 54.6 39.5 C54.4 39.2 54.2 38.8 54.0 38.5 C53.8 38.2 53.7 37.9 53.6 37.4 C53.6 37.0 53.5 36.4 53.4 36.1 C53.3 35.7 53.2 35.1 53.2 34.0 C53.2 33.1 53.1 32.3 53.0 31.9 C52.9 31.3 52.8 29.9 52.9 29.0 C52.9 28.8 52.8 28.5 52.5 28.2 C52.3 27.9 52.2 27.6 52.2 27.5 C52.2 27.4 52.1 27.2 52.0 27.2 C51.9 27.0 51.9 26.3 52.0 24.0 C52.1 22.5 52.1 22.3 51.8 21.3 C51.7 20.7 51.6 19.8 51.6 19.3 C51.5 18.6 51.4 18.3 51.3 18.1 C50.9 17.6 50.4 16.5 50.4 16.2 C50.4 16.1 50.3 16.0 50.3 16.0 C50.2 16.0 50.2 15.9 50.2 15.8 C50.2 15.6 50.2 15.5 50.2 15.5 C50.3 15.5 50.4 15.2 50.4 14.9 C50.4 14.6 50.5 13.9 50.6 13.4 C50.7 12.8 50.7 11.9 50.7 11.4 C50.7 10.4 50.7 10.3 50.3 9.5 C50.0 9.0 49.8 8.5 49.8 8.3 C49.7 7.8 49.3 6.7 49.2 6.5 C49.1 6.3 49.1 6.2 49.2 6.2 C49.3 6.2 49.3 6.3 49.3 6.4 C49.3 6.6 49.3 6.6 49.4 6.4 C49.5 6.2 49.5 6.3 49.5 6.6 C49.5 6.8 49.6 7.1 49.6 7.2 C49.7 7.4 49.7 7.4 49.8 7.1 C49.8 6.9 49.8 6.7 49.8 6.7 C49.8 6.6 49.9 6.5 50.0 6.5 C50.1 6.5 50.2 6.5 50.2 6.6 C50.2 6.8 50.2 6.8 50.3 6.6 C50.3 6.5 50.4 6.4 50.4 6.6 C50.4 6.7 50.5 6.8 50.7 6.9 C50.9 7.0 51.0 7.0 50.9 7.1 C50.9 7.1 50.8 7.2 50.9 7.3 C50.9 7.4 50.8 7.5 50.7 7.6 C50.6 7.7 50.6 7.8 50.7 7.8 C50.7 7.8 50.8 7.9 50.8 8.0 C50.8 8.1 50.8 8.1 50.9 8.1 C51.0 8.1 51.0 8.2 51.0 8.4 C51.0 8.5 51.1 8.7 51.2 8.8 C51.3 8.8 51.4 9.0 51.4 9.1 C51.4 9.3 51.7 10.1 51.8 10.1 C51.9 10.1 51.9 10.4 51.9 10.7 C51.9 11.1 51.9 11.2 51.7 11.2 C51.5 11.2 51.5 11.2 51.6 11.3 C51.8 11.4 51.8 11.4 51.6 11.4 C51.5 11.4 51.5 11.4 51.6 11.5 C51.7 11.6 51.7 11.6 51.6 11.6 C51.6 11.6 51.5 11.8 51.5 12.0 C51.4 12.3 51.4 12.3 51.7 12.4 L52.0 12.5 L51.9 13.5 C51.9 14.3 51.9 14.7 52.0 14.9 C52.2 15.5 52.3 15.9 52.3 16.6 C52.3 17.2 52.3 17.3 52.6 17.6 L52.9 17.9 L52.9 20.1 C53.0 22.0 53.0 22.3 53.1 22.3 C53.3 22.4 53.4 22.9 53.2 22.9 C53.1 22.9 53.1 23.0 53.1 23.2 C53.1 23.3 53.2 23.4 53.3 23.4 C53.3 23.4 53.4 23.4 53.4 23.5 C53.4 23.6 53.5 23.7 53.6 23.8 C53.7 23.9 53.8 23.9 53.8 24.0 C53.7 24.1 53.8 24.2 53.9 24.3 C54.0 24.4 54.1 24.6 54.1 24.6 C54.1 24.9 54.4 27.3 54.4 27.7 C54.5 28.0 54.5 28.1 54.4 28.1 C54.3 28.1 54.3 28.2 54.3 28.4 C54.3 28.6 54.4 29.3 54.4 30.0 C54.4 31.1 54.5 31.3 54.6 31.4 C54.8 31.5 54.8 31.7 54.7 32.2 C54.7 32.6 54.7 32.8 54.8 32.8 C54.8 32.8 54.9 32.9 54.9 33.1 C54.9 33.2 54.9 33.3 55.0 33.3 C55.0 33.3 55.1 33.6 55.1 33.8 C55.1 34.5 55.4 35.1 55.6 35.1 C55.7 35.1 55.8 35.2 55.8 35.3 C55.8 35.4 55.9 35.5 56.0 35.6 C56.2 35.7 56.3 35.9 56.3 36.4 C56.4 36.4 56.5 36.5 56.6 36.6 C56.7 36.6 56.8 36.7 56.8 36.8 C56.8 37.0 56.8 37.0 56.9 37.0 C57.0 36.9 57.1 37.0 57.1 37.0 C57.2 37.2 57.2 37.2 57.2 37.0 C57.2 36.9 57.2 36.9 57.4 37.1 C57.5 37.2 57.5 37.4 57.5 37.8 C57.5 38.3 57.6 38.6 57.8 38.9 C58.1 39.4 58.4 39.5 59.2 39.0 C59.9 38.6 59.9 38.6 59.9 38.8 C59.9 39.1 60.1 39.0 60.2 38.6 C60.2 38.4 60.4 38.2 60.5 38.2 C60.6 38.1 60.8 38.0 60.8 37.8 C60.8 37.7 60.9 37.7 61.0 37.7 C61.0 37.7 61.1 37.7 61.1 37.6 C61.2 37.5 61.2 37.5 61.3 37.5 C61.4 37.5 61.4 37.5 61.4 37.4 C61.4 37.3 61.4 37.3 61.5 37.3 C61.5 37.3 61.6 37.2 61.7 37.1 C61.7 36.9 61.9 36.6 62.1 36.4 C62.4 36.0 62.5 35.9 62.9 35.9 C63.3 35.9 63.4 35.9 63.4 35.7 C63.4 35.6 63.5 35.5 63.6 35.5 C63.8 35.5 63.8 35.5 63.8 35.3 C63.8 35.1 63.8 35.1 63.9 35.3 C64.0 35.5 64.0 35.5 64.0 35.3 C64.0 35.2 64.1 35.1 64.3 35.0 C64.4 35.0 64.5 34.9 64.5 34.8 C64.5 34.7 64.7 34.5 65.0 34.3 C65.4 34.1 65.5 34.2 65.5 34.4 C65.6 35.0 66.5 34.7 66.9 34.0 C67.1 33.6 67.5 33.3 67.9 33.3 C68.0 33.3 68.1 33.3 68.1 33.2 C68.1 33.1 68.2 33.1 68.3 33.1 C68.4 33.1 68.6 33.1 68.6 33.0 C68.6 33.0 68.7 32.9 68.8 32.9 C68.8 32.9 68.8 33.0 68.8 33.0 C68.8 33.1 68.8 33.1 68.9 33.1 C68.9 33.1 69.0 33.0 69.0 32.9 C69.0 32.8 69.1 32.7 69.3 32.7 C69.6 32.6 69.7 32.6 69.6 32.3 C69.6 32.0 69.6 32.0 70.1 32.0 C70.5 32.0 70.7 32.0 70.9 31.8 C71.0 31.7 71.1 31.5 71.1 31.4 C71.1 31.3 71.2 31.2 71.5 31.2 C71.8 31.2 71.9 31.2 71.9 30.8 C72.0 30.6 72.1 30.4 72.2 30.4 C72.4 30.3 72.4 30.3 72.4 30.2 C72.3 30.1 72.4 29.6 72.5 29.6 C72.6 29.7 72.7 29.5 72.7 29.3 C72.8 29.0 72.8 29.0 72.8 29.2 C72.8 29.5 73.0 29.5 73.0 29.3 C73.0 29.1 73.3 28.7 73.4 28.7 C73.5 28.7 73.7 28.6 73.8 28.5 C73.9 28.4 74.1 28.3 74.3 28.3 C74.4 28.4 74.5 28.4 74.6 28.3 C74.6 28.2 74.6 28.2 74.6 28.3 C74.6 28.4 74.8 28.4 75.0 28.4 C75.2 28.4 75.5 28.5 75.6 28.5 C75.7 28.6 75.7 28.6 75.6 28.6 C75.5 28.6 74.8 28.9 74.0 29.3 C72.7 30.0 72.6 30.0 72.4 30.5 C72.3 30.7 72.0 31.1 71.8 31.3 C71.4 31.7 71.4 32.0 71.8 32.1 C71.9 32.2 72.0 32.3 72.0 32.3 C72.0 32.4 72.1 32.4 72.2 32.4 C72.4 32.4 72.6 32.8 72.6 33.2 C72.5 33.4 72.4 33.5 72.2 33.5 C72.0 33.6 71.9 33.7 71.9 33.7 C71.9 33.9 71.8 33.9 71.6 33.8 C71.5 33.8 71.4 33.8 71.4 33.9 C71.4 33.9 70.9 34.0 70.2 34.0 C69.1 34.1 69.0 34.1 68.6 34.5 C68.3 34.7 68.0 34.9 67.8 35.0 C67.5 35.1 65.7 36.8 65.6 37.2 C65.5 37.4 65.3 37.6 65.0 37.8 C64.7 38.0 64.3 38.3 64.0 38.6 C62.9 40.0 62.1 40.6 61.4 40.6 C61.0 40.6 60.7 40.9 60.5 41.5 C60.3 41.8 60.1 42.1 59.4 42.6 C58.3 43.4 58.1 43.5 57.5 43.7 C56.8 43.9 56.7 43.9 56.4 43.5 Z M76.1 32.6 C76.1 32.5 76.3 32.3 76.5 32.2 C76.9 32.0 78.2 30.8 78.4 30.4 C78.5 30.3 78.5 30.0 78.5 29.8 C78.5 29.6 78.6 29.5 78.6 29.5 C78.8 29.5 78.8 30.5 78.6 30.6 C78.5 30.6 78.4 30.7 78.4 30.8 C78.4 30.9 78.4 30.9 78.3 30.9 C78.3 30.9 78.2 31.0 78.2 31.1 C78.1 31.3 78.0 31.3 78.0 31.3 C77.9 31.3 77.9 31.3 77.9 31.4 C77.9 31.5 77.8 31.5 77.7 31.5 C77.6 31.4 77.5 31.7 77.6 32.0 C77.6 32.1 77.4 32.1 77.3 32.0 C77.3 31.9 77.3 31.9 77.3 32.1 C77.3 32.2 77.2 32.3 77.1 32.2 C77.0 32.2 76.9 32.3 76.9 32.3 C76.9 32.4 76.8 32.5 76.7 32.5 C76.6 32.5 76.5 32.6 76.5 32.6 C76.5 32.7 76.4 32.7 76.3 32.7 C76.1 32.7 76.0 32.7 76.1 32.6 Z M49.6 29.2 C49.5 29.1 49.2 29.0 49.1 29.0 C48.9 29.0 48.8 29.0 48.8 28.9 C48.8 28.9 48.7 28.8 48.6 28.8 C48.4 28.8 48.4 28.8 48.4 28.2 C48.4 27.7 48.4 27.6 48.6 27.6 C48.7 27.6 48.8 27.5 48.8 27.4 C48.9 27.3 49.0 27.3 49.0 27.3 C49.1 27.3 49.2 27.2 49.3 27.0 C49.4 26.9 49.5 26.8 49.6 26.8 C49.6 26.8 49.8 26.7 49.8 26.6 C49.9 26.5 50.1 26.4 50.1 26.4 C50.2 26.4 50.3 26.4 50.3 26.3 C50.3 26.3 50.4 26.2 50.5 26.2 C50.9 26.2 51.1 27.2 50.8 27.8 C50.8 28.1 50.7 28.4 50.7 28.5 C50.7 29.2 50.2 29.5 49.6 29.2 Z M46.0 18.8 C46.1 18.1 46.0 17.9 45.9 17.9 C45.8 17.9 45.8 17.8 45.8 17.7 C45.8 17.6 45.8 17.5 45.7 17.5 C45.7 17.5 45.6 17.3 45.6 17.1 C45.6 16.8 45.6 16.6 45.5 16.6 C45.4 16.5 45.3 16.4 45.3 16.3 C45.3 16.1 45.3 16.1 45.1 16.2 C44.9 16.2 44.9 16.2 44.9 15.9 C44.9 15.7 45.0 15.5 45.1 15.5 C45.2 15.5 45.3 15.4 45.4 15.2 C45.4 15.1 45.6 14.8 45.7 14.7 C46.0 14.4 46.0 14.4 46.0 13.8 C45.9 13.6 46.0 13.4 46.1 13.4 C46.1 13.4 46.2 13.5 46.2 13.7 C46.2 14.4 46.5 15.0 47.0 15.1 C47.2 15.1 47.7 16.0 47.5 16.2 C47.5 16.2 47.4 16.5 47.4 16.7 C47.3 17.0 47.2 17.2 46.9 17.5 C46.5 17.9 46.4 18.1 46.2 18.9 L46.0 19.7 L46.0 18.8 Z"/></svg>