<svg xmlns="http://www.w3.org/2000/svg" viewBox="0 0 100 100" class="ksl-svg"><path class="kp-fill" fill-rule="evenodd" d="M41.6 93.7 C41.6 93.6 41.4 93.5 41.2 93.5 C40.5 93.6 40.3 93.5 40.3 93.3 C40.3 93.1 39.7 92.9 39.3 93.0 C39.2 93.0 39.1 93.2 39.1 93.3 C39.1 93.6 38.3 93.5 38.2 93.2 C38.1 93.1 38.0 93.0 37.9 93.0 C37.7 93.0 37.6 92.9 37.6 92.7 C37.6 92.2 37.2 92.1 35.8 92.1 C35.4 92.1 35.0 92.0 35.0 91.9 C35.0 91.8 34.7 91.7 34.4 91.7 C34.1 91.7 33.9 91.7 34.0 91.6 C34.1 91.5 34.1 91.4 34.0 91.3 C33.8 91.1 33.7 91.1 33.7 91.3 C33.6 91.4 33.6 91.4 33.6 91.2 C33.6 91.0 33.5 90.9 33.4 90.9 C33.3 90.9 33.2 90.5 33.2 90.0 C33.2 89.5 33.2 89.1 33.1 89.1 C33.0 89.1 32.9 89.0 33.0 89.0 C33.0 88.9 32.9 88.7 32.8 88.6 C32.7 88.4 32.6 88.3 32.7 88.3 C32.8 88.3 32.8 88.2 32.7 88.0 C32.5 87.9 32.4 87.5 32.4 86.8 C32.4 86.3 32.3 85.8 32.2 85.8 C32.1 85.7 32.1 85.3 32.2 84.8 C32.2 84.3 32.2 84.0 32.1 84.2 C32.0 84.3 32.0 84.0 32.0 83.1 C32.0 82.3 32.0 81.7 32.1 81.7 C32.2 81.7 32.2 81.2 32.2 80.5 C32.2 79.7 32.2 79.3 32.0 79.3 C31.9 79.3 31.9 79.2 32.1 79.1 C32.3 79.0 32.3 78.6 32.3 76.6 C32.3 74.3 32.3 74.2 31.9 73.8 C31.6 73.6 31.4 73.4 31.3 73.4 C31.0 73.4 30.9 72.9 30.9 71.4 C30.9 70.6 30.9 69.9 30.8 69.9 C30.6 69.8 30.5 69.1 30.7 69.1 C30.8 69.1 30.9 68.6 30.9 67.9 C30.9 67.1 30.8 66.7 30.7 66.7 C30.6 66.8 30.5 66.5 30.5 66.2 C30.4 66.0 30.4 65.7 30.3 65.7 C30.2 65.7 30.1 65.7 30.1 65.6 C30.2 65.2 30.1 65.0 30.0 65.2 C29.8 65.4 29.8 65.3 29.8 64.8 C29.8 64.4 29.7 64.2 29.5 64.1 C29.4 64.1 29.3 63.9 29.3 63.7 C29.3 63.4 28.9 63.2 28.6 63.4 C28.5 63.4 28.4 63.3 28.4 63.1 C28.3 62.9 28.2 62.8 28.1 62.8 C27.9 62.9 27.8 62.6 27.8 61.9 C27.7 61.4 27.6 60.7 27.4 60.5 C27.3 60.2 27.2 59.7 27.2 59.4 C27.2 59.1 27.0 58.5 26.8 58.1 C26.6 57.7 26.5 57.1 26.5 56.6 C26.6 56.1 26.5 55.8 26.2 55.6 C26.0 55.3 25.9 55.0 25.9 54.6 C25.9 53.8 25.5 52.6 25.3 52.6 C25.2 52.6 25.2 52.5 25.3 52.3 C25.3 52.1 25.3 52.0 25.1 51.9 C24.8 51.8 24.7 50.8 25.1 50.8 C25.1 50.8 25.2 50.7 25.1 50.6 C25.1 50.4 24.9 50.4 24.9 50.4 C24.6 50.6 24.7 47.7 25.0 47.4 C25.2 47.2 25.2 45.1 24.9 44.4 C24.8 44.1 24.7 43.7 24.7 43.5 C24.7 43.2 24.6 42.9 24.5 42.7 C24.3 42.4 24.3 42.3 24.4 42.3 C24.6 42.2 24.6 42.2 24.4 42.2 C24.3 42.2 24.2 41.9 24.2 41.7 C24.2 41.4 24.2 41.0 24.1 40.7 C24.0 40.4 24.0 40.1 24.0 40.0 C24.1 40.0 24.2 39.7 24.3 39.4 C24.4 39.0 24.5 38.9 24.7 38.9 C24.9 38.9 25.1 38.8 25.1 38.6 C25.2 38.5 25.5 38.4 25.8 38.4 C26.1 38.4 26.4 38.3 26.4 38.2 C26.4 38.1 26.5 38.1 26.6 38.1 C26.7 38.1 26.8 37.9 26.8 37.7 C26.8 37.4 27.1 37.3 27.2 37.6 C27.3 37.7 27.3 37.7 27.3 37.5 C27.3 37.3 27.4 37.1 27.6 37.0 C27.7 36.8 27.8 36.6 27.7 36.6 C27.7 36.5 27.7 36.4 27.8 36.4 C27.9 36.4 28.0 36.3 28.0 36.1 C28.0 35.9 28.1 35.8 28.2 35.7 C28.3 35.7 28.4 35.4 28.4 35.0 C28.5 34.3 28.5 34.3 29.1 34.3 C29.6 34.3 29.6 34.3 29.4 34.0 C29.0 33.6 29.1 33.5 29.9 33.3 C30.3 33.2 30.6 33.0 30.6 32.8 C30.6 32.7 30.7 32.6 30.7 32.8 C30.9 33.1 31.3 33.0 31.4 32.6 C31.5 32.2 31.8 32.0 31.8 32.3 C31.8 32.4 31.8 32.5 31.9 32.5 C32.1 32.5 32.1 32.2 32.0 31.6 C31.9 31.0 31.9 30.6 32.1 30.5 C32.2 30.4 32.4 30.0 32.4 29.5 C32.4 29.4 32.6 29.4 32.7 29.4 C33.0 29.5 33.1 29.4 33.1 29.2 C33.1 28.5 33.3 28.3 33.5 28.9 C33.6 29.4 33.6 29.4 33.7 29.1 C33.8 29.0 33.9 28.9 33.9 29.0 C33.9 29.2 34.0 29.2 34.1 29.2 C34.3 29.1 34.4 29.1 34.4 29.2 C34.4 29.3 34.4 29.4 34.5 29.3 C34.6 29.2 34.8 29.3 34.9 29.3 C35.2 29.6 35.6 29.5 35.6 29.1 C35.7 28.9 35.8 28.8 36.0 28.8 C36.2 28.9 36.3 28.8 36.3 28.7 C36.3 28.5 36.5 28.4 36.7 28.4 C37.0 28.4 37.1 28.0 36.9 27.3 C36.8 27.0 36.8 26.8 37.0 26.8 C37.1 26.8 37.1 26.7 37.0 26.6 C37.0 26.4 37.0 26.4 37.2 26.5 C37.4 26.5 37.5 26.5 37.5 26.4 C37.5 26.3 37.5 26.3 37.6 26.4 C37.8 26.6 37.8 26.6 37.8 26.4 C37.8 26.2 37.9 26.1 38.0 26.2 C38.1 26.3 38.5 26.4 38.8 26.4 C39.1 26.4 39.4 26.5 39.4 26.6 C39.5 26.9 40.1 26.8 40.1 26.5 C40.1 26.2 40.1 26.2 40.3 26.4 C40.3 26.6 40.4 26.6 40.4 26.5 C40.4 26.4 40.7 26.3 41.0 26.2 C41.4 26.1 41.4 26.1 41.2 25.9 C41.1 25.8 41.1 25.8 41.6 25.8 C42.0 25.8 42.1 25.7 41.9 25.6 C41.7 25.5 41.7 25.5 41.9 25.5 C42.0 25.5 42.1 25.3 42.1 25.1 C42.1 24.9 42.1 24.8 42.2 24.8 C42.3 24.8 42.4 24.6 42.5 24.4 C42.5 24.2 42.6 24.0 42.7 24.0 C42.8 24.0 42.9 23.7 43.0 23.3 C43.0 22.9 43.2 22.5 43.4 22.3 C43.5 22.2 43.7 21.8 43.8 21.4 C43.9 20.7 44.1 20.1 44.5 19.2 C44.6 18.9 44.8 18.3 44.8 17.8 L44.9 17.0 L45.0 17.8 L45.1 18.5 L45.1 17.6 C45.2 17.2 45.2 16.8 45.3 16.8 C45.5 16.8 45.5 16.6 45.4 16.2 C45.3 15.8 45.3 15.6 45.5 15.7 C45.6 15.8 45.7 15.7 45.7 15.7 C45.8 15.6 46.0 15.5 46.2 15.6 C46.8 15.7 47.0 15.3 46.5 15.0 C46.1 14.7 46.0 14.2 46.4 14.4 C46.7 14.5 46.8 13.8 46.5 13.6 C46.4 13.5 46.3 13.2 46.2 12.8 C46.1 12.3 46.1 12.2 46.0 12.4 C45.9 12.7 45.9 12.7 45.8 12.5 C45.6 12.0 45.6 11.5 45.9 11.6 C46.0 11.6 46.1 11.4 46.2 11.2 C46.2 11.0 46.3 10.9 46.3 11.0 C46.4 11.6 47.5 11.3 47.5 10.6 C47.4 10.3 47.4 10.2 47.4 10.4 C47.3 10.5 47.2 10.5 47.1 10.5 C47.0 10.4 47.0 10.4 47.0 10.5 C47.0 10.7 46.6 10.7 46.1 10.6 C45.7 10.5 46.3 9.7 46.7 9.7 C47.1 9.7 47.3 9.7 47.3 9.5 C47.3 9.4 47.4 9.4 47.5 9.6 C47.6 9.8 47.6 9.6 47.6 8.9 C47.6 8.1 48.4 7.0 49.0 7.0 C49.1 7.0 49.3 6.8 49.4 6.7 C49.7 6.3 50.4 6.1 50.4 6.3 C50.4 6.4 50.5 6.4 50.6 6.4 C50.7 6.3 50.8 6.4 51.0 6.5 C51.6 7.0 51.7 7.1 52.0 7.0 C52.3 7.0 52.4 7.1 52.4 7.3 C52.4 7.9 52.5 8.1 52.9 7.8 C53.0 7.7 53.2 7.4 53.2 7.3 C53.2 7.1 53.2 7.1 53.5 7.3 C53.7 7.5 53.8 7.5 53.9 7.2 C54.1 7.0 54.2 7.0 54.2 7.0 C54.2 7.1 54.3 7.0 54.4 6.9 C54.6 6.6 54.7 6.6 54.7 6.9 C54.7 7.1 54.7 7.3 54.8 7.2 C54.9 7.1 55.0 6.9 55.0 6.7 C55.0 6.3 55.0 6.3 55.2 6.5 C55.4 6.6 55.5 6.6 55.5 6.4 C55.6 6.3 55.6 6.4 55.6 6.6 C55.6 6.8 55.7 6.9 55.9 6.9 C56.1 6.8 56.1 6.8 56.1 7.0 C56.1 7.1 56.1 7.2 56.3 7.2 C56.4 7.1 56.5 7.3 56.5 7.6 C56.5 7.9 56.5 7.9 56.7 7.8 C56.8 7.7 57.0 7.7 57.3 8.0 C57.5 8.3 57.7 8.4 57.8 8.4 C57.9 8.3 58.6 8.9 58.6 9.1 C58.6 9.2 58.7 9.2 58.8 9.2 C59.0 9.1 59.1 9.2 59.1 9.4 C59.2 9.7 59.6 9.9 59.6 9.6 C59.6 9.5 59.7 9.4 59.8 9.4 C60.0 9.4 60.1 9.3 60.0 9.2 C59.9 9.0 60.0 8.9 60.1 8.9 C60.3 8.9 60.4 9.0 60.4 9.1 C60.5 9.2 60.5 9.2 60.5 9.0 C60.5 8.9 60.7 8.8 60.8 8.8 C60.9 8.8 61.0 8.7 61.1 8.6 C61.2 8.2 63.8 8.5 63.8 8.9 C63.8 9.0 63.9 9.1 64.1 9.1 C64.2 9.1 64.3 9.2 64.3 9.3 C64.3 9.7 64.7 10.3 64.9 10.3 C65.1 10.2 65.2 10.4 65.2 10.7 C65.3 11.0 65.4 11.2 65.6 11.2 C65.7 11.2 65.8 11.3 65.8 11.4 C65.8 11.4 65.9 11.5 66.1 11.6 C66.4 11.7 66.4 11.8 66.4 12.2 C66.4 12.5 66.5 12.7 66.6 12.7 C66.7 12.7 66.8 13.0 66.8 13.3 C66.8 13.8 66.7 14.0 66.5 14.0 C66.3 14.0 66.3 14.0 66.5 14.2 C66.6 14.3 66.8 14.4 67.0 14.4 C67.4 14.2 67.3 14.7 66.8 15.1 L66.4 15.4 L66.7 15.8 C67.1 16.2 67.9 16.6 68.5 16.6 C69.0 16.6 69.3 17.1 69.1 17.8 C69.1 18.0 69.1 18.3 69.2 18.3 C69.3 18.3 69.3 18.4 69.3 18.6 C69.2 19.0 69.0 19.0 68.8 18.6 C68.8 18.5 68.8 18.7 68.8 19.1 C68.9 19.5 68.8 20.0 68.8 20.3 C68.6 20.8 69.4 22.0 69.7 21.8 C69.8 21.7 69.9 21.8 69.9 22.0 C69.9 22.3 69.9 22.3 70.1 22.2 C70.3 22.0 70.4 22.0 70.4 22.3 C70.4 22.5 70.5 22.7 70.5 22.7 C70.6 22.7 70.7 22.7 70.6 22.8 C70.6 22.9 70.6 23.0 70.7 23.0 C70.8 23.0 70.9 23.1 70.9 23.3 C70.9 23.5 70.9 23.5 71.0 23.4 C71.0 23.2 71.1 23.2 71.3 23.4 C71.6 23.8 71.6 24.2 71.3 24.1 C71.1 24.0 71.0 24.1 71.0 24.4 C71.0 24.7 71.1 24.8 71.5 24.7 C71.8 24.7 72.0 24.7 72.0 24.8 C72.0 24.9 72.1 24.9 72.2 24.9 C72.3 24.8 72.4 24.9 72.5 25.1 C72.5 25.2 72.7 25.5 72.8 25.6 C73.4 26.3 73.5 26.4 73.5 26.8 C73.5 27.2 73.6 27.3 74.1 27.4 C74.5 27.5 74.8 27.8 74.9 28.0 C75.0 28.2 75.1 28.3 75.2 28.3 C75.6 28.4 76.2 28.7 75.9 28.7 C75.7 28.7 75.6 28.9 75.6 29.5 C75.6 30.0 75.7 30.2 75.8 30.1 C76.0 29.7 76.1 30.1 76.0 30.8 C76.0 31.1 75.8 31.3 75.8 31.3 C75.7 31.3 75.6 31.5 75.6 31.7 C75.6 32.2 75.2 33.2 75.1 33.0 C75.0 33.0 74.6 34.0 74.6 34.4 C74.6 34.5 74.6 34.6 74.5 34.6 C74.4 34.6 74.3 35.1 74.3 35.9 C74.3 36.8 74.2 37.1 74.1 36.9 C74.0 36.6 74.0 36.8 73.9 38.8 C73.9 40.8 73.8 41.0 73.6 41.0 C73.4 41.0 73.3 41.1 73.3 41.1 C73.3 41.2 73.2 41.9 73.1 42.8 C73.0 44.6 73.0 44.5 73.1 45.2 C73.2 45.6 73.1 45.7 73.0 45.7 C72.9 45.7 72.8 45.9 72.8 46.1 C72.8 46.2 72.8 46.4 72.7 46.4 C72.6 46.5 72.5 46.7 72.4 46.9 C72.2 48.0 72.2 48.1 72.0 48.2 C71.8 48.2 71.8 49.0 72.0 49.0 C72.1 49.0 72.2 49.2 72.2 49.4 C72.2 49.7 72.1 49.8 71.9 49.8 C71.7 49.8 71.7 50.0 71.8 50.5 C71.9 51.0 71.8 51.1 71.6 51.1 C71.5 51.1 71.4 51.2 71.4 51.4 C71.4 51.5 71.2 51.6 71.1 51.7 C70.8 51.8 70.8 52.4 71.0 52.5 C71.3 52.6 71.0 53.6 70.6 53.6 C70.3 53.7 70.1 54.6 70.4 55.4 C70.5 55.6 70.5 55.8 70.2 56.1 C69.9 56.4 69.8 56.9 70.0 56.9 C70.1 56.9 70.2 57.1 70.2 57.3 C70.2 57.5 70.1 57.7 70.0 57.6 C69.9 57.5 69.9 57.7 70.0 58.2 C70.1 58.8 70.0 59.1 69.8 59.4 C69.6 59.7 69.6 60.0 69.7 60.2 C69.8 60.6 69.8 61.0 69.5 61.2 C69.2 61.4 69.0 62.1 69.3 62.1 C69.4 62.1 69.4 62.2 69.2 62.3 C69.1 62.4 69.0 62.5 69.1 62.5 C69.2 62.7 68.9 63.6 68.7 63.5 C68.7 63.4 68.5 63.7 68.5 64.0 C68.4 64.8 68.1 65.5 67.9 65.5 C67.5 65.5 67.1 66.1 67.2 66.6 C67.3 67.0 67.2 67.2 66.9 67.5 C66.5 67.8 66.3 68.7 66.4 69.5 C66.4 69.6 66.4 69.6 66.3 69.6 C66.2 69.6 66.1 69.8 66.0 70.0 C66.0 70.2 65.7 70.4 65.4 70.5 C65.1 70.6 65.0 70.8 65.0 71.1 C65.0 71.4 64.9 71.6 64.8 71.7 C64.6 71.7 64.6 71.8 64.8 71.9 C65.0 72.1 65.0 72.1 64.9 72.2 C64.7 72.2 64.6 72.5 64.6 72.7 C64.6 72.9 64.7 73.1 64.9 73.1 C65.0 73.2 65.0 73.2 64.9 73.2 C64.7 73.2 64.6 73.3 64.6 73.5 C64.6 73.6 64.5 73.8 64.4 73.9 C64.3 74.0 64.2 74.3 64.1 74.5 C64.1 74.8 64.1 74.9 64.0 74.8 C63.9 74.4 63.7 74.6 63.7 75.1 C63.7 75.5 63.6 75.7 63.4 75.8 C63.3 75.8 63.2 75.9 63.3 76.0 C63.3 76.1 63.3 76.2 63.1 76.2 C63.0 76.2 62.8 76.3 62.7 76.5 C62.5 76.7 62.4 76.8 62.3 76.6 C62.2 76.5 62.2 76.6 62.2 76.8 C62.2 77.0 62.1 77.1 62.0 77.1 C61.9 77.0 61.8 77.2 61.8 77.4 C61.7 77.6 61.6 77.8 61.5 77.8 C61.4 77.8 61.4 78.1 61.4 78.5 C61.4 79.0 61.3 79.1 61.1 79.1 C60.9 79.0 60.9 79.1 61.0 79.7 C61.1 80.3 61.0 80.4 60.8 80.4 C60.7 80.4 60.6 80.6 60.5 80.8 C60.5 81.3 60.7 82.4 60.9 82.4 C61.1 82.4 61.1 82.9 60.8 83.0 C60.7 83.0 60.7 83.1 60.9 83.2 C61.1 83.4 61.1 83.4 60.9 83.4 C60.7 83.4 60.6 83.5 60.6 83.7 C60.6 83.9 60.7 84.0 60.9 84.0 C61.2 84.0 61.2 84.2 61.2 84.8 C61.2 85.2 61.2 85.6 61.3 85.7 C61.6 85.8 61.7 86.3 61.5 86.3 C61.4 86.3 61.4 86.5 61.4 86.7 C61.4 86.9 61.3 87.1 61.1 87.2 C61.0 87.4 60.9 87.8 60.8 88.2 C60.7 88.6 60.6 88.9 60.5 88.9 C60.5 88.9 60.4 89.1 60.4 89.3 C60.4 89.6 60.3 89.8 60.2 89.8 C60.1 89.8 60.0 90.1 60.0 90.5 C60.0 90.9 59.9 91.1 59.7 91.1 C59.6 91.1 59.4 91.2 59.4 91.3 C59.3 91.4 59.3 91.4 59.3 91.3 C59.2 91.1 59.2 91.1 59.0 91.3 C58.9 91.4 58.8 91.5 58.9 91.6 C59.0 91.6 58.9 91.7 58.8 91.9 C58.7 92.0 58.6 92.0 58.6 91.9 C58.6 91.8 58.4 91.7 58.3 91.7 C58.1 91.7 57.9 91.8 57.9 92.0 C57.9 92.1 57.6 92.2 57.0 92.3 C56.5 92.3 56.0 92.4 56.0 92.5 C55.9 92.6 55.7 92.7 55.4 92.8 C55.0 92.9 54.8 93.0 54.8 93.3 C54.8 93.5 54.8 93.5 54.7 93.3 C54.6 93.1 54.0 92.9 53.3 92.9 C53.1 92.9 52.9 92.7 52.8 92.5 C52.7 92.2 52.5 92.1 52.0 92.1 C51.7 92.1 51.4 92.0 51.4 91.9 C51.3 91.8 50.8 91.7 50.1 91.6 C49.5 91.6 48.9 91.6 48.9 91.6 C48.2 91.5 46.4 91.8 46.3 92.0 C46.2 92.1 46.2 92.1 46.2 91.9 C46.2 91.8 46.1 91.8 45.9 91.9 C45.8 92.1 45.8 92.2 45.9 92.3 C46.0 92.3 45.8 92.4 45.5 92.4 C45.2 92.4 45.0 92.5 45.0 92.6 C45.0 92.6 44.9 92.8 44.9 92.9 C44.9 93.0 44.9 93.1 44.9 93.2 C44.9 93.3 44.5 93.4 44.1 93.4 C43.6 93.4 43.6 93.4 44.5 93.5 C45.4 93.6 45.2 93.7 43.7 93.6 C42.5 93.6 41.7 93.7 41.7 93.8 C41.6 93.9 41.6 93.8 41.6 93.7 Z"/><path class="kp-line" fill-rule="evenodd" d="M60.1 87.3 C60.2 84.7 60.3 84.0 60.9 84.0 C61.2 84.0 61.2 84.1 61.2 84.8 C61.2 85.2 61.2 85.6 61.3 85.7 C61.6 85.8 61.7 86.3 61.5 86.3 C61.4 86.3 61.4 86.5 61.4 86.7 C61.4 86.9 61.3 87.1 61.1 87.2 C61.0 87.4 60.9 87.8 60.8 88.2 C60.7 88.6 60.6 88.9 60.5 88.9 C60.5 88.9 60.4 89.1 60.4 89.4 C60.4 89.6 60.3 89.8 60.2 89.8 C60.1 89.8 60.0 89.0 60.1 87.3 Z M32.0 82.9 C32.0 82.3 32.0 81.7 32.1 81.7 C32.2 81.7 32.2 81.2 32.2 80.5 C32.2 79.7 32.2 79.3 32.0 79.3 C31.9 79.3 31.9 79.2 32.1 79.1 C32.3 79.0 32.3 78.6 32.3 76.6 C32.3 74.3 32.3 74.2 31.9 73.8 C31.6 73.6 31.4 73.4 31.3 73.4 C31.0 73.4 30.9 72.9 30.9 71.4 C30.9 70.6 30.9 69.9 30.8 69.9 C30.6 69.8 30.5 69.1 30.7 69.1 C30.8 69.1 30.9 68.6 30.9 67.9 C30.9 67.1 30.8 66.7 30.7 66.7 C30.6 66.8 30.5 66.5 30.5 66.2 C30.4 66.0 30.4 65.7 30.3 65.7 C30.2 65.7 30.2 65.6 30.2 65.5 C30.2 65.3 30.2 65.2 30.3 65.2 C30.7 65.2 32.6 70.4 32.6 71.7 C32.6 72.0 32.7 72.8 32.7 73.3 C33.0 74.8 32.9 78.5 32.6 81.0 C32.2 83.9 32.0 84.5 32.0 82.9 Z M63.2 75.3 C63.3 74.9 63.5 73.7 63.6 72.8 C63.7 70.9 63.9 70.4 65.2 69.1 C65.7 68.5 66.3 67.7 66.5 67.3 C67.0 66.5 67.3 66.3 67.3 66.8 C67.3 67.0 67.1 67.3 66.9 67.5 C66.5 67.8 66.3 68.7 66.4 69.5 C66.4 69.6 66.4 69.6 66.3 69.6 C66.2 69.6 66.1 69.8 66.0 70.0 C66.0 70.2 65.7 70.4 65.4 70.5 C65.1 70.6 65.0 70.8 65.0 71.1 C65.0 71.4 64.9 71.6 64.8 71.7 C64.6 71.7 64.6 71.8 64.8 71.9 C65.0 72.1 65.0 72.1 64.9 72.2 C64.7 72.2 64.6 72.5 64.6 72.7 C64.6 72.9 64.7 73.1 64.9 73.1 C65.0 73.2 65.0 73.2 64.9 73.2 C64.7 73.2 64.6 73.3 64.6 73.5 C64.6 73.6 64.5 73.8 64.4 73.9 C64.3 74.0 64.2 74.3 64.1 74.5 C64.1 74.8 64.1 74.9 64.0 74.8 C63.9 74.4 63.7 74.6 63.7 75.1 C63.7 75.5 63.6 75.7 63.4 75.8 C63.3 75.8 63.2 75.9 63.3 76.0 C63.3 76.1 63.2 76.2 63.1 76.2 C62.9 76.2 62.9 76.1 63.2 75.3 Z M51.8 69.3 C51.3 68.8 50.6 68.0 50.4 67.6 C50.2 67.1 49.8 66.4 49.6 66.0 C48.9 65.0 48.3 63.2 48.2 62.0 C48.2 61.5 48.0 60.8 47.9 60.5 C47.5 59.8 47.6 58.1 48.1 57.8 C48.6 57.4 49.8 57.3 50.0 57.6 C50.3 58.0 50.8 59.6 51.1 61.3 C51.4 62.7 51.9 63.8 52.8 65.1 C53.1 65.5 53.4 66.2 53.6 66.7 C53.9 67.6 54.5 68.8 54.9 69.3 C55.2 69.8 54.7 70.1 53.7 70.2 L52.9 70.3 L51.8 69.3 Z M68.0 64.8 C68.2 64.5 68.4 64.2 68.4 64.4 C68.5 64.7 68.1 65.5 67.8 65.5 C67.7 65.5 67.8 65.3 68.0 64.8 Z M28.4 63.0 C28.3 62.9 28.2 62.8 28.0 62.8 C27.9 62.9 27.8 62.8 27.8 62.3 C27.8 62.0 27.8 61.5 27.7 61.3 C27.7 61.1 27.8 61.2 28.0 61.6 C28.1 61.9 28.4 62.3 28.5 62.3 C28.6 62.4 28.7 62.7 28.9 62.9 C29.1 63.3 29.1 63.3 28.8 63.3 C28.6 63.3 28.4 63.2 28.4 63.0 Z M35.5 55.6 C34.6 55.4 33.3 54.5 32.5 53.4 C32.2 53.0 31.6 52.4 31.3 52.2 C30.5 51.7 29.6 50.4 29.1 49.2 C28.5 47.5 28.4 47.5 26.5 47.8 C24.5 48.1 24.3 48.1 25.0 47.4 C25.2 47.2 25.2 45.1 24.9 44.4 C24.8 44.1 24.7 43.7 24.7 43.5 C24.7 43.2 24.6 42.9 24.5 42.7 C24.3 42.4 24.3 42.3 24.4 42.3 C24.6 42.3 24.6 42.3 24.5 42.2 C24.4 42.1 24.2 41.7 24.2 41.3 L24.1 40.5 L24.8 40.5 C25.8 40.5 26.9 40.8 28.2 41.5 C28.8 41.9 29.4 42.2 29.7 42.2 C30.6 42.4 32.0 44.1 32.7 45.9 C33.4 47.8 34.6 49.6 35.4 50.1 C35.7 50.3 36.1 50.7 36.3 51.0 C37.1 52.0 38.0 52.2 39.4 51.5 C39.9 51.2 40.4 51.0 40.6 51.0 C42.0 51.0 42.0 47.7 40.7 44.4 C40.6 44.0 40.4 43.2 40.3 42.6 C40.2 42.0 40.0 41.3 39.9 41.2 C39.9 41.0 39.5 40.3 39.1 39.5 C38.7 38.8 38.2 37.8 37.9 37.4 C37.6 37.0 37.2 36.3 37.1 35.9 C36.8 34.8 35.4 33.3 34.2 32.7 C31.9 31.5 31.9 31.5 31.9 31.0 C31.9 30.8 32.0 30.5 32.1 30.5 C32.2 30.5 32.3 30.0 32.4 29.5 C32.4 29.4 32.6 29.4 32.7 29.4 C33.0 29.5 33.1 29.4 33.1 29.2 C33.1 28.5 33.3 28.3 33.5 28.9 C33.6 29.3 33.6 29.4 33.7 29.2 C33.7 28.9 33.8 28.9 34.1 29.2 C34.3 29.4 34.6 29.6 34.9 29.6 C35.1 29.7 35.7 30.0 36.0 30.3 C36.7 30.9 37.1 31.1 39.1 31.9 C39.7 32.2 39.8 32.3 40.4 33.4 C40.7 34.1 40.9 34.7 40.9 34.8 C40.9 34.9 41.2 35.5 41.6 36.1 C42.0 36.7 42.5 37.6 42.6 38.2 C42.9 39.1 44.2 41.8 44.6 42.3 C45.1 42.8 45.4 43.9 45.5 45.2 C45.6 47.1 45.9 47.2 47.8 46.3 C48.6 45.9 49.3 45.6 49.4 45.6 C49.5 45.6 49.9 45.2 50.4 44.8 C50.8 44.4 51.3 43.9 51.6 43.7 C51.8 43.5 52.2 43.0 52.6 42.6 L53.2 41.8 L53.2 40.5 C53.1 39.4 53.0 39.0 52.4 37.9 C52.0 37.2 51.7 36.4 51.7 36.1 C51.7 35.8 51.4 34.4 51.0 33.0 C50.7 31.6 50.3 30.1 50.2 29.8 C50.1 29.1 49.7 28.5 49.2 28.0 C48.9 27.7 48.5 27.1 47.4 25.3 C47.1 24.8 46.6 24.2 46.3 23.9 C45.4 23.0 45.0 22.0 45.1 21.3 C45.2 20.7 45.8 20.1 46.3 20.1 C46.6 20.1 47.0 19.3 47.1 18.5 C47.2 17.4 46.9 16.6 46.1 16.2 C45.8 16.1 45.5 15.9 45.4 15.8 C45.3 15.7 45.4 15.6 45.5 15.7 C45.6 15.8 45.7 15.7 45.7 15.7 C45.8 15.6 46.0 15.5 46.2 15.6 C46.8 15.7 47.0 15.3 46.5 15.0 C46.1 14.7 46.0 14.2 46.4 14.4 C46.7 14.5 46.8 13.8 46.5 13.6 C46.4 13.5 46.3 13.2 46.2 12.8 C46.1 12.3 46.1 12.2 46.0 12.4 C45.9 12.7 45.9 12.7 45.8 12.5 C45.5 11.7 45.9 11.5 46.7 12.0 C47.0 12.2 47.6 12.4 48.0 12.6 C48.5 12.8 49.1 13.2 49.7 13.9 L50.7 14.9 L50.7 16.1 C50.7 17.2 50.8 17.4 51.6 19.2 L52.5 21.0 L53.5 21.3 C54.0 21.4 54.8 21.7 55.2 21.9 C55.7 22.2 56.2 22.3 57.0 22.3 C60.0 22.3 60.9 19.4 59.1 15.4 C58.7 14.7 58.6 13.9 58.4 12.6 C58.2 11.2 58.1 10.7 57.8 10.3 C57.6 10.1 57.3 9.5 57.0 9.1 C56.8 8.6 56.3 8.0 55.8 7.6 C55.3 7.2 55.0 6.8 55.0 6.6 C55.0 6.3 55.0 6.3 55.2 6.5 C55.4 6.6 55.5 6.6 55.5 6.4 C55.6 6.3 55.6 6.4 55.6 6.6 C55.6 6.8 55.7 6.9 55.9 6.9 C56.1 6.8 56.1 6.8 56.1 7.0 C56.1 7.1 56.1 7.2 56.3 7.2 C56.4 7.1 56.5 7.3 56.5 7.6 C56.5 7.9 56.5 7.9 56.7 7.8 C56.8 7.7 57.0 7.7 57.3 8.0 C57.5 8.3 57.7 8.4 57.8 8.4 C57.9 8.3 58.6 8.9 58.6 9.1 C58.6 9.2 58.7 9.2 58.8 9.2 C59.0 9.1 59.1 9.2 59.1 9.4 C59.2 9.7 59.6 9.9 59.6 9.6 C59.6 9.5 59.7 9.4 59.8 9.4 C60.0 9.4 60.1 9.3 60.0 9.2 C59.9 9.0 60.0 8.9 60.1 8.9 C60.3 8.9 60.4 9.0 60.4 9.1 C60.5 9.2 60.5 9.2 60.5 9.0 C60.5 8.9 60.7 8.8 60.8 8.8 C60.9 8.8 61.0 8.7 61.0 8.6 C61.0 8.0 61.4 8.6 61.5 9.3 C61.8 12.3 62.3 13.3 63.6 13.7 C64.5 13.9 65.0 13.9 65.8 13.5 C66.7 13.1 66.8 13.1 66.8 13.6 C66.8 13.8 66.7 14.0 66.5 14.0 C66.3 14.0 66.3 14.0 66.5 14.2 C66.6 14.3 66.8 14.4 67.0 14.4 C67.4 14.2 67.3 14.7 66.8 15.1 L66.4 15.4 L66.7 15.8 C67.1 16.2 67.9 16.6 68.5 16.6 C69.0 16.6 69.3 17.1 69.1 17.8 C69.1 18.0 69.1 18.3 69.2 18.3 C69.3 18.3 69.3 18.4 69.3 18.6 C69.2 19.0 69.0 19.0 68.8 18.6 C68.8 18.5 68.8 18.6 68.8 18.9 L68.8 19.6 L68.2 19.0 C67.7 18.4 66.9 18.1 66.2 18.1 C65.7 18.1 64.0 20.3 63.7 21.4 C63.0 23.7 63.5 27.9 64.6 28.9 C65.0 29.2 65.5 30.0 65.8 30.7 L66.4 32.0 L66.2 32.8 C66.0 33.2 65.7 33.9 65.4 34.4 C65.1 34.8 64.8 35.7 64.6 36.2 C64.5 36.7 64.2 37.6 64.0 38.1 C63.4 39.3 63.2 40.4 63.2 42.8 C63.3 45.3 63.6 46.1 64.7 47.1 C65.7 47.9 66.6 49.3 66.7 50.2 C67.0 52.5 65.2 52.1 62.3 49.2 C60.2 47.2 60.3 47.2 60.1 45.9 C60.1 45.3 59.9 44.4 59.7 43.9 C59.2 42.1 59.2 42.0 59.7 40.5 C60.3 38.9 60.4 35.0 59.9 34.5 C59.6 34.2 57.7 34.7 57.1 35.2 C56.3 35.9 56.0 37.6 56.4 39.2 C56.9 40.9 55.9 44.0 54.2 45.7 C54.1 45.8 53.9 46.2 53.7 46.5 C53.3 47.2 51.7 48.3 50.2 49.0 C49.8 49.2 48.9 49.6 48.4 49.8 C47.8 50.1 47.1 50.4 46.7 50.5 C44.4 51.0 42.5 52.0 42.0 53.0 C41.8 53.5 41.0 54.4 40.2 55.3 C39.8 55.7 39.8 55.7 38.0 55.7 C37.1 55.7 35.9 55.6 35.5 55.6 Z M61.0 33.7 C61.0 33.6 60.9 33.5 60.7 33.5 C60.5 33.5 60.4 33.6 60.4 33.7 C60.4 33.8 60.5 33.9 60.7 33.9 C60.9 33.9 61.0 33.8 61.0 33.7 Z M59.6 30.3 C59.7 30.1 59.6 29.8 59.5 29.6 L59.3 29.2 L59.1 29.7 C58.9 30.1 58.9 30.3 59.1 30.4 C59.4 30.6 59.5 30.6 59.6 30.3 Z M54.8 27.9 C55.4 26.9 55.3 26.5 54.0 25.6 C53.0 24.9 52.8 24.8 52.5 25.1 C52.2 25.3 52.1 25.6 52.4 26.1 C52.4 26.3 52.6 26.7 52.6 27.0 C52.7 27.4 53.8 28.4 54.3 28.4 C54.4 28.4 54.7 28.2 54.8 27.9 Z M43.9 20.9 C43.9 20.8 44.0 20.5 44.1 20.1 L44.4 19.5 L44.3 20.2 C44.3 20.8 43.9 21.5 43.9 20.9 Z"/></svg>