<svg xmlns="http://www.w3.org/2000/svg" viewBox="0 0 100 100" class="ksl-svg"><path class="kp-fill" fill-rule="evenodd" d="M43.3 93.6 C43.3 93.4 43.2 93.3 43.1 93.3 C43.0 93.3 42.9 93.3 42.9 93.2 C42.9 93.1 42.9 93.1 42.8 93.2 C42.7 93.3 42.7 93.2 42.7 92.6 C42.7 91.9 42.6 91.8 42.5 91.8 C42.4 91.8 42.3 91.7 42.3 91.5 C42.3 91.4 42.2 91.2 42.1 91.1 C41.9 90.9 41.8 90.6 41.8 90.1 C41.8 90.0 41.6 89.9 41.5 89.8 C41.3 89.8 41.2 89.7 41.2 89.3 C41.2 88.7 41.2 88.6 41.0 88.5 C40.9 88.5 40.8 88.3 40.8 88.1 C40.7 88.0 40.6 87.8 40.6 87.8 C40.5 87.8 40.4 87.7 40.4 87.6 C40.4 87.5 40.4 87.3 40.2 87.3 C40.1 87.2 40.0 87.1 40.0 87.0 C40.0 86.9 40.0 86.8 39.9 86.8 C39.6 86.8 39.2 86.4 39.2 86.0 C39.2 85.8 39.2 85.6 39.1 85.6 C39.1 85.5 39.0 85.5 38.9 85.5 C38.7 85.6 38.6 85.5 38.6 85.5 C38.6 85.3 38.5 85.1 38.5 85.0 C38.5 84.9 38.5 84.8 38.5 84.8 C38.5 84.7 38.4 84.6 38.4 84.6 C38.3 84.5 38.2 84.0 38.1 83.5 C38.1 83.0 38.0 82.4 37.9 82.2 C37.8 82.0 37.8 81.8 37.9 81.4 C38.0 81.0 38.0 80.9 37.8 80.8 C37.7 80.7 37.7 80.6 37.8 80.6 C38.0 80.6 38.0 80.6 37.8 80.5 C37.7 80.4 37.7 80.3 37.8 79.7 C38.1 78.5 38.0 77.3 37.7 77.1 C37.6 77.0 37.6 77.0 37.6 77.0 C37.8 77.0 37.7 76.2 37.6 76.1 C37.4 75.9 37.3 75.5 37.5 75.5 C37.6 75.5 37.6 75.5 37.5 75.4 C37.3 75.3 37.3 75.2 37.3 74.3 C37.3 74.0 37.2 73.8 37.1 73.6 C37.0 73.5 36.9 73.3 36.9 73.2 C36.9 73.1 36.9 73.0 36.8 72.9 C36.8 72.8 36.8 72.6 36.8 72.4 C36.8 72.1 36.7 72.0 36.5 72.0 C36.3 71.9 36.2 71.8 36.3 71.7 C36.3 71.6 36.3 71.5 36.2 71.5 C36.2 71.5 36.1 71.3 36.1 71.1 C36.1 70.8 35.9 70.7 35.8 71.0 C35.8 71.1 35.7 71.0 35.7 70.8 C35.7 70.4 35.7 70.4 35.6 70.6 C35.5 70.8 35.5 70.8 35.4 70.5 C35.3 70.3 35.3 69.9 35.3 69.7 C35.3 69.5 35.2 69.4 35.1 69.4 C35.0 69.5 34.9 69.4 34.9 69.3 C34.9 69.2 34.9 69.1 34.9 69.0 C34.9 68.9 34.8 68.6 34.8 68.4 C34.8 68.0 34.8 67.9 34.5 67.9 C34.3 67.9 34.3 67.9 34.5 67.8 C34.6 67.8 34.7 67.7 34.6 67.7 C34.6 67.6 34.5 67.6 34.4 67.6 C34.2 67.7 34.2 67.6 34.2 67.4 C34.2 67.2 34.2 67.0 34.3 67.0 C34.4 67.0 34.4 67.0 34.3 66.9 C34.2 66.8 34.0 66.8 33.8 66.9 C33.6 66.9 33.5 66.9 33.5 66.6 C33.5 66.5 33.5 66.4 33.4 66.4 C33.3 66.5 33.0 66.2 33.0 65.9 C33.0 65.8 32.9 65.7 32.8 65.7 C32.7 65.7 32.7 65.5 32.8 65.1 C32.9 64.6 32.8 64.5 32.6 64.3 C32.5 64.3 32.4 63.9 32.4 63.6 C32.3 63.2 32.3 63.0 32.2 63.1 C32.1 63.2 32.1 63.1 32.1 62.9 C32.1 62.6 32.0 62.5 32.0 62.5 C31.9 62.5 31.7 62.4 31.6 62.2 C31.5 61.9 31.5 61.8 31.5 61.7 C31.7 61.6 31.7 61.1 31.6 61.1 C31.5 61.1 31.4 60.7 31.2 59.6 C31.1 59.3 31.1 59.1 31.0 59.1 C30.9 59.0 30.9 58.9 30.9 58.8 C30.9 58.6 30.8 58.5 30.7 58.4 C30.6 58.3 30.5 58.0 30.4 57.6 C30.4 57.1 30.3 56.8 30.2 56.8 C30.1 56.8 30.1 56.5 30.1 55.4 C30.1 54.6 30.2 54.2 30.4 54.0 C30.5 54.0 30.5 53.9 30.4 53.9 C30.3 53.9 30.2 53.8 30.2 53.7 C30.2 53.5 30.1 53.4 30.0 53.4 C29.9 53.4 29.9 53.3 29.9 53.3 C30.0 53.2 30.0 52.8 30.0 52.4 C30.0 51.9 30.1 51.7 30.2 51.6 C30.3 51.6 30.3 50.9 30.1 50.4 C30.1 50.4 30.1 50.4 30.1 50.3 C30.0 50.1 30.0 50.0 29.9 49.8 C29.8 49.6 29.8 49.5 29.9 49.5 C30.0 49.5 30.1 49.4 30.0 49.3 C30.0 49.3 30.0 49.2 30.1 49.2 C30.3 49.2 30.3 48.9 30.1 48.8 C29.9 48.7 29.9 46.9 30.1 45.8 C30.2 45.3 30.3 44.9 30.3 45.0 C30.4 45.1 30.4 45.1 30.6 45.0 C30.6 44.9 30.7 44.8 30.7 44.7 C30.6 44.7 30.7 44.6 30.8 44.5 C30.9 44.4 31.0 44.3 31.0 44.2 C31.0 44.1 31.1 43.8 31.2 43.6 C31.3 43.4 31.4 43.1 31.4 43.0 C31.3 42.9 31.3 42.8 31.4 42.7 C31.5 42.7 31.5 42.8 31.5 43.0 C31.5 43.3 31.6 43.3 31.7 43.2 C31.7 43.1 31.8 43.0 31.7 42.9 C31.7 42.8 31.8 42.8 31.9 42.8 C32.1 42.8 32.1 42.8 32.0 42.7 C31.8 42.6 31.8 42.6 32.1 42.5 C32.2 42.5 32.3 42.4 32.3 42.3 C32.2 42.2 32.2 42.1 32.3 42.1 C32.4 42.1 32.4 42.1 32.4 42.0 C32.4 41.9 32.8 41.3 32.9 41.3 C33.0 41.4 33.1 41.3 33.1 41.1 C33.1 41.0 33.3 40.9 33.4 40.9 C33.6 40.9 34.4 40.2 34.3 40.1 C34.2 40.0 34.3 39.7 34.5 39.7 C34.6 39.7 34.7 39.5 34.7 39.4 C34.7 39.0 35.1 38.3 35.3 38.3 C35.5 38.3 35.5 38.3 35.3 38.2 C35.1 38.1 35.0 38.1 35.2 38.1 C35.6 38.1 35.8 37.2 35.6 36.1 C35.3 34.2 35.3 34.1 35.5 34.2 C35.7 34.3 35.7 34.2 35.7 33.7 C35.7 33.1 35.8 33.0 36.7 33.1 C36.9 33.1 37.0 33.1 37.0 33.0 C37.0 32.7 37.1 32.6 37.4 32.5 C37.6 32.5 37.8 32.4 37.8 32.3 C37.8 32.2 37.9 32.2 37.9 32.3 C38.0 32.4 38.1 32.3 38.1 31.8 C38.3 31.0 38.3 30.8 38.5 30.8 C38.6 30.8 38.7 30.7 38.8 30.6 C38.8 30.5 38.9 30.5 38.9 30.6 C38.9 30.7 39.0 30.7 39.1 30.5 C39.3 30.3 39.4 30.2 39.4 30.3 C39.4 30.4 39.5 30.5 39.6 30.5 C39.7 30.5 39.8 30.4 39.8 30.3 C39.8 30.2 39.8 30.2 39.9 30.3 C40.0 30.5 40.0 30.4 40.1 30.2 C40.2 29.9 40.3 29.8 40.6 29.8 C40.9 29.8 41.0 29.8 41.0 29.5 C41.0 29.3 41.1 29.2 41.4 29.1 C41.6 29.1 41.8 28.9 41.9 28.8 C41.9 28.7 42.0 28.7 42.0 28.7 C42.0 28.9 42.1 28.9 42.3 28.7 C42.5 28.7 42.6 28.5 42.6 28.4 C42.5 28.3 42.6 28.3 42.7 28.3 C42.8 28.3 43.0 28.0 43.2 27.3 C43.3 27.2 43.4 27.1 43.6 27.1 C43.8 27.1 44.0 27.0 44.0 27.0 C44.0 26.9 44.1 26.9 44.2 26.9 C44.3 27.0 44.4 26.9 44.4 26.8 C44.4 26.7 44.4 26.5 44.4 26.5 C44.5 26.4 44.5 26.2 44.6 26.1 C44.6 25.9 44.8 25.7 45.0 25.6 C45.2 25.6 45.3 25.4 45.3 25.2 C45.3 24.9 45.3 24.9 45.6 24.9 C45.9 25.0 45.9 25.0 45.9 24.8 C45.9 24.7 46.0 24.6 46.2 24.5 C46.4 24.4 46.4 24.3 46.2 24.3 C46.1 24.3 46.2 24.3 46.3 24.2 C46.5 24.2 46.6 24.1 46.6 24.0 C46.6 23.9 46.7 23.8 46.8 23.8 C46.9 23.8 47.1 23.7 47.2 23.5 C47.3 23.3 47.5 23.2 47.7 23.2 C47.8 23.3 47.9 23.2 47.9 23.1 C47.9 23.1 48.0 23.0 48.0 23.1 C48.1 23.1 48.2 23.1 48.4 23.0 C48.6 22.8 50.4 22.8 50.7 23.0 C51.0 23.2 51.8 23.3 51.8 23.2 C51.8 23.1 52.0 23.1 52.2 23.1 C52.5 23.1 52.6 23.1 52.6 23.0 C52.6 22.7 53.0 22.7 53.1 23.1 C53.2 23.2 53.5 23.6 53.8 23.9 C54.0 24.3 54.5 24.9 54.9 25.4 C55.5 26.4 55.7 26.5 56.0 25.9 C56.1 25.7 56.1 25.0 56.1 23.1 L56.0 20.6 L56.4 19.3 C56.6 18.6 56.9 17.7 57.0 17.4 C57.1 17.0 57.3 16.5 57.5 16.1 C57.7 15.8 57.8 15.2 57.8 14.8 C57.8 14.4 57.9 13.9 57.9 13.8 C58.0 13.6 57.9 13.1 57.6 11.9 C57.6 11.6 57.0 11.0 56.8 11.0 C56.7 11.0 56.7 10.9 56.7 10.7 C56.7 10.6 56.6 10.5 56.5 10.4 C56.4 10.4 56.3 10.3 56.3 10.2 C56.4 10.1 56.4 10.1 56.3 10.1 C56.1 10.1 56.1 10.0 56.3 9.9 C56.5 9.8 56.4 9.8 56.3 9.8 C56.1 9.8 56.0 9.7 56.0 9.2 C56.0 8.8 56.1 8.6 56.2 8.6 C56.3 8.6 56.4 8.5 56.4 8.4 C56.4 8.3 56.5 8.2 56.5 8.2 C56.6 8.2 56.7 8.1 56.7 7.8 C56.7 7.6 56.7 7.5 56.9 7.5 C57.0 7.6 57.1 7.5 57.1 7.4 C57.1 7.3 57.2 7.2 57.4 7.1 C57.6 7.1 57.7 6.9 57.7 6.8 C57.7 6.7 57.8 6.7 57.9 6.7 C58.1 6.7 58.2 6.6 58.3 6.4 L58.4 6.1 L58.4 6.4 C58.4 6.6 58.4 6.7 58.5 6.5 C58.5 6.2 59.2 6.2 59.2 6.5 C59.2 6.6 59.3 6.7 59.4 6.8 C59.5 6.8 59.7 6.9 59.8 7.1 C60.0 7.2 60.1 7.3 60.2 7.3 C60.3 7.3 60.3 7.4 60.3 7.4 C60.3 7.5 60.4 7.5 60.5 7.5 C60.7 7.5 60.8 7.5 61.0 7.6 C61.1 7.7 61.3 7.9 61.5 7.9 C61.7 8.0 61.8 8.1 61.7 8.1 C61.7 8.2 61.8 8.4 61.9 8.5 C62.1 8.6 62.2 8.8 62.1 8.9 C62.1 8.9 62.2 9.1 62.3 9.2 C62.5 9.2 62.6 9.4 62.5 9.5 C62.5 9.6 62.6 9.8 62.7 10.0 C62.8 10.1 62.9 10.3 62.9 10.3 C62.8 10.3 62.8 10.3 62.8 10.4 C62.8 10.4 62.9 10.6 62.9 10.8 C63.0 11.0 63.0 11.2 63.1 11.3 C63.2 11.3 63.2 11.4 63.2 11.4 C63.1 11.4 63.2 11.6 63.3 11.9 C63.4 12.1 63.5 12.5 63.6 12.7 C63.6 13.0 63.7 13.2 63.8 13.3 C64.1 13.6 64.1 14.6 63.8 14.7 C63.7 14.7 63.7 15.1 63.7 15.8 C63.6 16.7 63.7 16.9 63.9 17.1 C64.3 17.5 64.2 18.4 63.7 18.4 C63.5 18.4 63.5 18.5 63.5 19.0 C63.5 19.6 63.9 20.8 63.9 20.2 C63.9 20.1 63.9 20.0 63.9 20.0 C64.1 20.2 64.1 22.6 64.0 22.6 C63.9 22.6 63.9 22.8 63.8 23.0 C63.8 23.2 63.6 23.4 63.6 23.4 C63.5 23.4 63.3 23.5 63.3 23.6 C63.3 23.7 63.2 23.7 63.2 23.5 C63.2 23.2 63.0 23.2 63.0 23.5 C63.0 23.6 62.9 23.7 62.8 23.7 C62.8 23.7 62.7 23.8 62.7 24.0 C62.7 24.2 62.6 24.3 62.6 24.3 C62.4 24.3 62.5 26.3 62.7 26.7 C62.8 26.8 62.8 27.0 62.7 27.0 C62.7 27.1 62.7 27.1 62.8 27.1 C62.9 27.1 62.9 27.3 62.9 27.6 C63.0 28.2 63.1 28.5 63.2 28.5 C63.3 28.4 63.4 28.5 63.4 28.6 C63.5 28.7 63.6 28.9 63.7 29.0 C63.8 29.1 63.9 29.5 63.9 29.8 C63.9 30.1 63.9 30.3 64.0 30.3 C64.2 30.2 64.3 30.6 64.3 31.2 C64.3 31.5 64.3 31.7 64.4 31.6 C64.5 31.6 64.5 31.7 64.5 32.0 C64.5 32.2 64.5 32.5 64.4 32.5 C64.3 32.5 64.3 32.5 64.3 32.7 C64.3 32.8 64.2 32.8 64.1 32.9 C64.0 32.9 64.0 32.9 64.1 33.0 C64.3 33.1 64.3 33.1 64.1 33.1 C63.9 33.1 63.9 33.2 63.9 33.6 C63.9 33.8 63.9 34.0 64.0 34.1 C64.1 34.1 64.1 34.3 64.1 34.5 C64.2 35.2 64.2 35.2 64.4 35.1 C64.5 35.1 64.5 35.2 64.5 35.7 C64.5 36.2 64.6 36.4 64.7 36.4 C64.8 36.4 64.9 36.5 65.0 36.7 C65.0 36.9 65.1 37.0 65.2 37.0 C65.2 36.9 65.3 37.2 65.4 37.5 C65.4 37.8 65.5 38.1 65.6 38.1 C65.7 38.1 65.7 38.1 65.6 38.2 C65.4 38.3 65.4 38.3 65.6 38.3 C65.8 38.3 65.8 38.4 65.8 39.2 C65.7 39.8 65.7 40.1 65.8 40.2 C65.9 40.2 66.0 40.6 66.1 41.1 C66.1 41.2 66.2 41.2 66.4 41.2 C66.5 41.2 66.6 41.3 66.6 41.4 C66.6 41.4 66.5 41.4 66.4 41.4 C66.2 41.3 66.2 41.4 66.5 41.6 C66.6 41.8 66.8 42.0 66.8 42.1 C66.8 42.1 67.0 42.4 67.2 42.7 C67.5 43.0 67.7 43.3 67.7 43.5 C67.7 43.8 67.8 44.1 68.0 44.1 C68.1 44.1 68.2 44.3 68.2 44.7 C68.2 45.0 68.3 45.3 68.3 45.3 C68.6 45.3 69.0 46.5 68.7 46.8 C68.6 46.9 68.7 47.5 68.9 47.4 C69.1 47.3 69.0 48.1 68.8 48.3 C68.6 48.4 68.7 49.2 68.9 49.2 C69.0 49.2 69.0 49.3 68.9 49.3 C68.8 49.4 68.7 49.6 68.7 49.9 C68.7 50.1 68.5 50.3 68.4 50.4 C68.3 50.5 68.3 50.5 68.4 50.5 C68.4 50.5 68.4 50.7 68.3 50.9 C68.3 51.0 68.3 51.2 68.3 51.2 C68.4 51.2 68.4 51.4 68.4 51.7 C68.5 52.6 68.6 53.3 68.8 53.8 C68.9 54.0 69.0 54.4 69.0 54.7 C69.0 55.0 69.1 55.3 69.1 55.4 C69.2 55.4 69.3 55.6 69.3 55.8 C69.3 56.0 69.3 56.2 69.4 56.2 C69.5 56.2 69.5 57.0 69.4 57.1 C69.3 57.1 69.4 57.4 69.5 57.7 C69.6 58.2 69.6 58.3 69.5 58.7 C69.3 59.0 69.3 59.8 69.5 59.8 C69.6 59.8 69.6 60.0 69.6 60.2 C69.6 60.5 69.7 60.6 69.8 60.5 C69.8 60.5 69.9 60.6 69.9 60.7 C69.9 60.9 69.8 61.0 69.7 61.0 C69.6 61.1 69.6 62.9 69.8 63.2 C69.9 63.4 70.0 64.0 69.9 64.2 C69.8 64.3 69.9 64.4 70.0 64.4 C70.2 64.5 70.2 64.5 70.0 64.5 C69.9 64.5 69.8 64.6 69.8 64.8 C69.7 65.2 69.6 65.6 69.5 66.2 C69.3 66.5 69.2 67.1 69.2 67.5 C69.1 68.3 69.1 68.4 69.3 68.3 C69.4 68.2 69.5 68.3 69.5 68.3 C69.5 68.4 69.4 68.5 69.3 68.5 C69.2 68.5 69.1 68.5 69.1 68.7 C69.1 68.8 69.1 68.9 69.0 68.9 C68.9 68.9 68.9 69.1 68.9 69.5 C68.9 70.0 68.9 70.1 68.9 69.9 L68.8 69.6 L68.7 70.0 C68.7 70.2 68.6 70.4 68.4 70.3 C68.3 70.3 68.2 70.4 68.2 70.6 C68.2 70.8 68.1 70.9 68.0 70.9 C67.9 70.9 67.8 71.1 67.8 71.2 C67.8 71.5 67.8 71.5 67.7 71.3 C67.6 71.0 67.6 71.0 67.5 71.3 C67.5 71.5 67.3 71.6 67.0 71.7 C66.7 71.7 66.5 71.8 66.5 72.0 C66.5 72.1 66.4 72.3 66.4 72.3 C66.4 72.4 66.4 72.6 66.3 72.7 C66.2 72.8 66.1 72.9 66.2 73.0 C66.2 73.0 66.2 73.0 66.1 73.0 C65.9 73.0 65.8 73.1 65.8 73.2 C65.8 73.3 65.8 73.4 65.7 73.4 C65.6 73.4 65.6 73.6 65.6 73.7 C65.6 73.8 65.7 74.0 65.7 74.0 C65.9 74.0 65.8 74.0 65.7 74.1 C65.6 74.2 65.6 74.2 65.7 74.2 C66.0 74.2 65.7 75.4 65.3 75.4 C65.1 75.5 65.2 75.5 65.4 75.5 C65.5 75.5 65.6 75.6 65.6 75.8 C65.6 75.9 65.6 76.1 65.7 76.1 C65.8 76.1 65.8 76.2 65.8 76.4 C65.8 76.7 65.8 76.8 65.7 76.8 C65.6 76.8 65.6 77.0 65.6 77.2 C65.6 77.3 65.5 77.5 65.4 77.5 C65.4 77.5 65.3 77.7 65.3 77.9 L65.3 78.2 L65.2 77.9 C65.1 77.6 65.1 77.6 65.1 77.8 C65.1 78.0 65.0 78.2 64.9 78.2 C64.9 78.3 64.8 78.4 64.8 78.6 C64.8 78.8 64.9 78.9 64.9 78.9 C65.0 78.9 65.1 79.2 65.1 79.5 C65.1 79.9 65.0 80.1 64.9 80.1 C64.8 80.1 64.8 80.3 64.9 80.7 C64.9 81.2 64.9 81.3 64.7 81.3 C64.6 81.3 64.5 81.3 64.6 81.4 C64.8 81.4 64.7 81.5 64.6 81.6 C64.5 81.7 64.4 81.9 64.5 82.1 C64.5 82.2 64.5 82.4 64.4 82.4 C64.3 82.5 64.3 82.5 64.3 82.6 C64.4 82.7 64.4 82.7 64.3 82.7 C64.2 82.7 64.2 82.8 64.2 82.9 C64.2 83.0 64.1 83.2 64.1 83.4 C64.0 83.6 64.0 83.9 63.9 84.1 C63.9 84.4 63.8 84.5 63.7 84.5 C63.7 84.5 63.6 84.8 63.6 85.3 C63.6 86.0 63.6 86.1 63.4 86.1 C63.3 86.0 63.2 86.1 63.1 86.7 C63.1 87.1 63.1 87.4 63.1 87.5 C63.1 87.5 63.0 87.6 62.8 87.6 C62.7 87.6 62.6 87.6 62.6 87.7 C62.5 87.8 62.5 87.9 62.5 88.0 C62.5 88.0 62.5 88.1 62.4 88.2 C62.4 88.2 62.3 88.4 62.3 88.6 C62.3 88.8 62.2 88.9 61.8 88.9 C61.4 89.0 61.3 89.1 61.3 89.2 C61.3 89.3 61.2 89.4 61.1 89.4 C61.1 89.4 61.0 89.5 61.0 89.7 C61.0 89.8 60.9 89.9 60.6 90.0 C60.0 90.1 59.7 90.0 59.7 89.6 C59.7 89.3 59.6 89.3 59.4 89.3 C59.2 89.3 59.1 89.3 59.1 89.0 C59.0 88.7 58.9 88.6 58.4 88.6 C58.0 88.5 57.9 88.4 57.8 88.2 C57.8 87.9 57.8 87.9 57.7 88.2 C57.6 88.5 57.6 88.5 57.6 88.3 C57.6 88.0 57.5 88.0 56.7 88.0 L55.9 88.0 L55.9 88.6 C55.9 89.0 55.9 89.1 56.1 89.1 C56.7 89.1 57.1 89.5 57.2 90.0 C57.3 90.5 57.3 90.5 57.3 90.1 L57.4 89.7 L57.5 90.2 C57.5 90.6 57.5 90.6 57.0 90.6 C56.5 90.6 56.4 90.6 56.4 90.9 C56.4 91.2 56.5 91.2 56.7 91.2 C57.0 91.2 57.1 91.3 57.1 91.5 C57.1 91.9 56.1 91.9 56.0 91.5 C55.9 91.2 55.9 91.2 55.9 91.5 C55.9 91.8 55.8 91.9 55.2 91.9 C54.7 92.0 54.6 92.1 54.6 92.4 C54.6 92.6 54.5 92.7 54.3 92.7 C54.0 92.7 53.9 92.8 53.9 92.9 C53.9 93.2 53.9 93.2 53.3 93.2 C52.3 93.1 52.1 93.2 52.1 93.6 C52.1 93.9 52.1 93.9 52.0 93.5 C51.9 93.2 51.9 93.2 51.8 93.5 L51.8 93.8 L49.6 93.8 L47.4 93.8 L47.4 93.5 C47.5 93.2 47.4 93.2 46.8 93.2 C46.3 93.2 46.2 93.3 46.2 93.5 C46.2 93.8 46.1 93.8 45.8 93.8 C45.5 93.7 45.4 93.6 45.4 93.5 C45.4 93.2 45.3 93.2 44.8 93.2 C44.2 93.2 44.1 93.2 44.1 93.5 C44.1 93.6 44.0 93.7 43.7 93.8 C43.4 93.8 43.3 93.8 43.3 93.6 Z"/><path class="kp-line" fill-rule="evenodd" d="M62.5 87.6 C62.5 87.5 62.6 86.8 62.7 86.1 C62.9 84.5 63.2 83.2 63.5 82.4 C63.6 82.1 63.8 81.6 63.8 81.3 C63.9 80.7 63.6 78.7 63.5 78.8 C63.4 78.8 63.4 78.7 63.4 78.6 C63.4 78.4 63.3 78.3 63.2 78.3 C63.1 78.2 63.0 77.7 63.0 76.9 C62.9 75.8 63.0 75.5 63.2 74.9 L63.5 74.3 L64.1 74.3 C64.9 74.3 64.9 74.3 65.5 73.0 C65.9 72.0 66.0 71.3 65.8 68.7 C65.8 68.0 65.8 67.8 66.0 67.6 C66.1 67.5 66.2 67.3 66.3 67.0 C66.4 66.8 66.4 66.5 66.5 66.5 C66.5 66.5 66.8 66.1 67.0 65.8 C67.2 65.4 67.4 65.1 67.5 65.0 C67.6 65.0 67.7 64.9 67.7 64.8 C67.7 64.7 67.8 64.5 68.0 64.3 C68.5 63.9 68.7 63.4 68.9 61.8 C69.3 59.6 69.0 58.1 68.2 57.9 C68.1 57.9 67.6 57.9 67.3 58.0 C66.6 58.1 66.6 58.1 65.9 57.6 C65.2 57.1 65.0 57.0 63.9 56.4 C63.5 56.2 62.9 55.8 62.7 55.6 C62.1 55.0 61.8 54.8 60.7 54.5 C60.0 54.3 59.6 54.1 59.2 53.7 C57.3 52.0 57.1 51.9 56.5 52.0 C55.9 52.2 55.7 52.4 55.4 54.0 C55.1 55.4 54.2 57.6 53.8 58.1 C53.6 58.2 53.2 58.5 52.8 58.6 C51.8 58.9 50.9 58.6 50.1 57.8 C49.4 57.0 48.6 56.5 47.6 56.1 C46.8 55.8 46.2 55.4 46.2 55.1 C46.2 55.0 45.8 54.6 45.2 54.2 C43.9 53.1 42.5 52.6 41.2 52.6 C40.5 52.7 40.3 52.7 40.3 52.9 C40.3 53.1 40.0 53.5 39.6 54.0 C39.3 54.3 38.0 54.6 36.8 54.8 C36.6 54.8 35.8 54.9 35.2 55.0 C34.3 55.1 34.0 55.1 33.5 55.0 C33.2 54.9 32.8 54.8 32.7 54.8 C32.3 54.9 31.7 55.5 31.3 56.2 C30.7 57.1 30.8 57.6 31.7 59.5 C32.1 60.3 32.5 61.0 32.5 61.0 C32.5 61.1 32.7 61.5 32.9 62.1 C33.2 62.6 33.4 63.1 33.4 63.2 C33.4 63.4 33.9 64.3 34.4 64.9 C35.3 66.1 35.6 66.5 35.8 67.4 C35.9 67.9 36.1 68.6 36.2 69.0 C36.3 69.4 36.6 70.4 36.8 71.2 C37.1 72.5 37.3 73.1 37.9 74.5 C38.0 74.7 38.3 75.3 38.5 76.0 C38.8 76.9 39.0 77.2 39.4 77.4 C39.9 77.8 40.0 78.3 39.6 79.1 L39.3 79.7 L39.6 80.3 C40.3 81.6 40.3 82.0 39.5 83.9 C39.2 84.4 39.0 85.1 38.9 85.3 C38.8 85.6 38.7 85.6 38.6 85.5 C38.5 85.4 38.5 85.3 38.6 85.2 C38.6 85.1 38.6 85.1 38.5 85.0 C38.4 85.0 38.4 84.9 38.4 84.8 C38.5 84.7 38.4 84.6 38.4 84.6 C38.3 84.5 38.2 84.0 38.1 83.5 C38.1 83.0 38.0 82.4 37.9 82.2 C37.8 82.0 37.8 81.8 37.9 81.4 C38.0 81.0 38.0 80.9 37.8 80.8 C37.7 80.7 37.7 80.6 37.8 80.6 C38.0 80.6 38.0 80.6 37.8 80.5 C37.7 80.4 37.7 80.3 37.8 79.7 C38.1 78.5 38.0 77.3 37.7 77.1 C37.6 77.0 37.6 77.0 37.6 77.0 C37.8 77.0 37.7 76.2 37.6 76.1 C37.4 75.9 37.3 75.5 37.5 75.5 C37.6 75.5 37.6 75.5 37.5 75.4 C37.3 75.3 37.3 75.2 37.3 74.3 C37.3 74.0 37.2 73.8 37.1 73.6 C37.0 73.5 36.9 73.3 36.9 73.2 C36.9 73.1 36.9 73.0 36.8 72.9 C36.8 72.8 36.8 72.6 36.8 72.4 C36.8 72.1 36.7 72.0 36.5 72.0 C36.3 71.9 36.2 71.8 36.3 71.7 C36.3 71.6 36.3 71.5 36.2 71.5 C36.2 71.5 36.1 71.3 36.1 71.1 C36.1 70.8 35.9 70.7 35.8 71.0 C35.8 71.1 35.7 71.0 35.7 70.8 C35.7 70.4 35.7 70.4 35.6 70.6 C35.5 70.8 35.5 70.8 35.4 70.5 C35.3 70.3 35.3 69.9 35.3 69.7 C35.3 69.5 35.2 69.4 35.1 69.4 C35.0 69.5 34.9 69.4 34.9 69.3 C34.9 69.2 34.9 69.1 34.9 69.0 C34.9 68.9 34.8 68.6 34.8 68.4 C34.8 68.0 34.8 67.9 34.5 67.9 C34.3 67.9 34.3 67.9 34.5 67.8 C34.6 67.8 34.7 67.7 34.6 67.7 C34.6 67.6 34.5 67.6 34.4 67.6 C34.2 67.7 34.2 67.6 34.2 67.4 C34.2 67.2 34.2 67.0 34.3 67.0 C34.4 67.0 34.4 67.0 34.3 66.9 C34.2 66.8 34.0 66.8 33.8 66.9 C33.6 66.9 33.5 66.9 33.5 66.6 C33.5 66.5 33.5 66.4 33.4 66.4 C33.3 66.5 33.0 66.2 33.0 65.9 C33.0 65.8 32.9 65.7 32.8 65.7 C32.7 65.7 32.7 65.5 32.8 65.1 C32.9 64.6 32.8 64.5 32.6 64.3 C32.5 64.3 32.4 63.9 32.4 63.6 C32.3 63.2 32.3 63.0 32.2 63.1 C32.1 63.2 32.1 63.1 32.1 62.9 C32.1 62.6 32.0 62.5 32.0 62.5 C31.9 62.5 31.7 62.4 31.6 62.2 C31.5 61.9 31.5 61.8 31.5 61.7 C31.7 61.6 31.7 61.1 31.6 61.1 C31.5 61.1 31.4 60.7 31.2 59.6 C31.1 59.3 31.1 59.1 31.0 59.1 C30.9 59.0 30.9 58.9 30.9 58.8 C30.9 58.6 30.8 58.5 30.7 58.4 C30.6 58.3 30.5 58.0 30.4 57.6 C30.4 57.1 30.3 56.8 30.2 56.8 C30.1 56.8 30.1 56.5 30.1 55.4 C30.1 54.6 30.2 54.2 30.4 54.0 C30.5 54.0 30.5 53.9 30.4 53.9 C30.3 53.9 30.2 53.8 30.2 53.7 C30.2 53.5 30.1 53.4 30.0 53.4 C29.9 53.4 29.9 53.3 29.9 53.3 C30.0 53.2 30.0 52.8 30.0 52.4 C30.0 51.9 30.1 51.7 30.2 51.6 C30.3 51.6 30.3 51.4 30.2 51.0 C30.2 50.8 30.2 50.5 30.2 50.5 C30.2 50.5 30.2 50.4 30.1 50.3 C30.0 50.2 29.9 50.1 29.9 50.0 C29.9 50.0 29.9 49.8 29.9 49.7 C29.8 49.6 29.9 49.5 29.9 49.5 C30.0 49.5 30.1 49.4 30.0 49.3 C30.0 49.3 30.0 49.2 30.1 49.2 C30.3 49.2 30.3 48.9 30.1 48.8 C29.9 48.7 29.9 46.9 30.1 45.8 C30.2 45.3 30.3 44.9 30.3 45.0 C30.4 45.1 30.4 45.1 30.6 45.0 C30.6 44.9 30.7 44.8 30.7 44.7 C30.6 44.7 30.7 44.6 30.8 44.5 C30.9 44.4 31.0 44.3 31.0 44.2 C31.0 44.1 31.1 43.8 31.2 43.6 C31.3 43.4 31.4 43.1 31.4 43.0 C31.3 42.9 31.3 42.8 31.4 42.7 C31.5 42.7 31.5 42.8 31.5 43.0 C31.5 43.3 31.6 43.3 31.7 43.2 C31.7 43.1 31.8 43.0 31.7 42.9 C31.7 42.8 31.8 42.8 31.9 42.8 C32.1 42.8 32.1 42.8 32.0 42.7 C31.8 42.6 31.8 42.6 32.1 42.5 C32.2 42.5 32.3 42.4 32.3 42.3 C32.2 42.2 32.2 42.1 32.3 42.1 C32.4 42.1 32.4 42.1 32.4 42.0 C32.4 41.9 32.8 41.4 32.9 41.4 C33.0 41.4 33.1 41.3 33.1 41.1 C33.1 41.0 33.3 40.9 33.4 40.9 C33.6 40.9 34.3 40.3 34.3 40.1 C34.3 40.1 34.3 40.0 34.3 39.9 C34.3 39.7 34.4 39.7 34.5 39.7 C34.6 39.7 34.7 39.5 34.7 39.4 C34.7 39.0 35.1 38.3 35.3 38.3 C35.5 38.3 35.5 38.3 35.3 38.2 C35.1 38.1 35.0 38.1 35.2 38.1 C35.6 38.1 35.8 37.2 35.6 36.1 C35.3 34.2 35.3 34.1 35.5 34.2 C35.7 34.3 35.7 34.2 35.7 33.7 C35.7 33.1 35.8 33.0 36.7 33.1 C36.9 33.1 37.0 33.1 37.0 33.0 C37.0 32.7 37.1 32.6 37.4 32.5 C37.6 32.5 37.8 32.4 37.8 32.3 C37.8 32.2 37.9 32.2 37.9 32.3 C38.0 32.4 38.1 32.3 38.1 31.8 C38.3 31.0 38.3 30.8 38.5 30.8 C38.6 30.8 38.7 30.7 38.8 30.6 C38.8 30.5 38.9 30.5 38.9 30.6 C38.9 30.7 39.0 30.7 39.1 30.5 C39.3 30.3 39.4 30.2 39.4 30.3 C39.4 30.4 39.5 30.5 39.6 30.5 C39.7 30.5 39.8 30.4 39.8 30.3 C39.8 30.2 39.8 30.2 39.9 30.3 C40.0 30.5 40.0 30.4 40.1 30.2 C40.2 29.9 40.3 29.8 40.6 29.8 C40.9 29.8 41.0 29.8 41.0 29.5 C41.0 29.3 41.1 29.2 41.4 29.1 C41.6 29.1 41.8 28.9 41.9 28.8 C41.9 28.7 42.0 28.7 42.0 28.7 C42.0 28.9 42.1 28.9 42.3 28.7 C42.5 28.7 42.6 28.5 42.6 28.4 C42.5 28.3 42.6 28.3 42.7 28.3 C42.8 28.3 43.0 28.0 43.2 27.3 C43.3 27.1 43.6 27.0 43.6 27.3 C43.5 27.9 44.1 28.2 46.0 28.4 L47.0 28.4 L47.5 29.1 C48.1 29.8 48.9 30.3 49.7 30.5 C50.2 30.6 50.4 30.6 51.1 30.4 C51.9 30.1 52.0 30.1 52.8 30.2 C53.7 30.4 54.0 30.4 54.7 30.0 C55.2 29.7 55.3 29.1 54.9 28.6 C54.7 28.3 54.4 27.4 54.1 26.3 C54.0 26.0 53.8 25.7 53.6 25.6 C53.4 25.5 53.0 25.1 52.5 24.7 C51.8 24.0 51.7 23.9 51.1 23.9 C50.7 23.9 50.1 23.9 49.7 23.8 C49.3 23.7 48.6 23.7 48.1 23.7 C47.5 23.6 47.1 23.6 47.1 23.6 C47.1 23.4 47.5 23.2 47.7 23.2 C47.8 23.3 47.9 23.2 47.9 23.1 C47.9 23.1 48.0 23.0 48.0 23.1 C48.1 23.1 48.2 23.1 48.4 23.0 C48.6 22.8 50.4 22.8 50.7 23.0 C51.0 23.2 51.8 23.3 51.8 23.2 C51.8 23.1 52.0 23.1 52.2 23.1 C52.5 23.1 52.6 23.1 52.6 23.0 C52.6 22.7 53.0 22.7 53.1 23.1 C53.2 23.2 53.5 23.6 53.8 23.9 C54.0 24.3 54.5 24.9 54.9 25.4 C55.5 26.4 55.7 26.5 56.0 25.9 C56.1 25.7 56.1 25.0 56.1 23.1 L56.0 20.6 L56.4 19.3 C56.6 18.6 56.9 17.7 57.0 17.4 C57.1 17.0 57.3 16.5 57.5 16.1 C57.7 15.8 57.8 15.2 57.8 14.8 C57.8 14.4 57.9 13.9 57.9 13.8 C58.0 13.6 57.9 13.1 57.6 11.9 C57.6 11.6 57.0 11.0 56.8 11.0 C56.7 11.0 56.7 10.9 56.7 10.7 C56.7 10.6 56.6 10.5 56.5 10.4 C56.4 10.4 56.3 10.3 56.3 10.2 C56.4 10.1 56.4 10.1 56.3 10.1 C56.1 10.1 56.1 10.0 56.3 9.9 C56.5 9.8 56.4 9.8 56.3 9.8 C56.1 9.8 56.0 9.7 56.0 9.2 C56.0 8.8 56.1 8.6 56.2 8.6 C56.3 8.6 56.4 8.5 56.4 8.4 C56.4 7.7 57.2 9.1 57.6 10.5 C57.9 11.7 58.3 12.5 58.9 13.0 C59.1 13.2 59.3 13.3 59.4 13.3 C59.4 13.3 59.6 13.5 59.9 13.7 C60.3 14.0 60.5 14.0 61.1 13.9 C61.8 13.8 61.9 13.9 62.1 14.2 C62.4 14.7 62.4 15.7 62.1 16.1 C61.9 16.3 61.8 16.4 61.5 16.3 C60.4 16.1 60.2 16.1 60.0 16.2 C59.9 16.3 59.5 16.5 59.2 16.7 C58.4 17.0 58.2 17.4 57.8 18.9 C57.7 19.6 57.5 20.3 57.4 20.5 C57.1 21.4 57.0 22.5 57.1 23.3 C57.3 24.2 58.4 26.8 58.8 27.3 C58.9 27.5 59.2 28.1 59.4 28.5 C59.7 29.0 60.0 29.4 60.2 29.5 C60.9 29.9 63.1 29.7 63.5 29.2 C63.8 28.9 63.9 29.1 63.9 29.9 C63.9 30.1 63.9 30.3 64.0 30.3 C64.2 30.2 64.3 30.6 64.3 31.2 C64.3 31.5 64.3 31.7 64.4 31.6 C64.5 31.6 64.5 31.7 64.5 32.0 C64.5 32.2 64.5 32.5 64.4 32.5 C64.3 32.5 64.3 32.5 64.3 32.7 C64.3 32.8 64.2 32.8 64.1 32.9 C64.0 32.9 64.0 32.9 64.1 33.0 C64.3 33.1 64.3 33.1 64.1 33.1 C64.0 33.1 63.9 33.2 63.9 33.2 C63.9 33.3 63.4 33.1 62.7 32.8 C61.2 32.0 60.8 32.0 59.7 32.9 C58.8 33.6 56.4 33.6 55.7 32.9 C55.5 32.7 55.3 32.4 55.2 32.3 C55.1 32.1 54.1 32.1 53.9 32.3 C53.8 32.4 53.6 32.5 53.4 32.5 C53.1 32.5 52.8 32.5 52.6 32.6 C52.2 32.7 52.1 32.7 51.5 32.5 C51.2 32.3 50.9 32.1 50.9 32.1 C50.9 31.8 50.6 31.6 50.4 31.6 C50.2 31.7 50.1 31.8 50.1 31.8 C50.1 32.1 49.4 32.6 48.2 33.2 C46.7 34.0 46.7 34.0 46.4 34.9 C46.1 35.8 46.2 36.2 46.9 36.4 C47.6 36.6 48.3 37.1 49.0 37.7 C49.8 38.4 50.5 38.7 51.3 38.7 C51.9 38.7 52.2 38.8 52.5 39.0 C53.2 39.5 53.5 39.5 54.7 39.3 C55.3 39.2 56.1 39.0 56.3 38.9 C57.2 38.7 58.6 38.4 58.6 38.5 C58.7 38.5 58.9 38.7 59.1 38.8 C59.3 39.0 59.7 39.4 59.9 39.7 C60.1 40.0 60.3 40.3 60.4 40.3 C60.8 40.5 59.8 42.9 59.2 43.2 C58.7 43.4 58.5 44.2 58.8 44.8 C59.1 45.3 59.1 45.9 58.9 45.9 C58.9 45.9 58.7 46.1 58.7 46.3 C58.5 46.8 58.6 47.2 59.0 47.5 C59.1 47.6 59.3 48.0 59.4 48.3 C59.7 48.9 60.4 49.5 60.8 49.5 C61.3 49.5 61.6 49.6 61.7 49.9 C61.8 50.0 62.0 50.3 62.2 50.5 C62.5 50.8 62.9 51.3 63.1 51.7 L63.4 52.3 L64.4 52.4 C65.8 52.5 66.7 52.8 67.4 53.5 C67.9 54.0 68.1 54.1 68.5 54.0 C68.9 54.0 68.9 54.0 69.0 54.7 C69.0 55.0 69.1 55.3 69.1 55.4 C69.2 55.4 69.3 55.6 69.3 55.8 C69.3 56.0 69.3 56.2 69.4 56.2 C69.5 56.2 69.5 57.0 69.4 57.1 C69.3 57.1 69.4 57.4 69.5 57.7 C69.6 58.2 69.6 58.3 69.5 58.7 C69.3 59.0 69.3 59.8 69.5 59.8 C69.6 59.8 69.6 60.0 69.6 60.2 C69.6 60.5 69.7 60.6 69.8 60.5 C69.8 60.5 69.9 60.6 69.9 60.7 C69.9 60.9 69.8 61.0 69.7 61.0 C69.6 61.1 69.6 62.9 69.8 63.2 C69.9 63.4 70.0 64.0 69.9 64.2 C69.8 64.3 69.9 64.4 70.0 64.4 C70.2 64.5 70.2 64.5 70.0 64.5 C69.9 64.5 69.8 64.6 69.8 64.8 C69.7 65.2 69.6 65.6 69.5 66.2 C69.3 66.5 69.2 67.1 69.2 67.5 C69.1 68.3 69.1 68.4 69.3 68.3 C69.4 68.2 69.5 68.3 69.5 68.3 C69.5 68.4 69.4 68.5 69.3 68.5 C69.2 68.5 69.1 68.5 69.1 68.7 C69.1 68.8 69.1 68.9 69.0 68.9 C68.9 68.9 68.9 69.1 68.9 69.5 C68.9 70.0 68.9 70.1 68.9 69.9 L68.8 69.6 L68.7 70.0 C68.7 70.2 68.6 70.4 68.4 70.3 C68.3 70.3 68.2 70.4 68.2 70.6 C68.2 70.8 68.1 70.9 68.0 70.9 C67.9 70.9 67.8 71.1 67.8 71.2 C67.8 71.5 67.8 71.5 67.7 71.3 C67.6 71.0 67.6 71.0 67.5 71.3 C67.5 71.5 67.3 71.6 67.0 71.7 C66.7 71.7 66.5 71.8 66.5 72.0 C66.5 72.1 66.4 72.3 66.4 72.3 C66.4 72.4 66.4 72.6 66.3 72.7 C66.2 72.8 66.1 72.9 66.2 73.0 C66.2 73.0 66.2 73.0 66.1 73.0 C65.9 73.0 65.8 73.1 65.8 73.2 C65.8 73.3 65.8 73.4 65.7 73.4 C65.6 73.4 65.6 73.6 65.6 73.7 C65.6 73.8 65.7 74.0 65.7 74.0 C65.9 74.0 65.8 74.0 65.7 74.1 C65.6 74.2 65.6 74.2 65.7 74.2 C66.0 74.2 65.7 75.4 65.3 75.4 C65.1 75.5 65.2 75.5 65.4 75.5 C65.5 75.5 65.6 75.6 65.6 75.8 C65.6 75.9 65.6 76.1 65.7 76.1 C65.8 76.1 65.8 76.2 65.8 76.4 C65.8 76.7 65.8 76.8 65.7 76.8 C65.6 76.8 65.6 77.0 65.6 77.2 C65.6 77.3 65.5 77.5 65.4 77.5 C65.4 77.5 65.3 77.7 65.3 77.9 L65.3 78.2 L65.2 77.9 C65.1 77.6 65.1 77.6 65.1 77.8 C65.1 78.0 65.0 78.2 64.9 78.2 C64.9 78.3 64.8 78.4 64.8 78.6 C64.8 78.8 64.9 78.9 64.9 78.9 C65.0 78.9 65.1 79.2 65.1 79.5 C65.1 79.9 65.0 80.1 64.9 80.1 C64.8 80.1 64.8 80.3 64.9 80.7 C64.9 81.2 64.9 81.3 64.7 81.3 C64.6 81.3 64.5 81.3 64.6 81.4 C64.8 81.4 64.7 81.5 64.6 81.6 C64.5 81.7 64.4 81.9 64.5 82.1 C64.5 82.2 64.5 82.4 64.4 82.4 C64.3 82.5 64.3 82.5 64.3 82.6 C64.4 82.7 64.4 82.7 64.3 82.7 C64.2 82.7 64.2 82.8 64.2 82.9 C64.2 83.0 64.1 83.2 64.1 83.4 C64.0 83.6 64.0 83.9 63.9 84.1 C63.9 84.4 63.8 84.5 63.7 84.5 C63.7 84.5 63.6 84.8 63.6 85.3 C63.6 86.0 63.6 86.1 63.4 86.1 C63.3 86.0 63.2 86.1 63.1 86.7 C63.1 87.1 63.1 87.4 63.1 87.5 C63.1 87.5 63.0 87.6 62.8 87.6 C62.7 87.6 62.6 87.6 62.5 87.7 C62.5 87.8 62.5 87.8 62.5 87.6 Z M51.2 54.7 C51.9 54.3 52.1 53.9 51.8 53.4 C51.6 53.1 51.4 52.6 51.3 52.2 C51.1 51.7 50.7 51.0 50.4 50.4 C49.9 49.8 49.7 49.2 49.5 48.5 C49.1 47.2 49.0 47.0 48.5 46.5 C48.2 46.2 47.9 45.8 47.7 45.5 C47.4 44.9 47.3 44.9 45.7 44.7 C45.2 44.6 44.2 44.4 43.5 44.2 C42.8 43.9 41.3 43.4 40.1 43.1 C39.0 42.8 37.8 42.5 37.5 42.3 C37.2 42.2 36.7 42.0 36.4 41.9 C34.5 41.0 31.6 42.9 31.3 45.2 C31.2 46.1 31.6 47.2 32.1 47.4 C32.5 47.7 32.6 47.7 33.2 47.5 C33.7 47.3 34.1 47.3 34.9 47.3 C35.9 47.4 36.9 47.3 37.8 46.8 C38.2 46.6 38.5 46.5 39.5 46.5 L40.7 46.5 L41.7 47.3 C42.3 47.7 42.9 48.3 43.1 48.5 C43.3 48.7 43.8 49.1 44.2 49.3 C45.1 49.9 47.0 51.6 47.0 51.9 C47.0 52.0 47.3 52.5 47.6 53.1 C48.2 54.0 48.3 54.2 49.0 54.5 C49.9 55.0 50.5 55.1 51.2 54.7 Z M35.4 52.6 C36.5 52.4 36.5 52.2 35.3 52.0 C34.2 51.8 33.9 51.8 33.7 52.1 C33.3 52.7 33.9 52.9 35.4 52.6 Z M68.4 50.0 C68.4 49.9 68.2 49.7 68.1 49.5 C67.9 49.4 67.8 49.2 67.8 49.1 C67.8 48.9 67.8 48.8 67.7 48.8 C67.4 48.8 67.1 47.4 66.9 44.9 C66.8 43.9 66.8 43.5 66.6 43.3 C65.9 42.6 65.7 41.7 65.5 39.4 C65.5 38.5 65.5 38.3 65.7 38.3 C65.8 38.3 65.8 38.5 65.8 39.2 C65.7 39.8 65.7 40.1 65.8 40.2 C65.9 40.2 66.0 40.6 66.1 41.1 C66.1 41.2 66.2 41.2 66.4 41.2 C66.5 41.2 66.6 41.3 66.6 41.4 C66.6 41.4 66.5 41.4 66.4 41.4 C66.2 41.3 66.2 41.4 66.5 41.6 C66.6 41.8 66.8 42.0 66.8 42.1 C66.8 42.1 67.0 42.4 67.2 42.7 C67.5 43.0 67.7 43.3 67.7 43.5 C67.7 43.8 67.8 44.1 68.0 44.1 C68.1 44.1 68.2 44.3 68.2 44.7 C68.2 45.0 68.3 45.3 68.3 45.3 C68.6 45.3 69.0 46.5 68.7 46.8 C68.6 46.9 68.7 47.5 68.9 47.4 C69.1 47.3 69.0 48.1 68.8 48.3 C68.6 48.4 68.7 49.2 68.9 49.2 C69.0 49.2 69.0 49.3 68.9 49.3 C68.8 49.4 68.7 49.6 68.7 49.8 C68.7 50.3 68.5 50.4 68.4 50.0 Z M52.4 46.7 C53.0 46.4 53.3 45.8 53.4 44.8 C53.4 43.6 53.3 43.3 52.5 42.5 L52.0 41.9 L50.4 41.8 C48.6 41.7 47.8 41.9 47.8 42.5 C47.8 42.7 47.9 42.9 48.0 42.9 C48.2 43.0 48.4 43.2 48.5 43.4 C48.6 43.6 49.0 44.1 49.5 44.6 C49.9 45.0 50.3 45.4 50.4 45.5 C51.7 46.9 51.8 47.0 52.4 46.7 Z M44.4 39.7 C44.7 39.4 44.7 39.1 44.3 38.0 C44.0 36.9 43.8 36.6 43.4 36.4 C42.5 35.9 42.5 34.2 43.3 33.3 C43.7 32.7 43.7 32.3 43.2 32.0 C42.4 31.5 40.6 31.6 40.1 32.2 C39.9 32.5 39.9 35.5 40.1 35.5 C40.2 35.5 40.3 35.5 40.3 35.6 C40.3 35.7 40.5 35.7 40.7 35.8 C41.3 35.9 41.5 36.2 41.7 37.6 C42.0 39.1 42.1 39.3 43.0 39.6 C43.8 40.0 44.2 40.0 44.4 39.7 Z"/></svg>